{
.formatVersion = 3;
axes = (
{
name = Weight;
tag = wght;
}
);
classes = (
{
code = "A Aacute Abreve Abreveacute Abrevedotbelow Abrevegrave Abrevehookabove Abrevetilde Acircumflex Acircumflexacute Acircumflexdotbelow Acircumflexgrave Acircumflexhookabove Acircumflextilde Adieresis Adotbelow Agrave Ahookabove Amacron Aogonek Aring Atilde AE B C Cacute Ccaron Ccedilla Cdotaccent D Eth Dcaron Dcroat E Eacute Ecaron Ecircumflex Ecircumflexacute Ecircumflexdotbelow Ecircumflexgrave Ecircumflexhookabove Ecircumflextilde Edieresis Edotaccent Edotbelow Egrave Ehookabove Emacron Eogonek Etilde F G Gbreve Gcaron Gdotaccent Gmacron H Hbar I Iacute Icircumflex Idieresis Idotaccent Idotbelow Igrave Ihookabove Imacron Iogonek Itilde J K L Lacute Lcaron Lslash M N Nacute Ncaron Ntilde O Oacute Ocircumflex Ocircumflexacute Ocircumflexdotbelow Ocircumflexgrave Ocircumflexhookabove Ocircumflextilde Odieresis Odotbelow Ograve Ohookabove Ohorn Ohornacute Ohorndotbelow Ohorngrave Ohornhookabove Ohorntilde Ohungarumlaut Omacron Oslash Otilde OE P Thorn Q R Racute Rcaron S Sacute Scaron Scedilla Germandbls T Tbar Tcaron Tcedilla U Uacute Ucircumflex Udieresis Udotbelow Ugrave Uhookabove Uhorn Uhornacute Uhorndotbelow Uhorngrave Uhornhookabove Uhorntilde Uhungarumlaut Umacron Uogonek Uring Utilde V W Wacute Wcircumflex Wdieresis Wgrave X Y Yacute Ycircumflex Ydieresis Ydotbelow Ygrave Yhookabove Ytilde Z Zacute Zcaron Zdotaccent";
name = Uppercase;
},
{

glyphs = (
{
glyphname = A;
layers = (
{
anchors = (
{
name = bottom;
position = "{316, 0}";
},
{
name = ogonek;
position = "{695, 0}";
},
{
name = top;
position = "{512, 740}";
}
);
layerId = "75B83567-2B70-4CA3-ABBB-A798085DCD06";
shapes = (
{
closed = 1;
nodes = (
(156,0,l),
(228,124,l),
(501,124,l),
(507,0,l),
(695,0,l),
(645,740,l),
(386,740,l),
(-56,0,l)
);
},
{
closed = 1;
nodes = (
(480,561,l),
(494,288,l),
(323,288,l)
);
}
);
width = 772;
},
{
anchors = (
{
name = bottom;
position = "{278, 0}";
},
{
name = ogonek;
position = "{522, 0}";
},
{
name = top;
position = "{474, 740}";
}
);
layerId = "96AFF54B-CDB9-40A8-9C60-2DEF28996F09";
shapes = (
{
closed = 1;
nodes = (
(67,0,l),
(175,177,l),
(485,177,l),
(500,0,l),
(594,0,l),
(529,740,l),
(415,740,l),
(-44,0,l)
);
},
{
closed = 1;
nodes = (
(449,622,l),
(478,265,l),
(230,265,l)
);
}
);
width = 696;
},
{
anchors = (
{
name = bottom;
position = "{258, 0}";
},
{
name = ogonek;
position = "{572, 0}";
},
{
name = top;
position = "{477, 740}";
}
);
layerId = "6FA1D1A9-9908-45CC-BE31-7B82C0699C2A";
shapes = (
{
closed = 1;
nodes = (
(36,0,l),
(174,220,l),
(516,220,l),
(536,0,l),
(572,0,l),
(501,740,l),
(457,740,l),
(-6,0,l)
);
},
{
closed = 1;
nodes = (
(471,697,l),
(512,252,l),
(193,252,l)
);
}
);
width = 655;
}
);
leftKerningGroup = A;
rightKerningGroup = A;
unicode = 65;
},
{
glyphname = Aacute;
layers = (
{
layerId = "75B83567-2B70-4CA3-ABBB-A798085DCD06";
shapes = (
{
closed = 1;
nodes = (
(154,0,l),
(225,124,l),
(498,124,l),
(505,0,l),
(692,0,l),
(643,740,l),
(384,740,l),
(-59,0,l)
);
},
{
closed = 1;
nodes = (
(477,561,l),
(491,288,l),
(320,288,l)
);
},
{
closed = 1;
nodes = (
(721,989,l),
(551,989,l),
(474,810,l),
(607,809,l)
);
}
);
width = 766;
},
{
layerId = "96AFF54B-CDB9-40A8-9C60-2DEF28996F09";
shapes = (
{
closed = 1;
nodes = (
(67,0,l),
(175,177,l),
(485,177,l),
(500,0,l),
(594,0,l),
(529,740,l),
(415,740,l),
(-44,0,l)
);
},
{
closed = 1;
nodes = (
(449,622,l),
(478,265,l),
(230,265,l)
);
},
{
closed = 1;
nodes = (
(655,1001,l),
(561,1001,l),
(466,821,l),
(543,820,l)
);
}
);
width = 696;
},
{
layerId = "6FA1D1A9-9908-45CC-BE31-7B82C0699C2A";
shapes = (
{
closed = 1;
nodes = (
(37,0,l),
(175,220,l),
(517,220,l),
(537,0,l),
(573,0,l),
(502,740,l),
(458,740,l),
(-5,0,l)
);
},
{
closed = 1;
nodes = (
(472,697,l),
(513,252,l),
(195,252,l)
);
},
{
closed = 1;
nodes = (
(587,980,l),
(551,980,l),
(481,828,l),
(510,828,l)
);
}
);
width = 658;
}
);
leftKerningGroup = A;
rightKerningGroup = A;
unicode = 193;
},
{
glyphname = Abreve;
layers = (
{
layerId = "75B83567-2B70-4CA3-ABBB-A798085DCD06";
shapes = (
{
closed = 1;
nodes = (
(154,0,l),
(225,124,l),
(498,124,l),
(505,0,l),
(692,0,l),
(643,740,l),
(384,740,l),
(-59,0,l)
);
},
{
closed = 1;
nodes = (
(477,561,l),
(491,288,l),
(320,288,l)
);
},
{
closed = 1;
nodes = (
(745,802,o),
(764,968,o),
(764,968,c),
(645,968,l),
(645,968,o),
(626,904,o),
(552,904,cs),
(481,904,o),
(495,968,o),
(495,968,c),
(376,968,l),
(376,968,o),
(357,802,o),
(551,802,cs)
);
}
);
width = 766;
},
{
layerId = "96AFF54B-CDB9-40A8-9C60-2DEF28996F09";
shapes = (
{
closed = 1;
nodes = (
(67,0,l),
(175,177,l),
(485,177,l),
(500,0,l),
(594,0,l),
(529,740,l),
(415,740,l),
(-44,0,l)
);
},
{
closed = 1;
nodes = (
(449,622,l),
(478,265,l),
(230,265,l)
);
},
{
closed = 1;
nodes = (
(659,815,o),
(692,957,o),
(692,957,c),
(621,957,l),
(621,957,o),
(595,878,o),
(511,878,cs),
(427,878,o),
(443,957,o),
(443,957,c),
(372,957,l),
(372,957,o),
(356,815,o),
(509,815,cs)
);
}
);
width = 696;
},
{
layerId = "6FA1D1A9-9908-45CC-BE31-7B82C0699C2A";
shapes = (
{
closed = 1;
nodes = (
(37,0,l),
(175,220,l),
(517,220,l),
(537,0,l),
(573,0,l),
(502,740,l),
(458,740,l),
(-5,0,l)
);
},
{
closed = 1;
nodes = (
(472,697,l),
(513,252,l),
(195,252,l)
);
},
{
closed = 1;
nodes = (
(632,823,o),
(664,933,o),
(664,933,c),
(633,933,l),
(633,933,o),
(603,852,o),
(508,852,cs),
(412,852,o),
(427,933,o),
(427,933,c),
(396,933,l),
(396,933,o),
(382,823,o),
(508,823,cs)
);
}
);
width = 658;
}
);
leftKerningGroup = A;
rightKerningGroup = A;
unicode = 258;
},
{
glyphname = Abreveacute;
layers = (
{
layerId = "75B83567-2B70-4CA3-ABBB-A798085DCD06";
shapes = (
{
closed = 1;
nodes = (
(154,0,l),
(225,124,l),
(498,124,l),
(505,0,l),
(692,0,l),
(643,740,l),
(384,740,l),
(-59,0,l)
);
},
{
closed = 1;
nodes = (
(477,561,l),
(491,288,l),
(320,288,l)
);
},
{
closed = 1;
nodes = (
(745,802,o),
(764,968,o),
(764,968,c),
(645,968,l),
(645,968,o),
(626,904,o),
(552,904,cs),
(481,904,o),
(495,968,o),
(495,968,c),
(376,968,l),
(376,968,o),
(357,802,o),
(551,802,cs)
);
},
{
closed = 1;
nodes = (
(772,1182,l),
(602,1182,l),
(525,1003,l),
(658,1002,l)
);
}
);
width = 766;
},
{
layerId = "96AFF54B-CDB9-40A8-9C60-2DEF28996F09";
shapes = (
{
closed = 1;
nodes = (
(67,0,l),
(175,177,l),
(485,177,l),
(500,0,l),
(594,0,l),
(529,740,l),
(415,740,l),
(-44,0,l)
);
},
{
closed = 1;
nodes = (
(449,622,l),
(478,265,l),
(230,265,l)
);
},
{
closed = 1;
nodes = (
(659,815,o),
(692,957,o),
(692,957,c),
(621,957,l),
(621,957,o),
(595,878,o),
(511,878,cs),
(427,878,o),
(443,957,o),
(443,957,c),
(372,957,l),
(372,957,o),
(356,815,o),
(509,815,cs)
);
},
{
closed = 1;
nodes = (
(699,1166,l),
(604,1166,l),
(510,986,l),
(587,985,l)
);
}
);
width = 696;
},
{
layerId = "6FA1D1A9-9908-45CC-BE31-7B82C0699C2A";
shapes = (
{
closed = 1;
nodes = (
(37,0,l),
(175,220,l),
(517,220,l),
(537,0,l),
(573,0,l),
(502,740,l),
(458,740,l),
(-5,0,l)
);
},
{
closed = 1;
nodes = (
(472,697,l),
(513,252,l),
(195,252,l)
);
},
{
closed = 1;
nodes = (
(632,823,o),
(664,933,o),
(664,933,c),
(633,933,l),
(633,933,o),
(603,852,o),
(508,852,cs),
(412,852,o),
(427,933,o),
(427,933,c),
(396,933,l),
(396,933,o),
(382,823,o),
(508,823,cs)
);
},
{
closed = 1;
nodes = (
(621,1108,l),
(585,1108,l),
(515,956,l),
(544,956,l)
);
}
);
width = 658;
}
);
leftKerningGroup = A;
rightKerningGroup = A;
unicode = 7854;
},
{
glyphname = Abrevedotbelow;
layers = (
{
layerId = "75B83567-2B70-4CA3-ABBB-A798085DCD06";
shapes = (
{
closed = 1;
nodes = (
(154,0,l),
(225,124,l),
(498,124,l),
(505,0,l),
(692,0,l),
(643,740,l),
(384,740,l),
(-59,0,l)
);
},
{
closed = 1;
nodes = (
(477,561,l),
(491,288,l),
(320,288,l)
);
},
{
closed = 1;
nodes = (
(320,-260,o),
(358,-220,o),
(358,-171,cs),
(358,-121,o),
(320,-82,o),
(269,-82,cs),
(216,-82,o),
(180,-121,o),
(180,-171,cs),
(180,-220,o),
(216,-260,o),
(269,-260,cs)
);
},
{
closed = 1;
nodes = (
(745,802,o),
(770,993,o),
(770,993,c),
(651,993,l),
(651,993,o),
(628,908,o),
(555,908,cs),
(481,908,o),
(501,993,o),
(501,993,c),
(382,993,l),
(382,993,o),
(345,802,o),
(545,802,cs)
);
}
);
width = 766;
},
{
layerId = "96AFF54B-CDB9-40A8-9C60-2DEF28996F09";
shapes = (
{
closed = 1;
nodes = (
(67,0,l),
(175,177,l),
(485,177,l),
(500,0,l),
(594,0,l),
(529,740,l),
(415,740,l),
(-44,0,l)
);
},
{
closed = 1;
nodes = (
(449,622,l),
(478,265,l),
(230,265,l)
);
},
{
closed = 1;
nodes = (
(273,-227,o),
(301,-198,o),
(301,-162,cs),
(301,-126,o),
(273,-97,o),
(236,-97,cs),
(198,-97,o),
(171,-126,o),
(171,-162,cs),
(171,-197,o),
(198,-227,o),
(236,-227,cs)
);
},
{
closed = 1;
nodes = (
(671,815,o),
(694,970,o),
(694,970,c),
(623,970,l),
(623,970,o),
(600,879,o),
(511,879,cs),
(425,879,o),
(445,970,o),
(445,970,c),
(374,970,l),
(374,970,o),
(349,815,o),
(511,815,cs)
);
}
);
width = 696;
},
{
layerId = "6FA1D1A9-9908-45CC-BE31-7B82C0699C2A";
shapes = (
{
closed = 1;
nodes = (
(37,0,l),
(175,220,l),
(517,220,l),
(537,0,l),
(573,0,l),
(502,740,l),
(458,740,l),
(-5,0,l)
);
},
{
closed = 1;
nodes = (
(472,697,l),
(513,252,l),
(195,252,l)
);
},
{
closed = 1;
nodes = (
(240,-192,o),
(257,-175,o),
(257,-154,cs),
(257,-134,o),
(240,-117,o),
(219,-117,cs),
(198,-117,o),
(182,-134,o),
(182,-154,cs),
(182,-175,o),
(198,-192,o),
(219,-192,cs)
);
},
{
closed = 1;
nodes = (
(642,823,o),
(669,958,o),
(669,958,c),
(636,958,l),
(636,958,o),
(609,853,o),
(508,853,cs),
(406,853,o),
(433,958,o),
(433,958,c),
(401,958,l),
(401,958,o),
(375,823,o),
(508,823,cs)
);
}
);
width = 658;
}
);
leftKerningGroup = A;
rightKerningGroup = A;
unicode = 7862;
},
{
glyphname = Abrevegrave;
layers = (
{
layerId = "75B83567-2B70-4CA3-ABBB-A798085DCD06";
shapes = (
{
closed = 1;
nodes = (
(154,0,l),
(225,124,l),
(498,124,l),
(505,0,l),
(692,0,l),
(643,740,l),
(384,740,l),
(-59,0,l)
);
},
{
closed = 1;
nodes = (
(477,561,l),
(491,288,l),
(320,288,l)
);
},
{
closed = 1;
nodes = (
(745,802,o),
(764,968,o),
(764,968,c),
(645,968,l),
(645,968,o),
(626,904,o),
(552,904,cs),
(481,904,o),
(495,968,o),
(495,968,c),
(376,968,l),
(376,968,o),
(357,802,o),
(551,802,cs)
);
},
{
closed = 1;
nodes = (
(630,1003,l),
(566,1182,l),
(402,1182,l),
(504,1002,l)
);
}
);
width = 766;
},
{
layerId = "96AFF54B-CDB9-40A8-9C60-2DEF28996F09";
shapes = (
{
closed = 1;
nodes = (
(67,0,l),
(175,177,l),
(485,177,l),
(500,0,l),
(594,0,l),
(529,740,l),
(415,740,l),
(-44,0,l)
);
},
{
closed = 1;
nodes = (
(449,622,l),
(478,265,l),
(230,265,l)
);
},
{
closed = 1;
nodes = (
(659,815,o),
(692,957,o),
(692,957,c),
(621,957,l),
(621,957,o),
(595,878,o),
(511,878,cs),
(427,878,o),
(443,957,o),
(443,957,c),
(372,957,l),
(372,957,o),
(357,815,o),
(510,815,cs)
);
},
{
closed = 1;
nodes = (
(564,986,l),
(503,1166,l),
(411,1166,l),
(489,985,l)
);
}
);
width = 696;
},
{
layerId = "6FA1D1A9-9908-45CC-BE31-7B82C0699C2A";
shapes = (
{
closed = 1;
nodes = (
(37,0,l),
(175,220,l),
(517,220,l),
(537,0,l),
(573,0,l),
(502,740,l),
(458,740,l),
(-5,0,l)
);
},
{
closed = 1;
nodes = (
(472,697,l),
(513,252,l),
(195,252,l)
);
},
{
closed = 1;
nodes = (
(632,823,o),
(664,933,o),
(664,933,c),
(633,933,l),
(633,933,o),
(603,852,o),
(508,852,cs),
(412,852,o),
(427,933,o),
(427,933,c),
(396,933,l),
(396,933,o),
(382,823,o),
(508,823,cs)
);
},
{
closed = 1;
nodes = (
(544,956,l),
(499,1108,l),
(464,1108,l),
(516,956,l)
);
}
);
width = 658;
}
);
leftKerningGroup = A;
rightKerningGroup = A;
unicode = 7856;
},
{
glyphname = Abrevehookabove;
layers = (
{
layerId = "75B83567-2B70-4CA3-ABBB-A798085DCD06";
shapes = (
{
closed = 1;
nodes = (
(154,0,l),
(225,124,l),
(498,124,l),
(505,0,l),
(692,0,l),
(643,740,l),
(384,740,l),
(-59,0,l)
);
},
{
closed = 1;
nodes = (
(477,561,l),
(491,288,l),
(320,288,l)
);
},
{
closed = 1;
nodes = (
(745,802,o),
(764,968,o),
(764,968,c),
(645,968,l),
(645,968,o),
(626,904,o),
(552,904,cs),
(481,904,o),
(495,968,o),
(495,968,c),
(376,968,l),
(376,968,o),
(357,802,o),
(551,802,cs)
);
},
{
closed = 1;
nodes = (
(622,988,l),
(642,1059,l),
(586,994,l),
(636,1018,ls),
(662,1031,o),
(753,1062,o),
(753,1139,cs),
(753,1191,o),
(708,1239,o),
(626,1239,cs),
(463,1239,o),
(469,1102,o),
(468,1116,c),
(569,1116,l),
(569,1116,o),
(572,1150,o),
(610,1150,cs),
(631,1150,o),
(641,1138,o),
(641,1124,cs),
(641,1107,o),
(626,1093,o),
(588,1076,cs),
(569,1068,ls),
(544,1057,o),
(534,1040,o),
(529,1021,cs),
(520,988,l)
);
}
);
width = 766;
},
{
layerId = "96AFF54B-CDB9-40A8-9C60-2DEF28996F09";
shapes = (
{
closed = 1;
nodes = (
(67,0,l),
(175,177,l),
(485,177,l),
(500,0,l),
(594,0,l),
(529,740,l),
(415,740,l),
(-44,0,l)
);
},
{
closed = 1;
nodes = (
(449,622,l),
(478,265,l),
(230,265,l)
);
},
{
closed = 1;
nodes = (
(659,815,o),
(692,957,o),
(692,957,c),
(621,957,l),
(621,957,o),
(595,878,o),
(511,878,cs),
(427,878,o),
(443,957,o),
(443,957,c),
(372,957,l),
(372,957,o),
(357,815,o),
(510,815,cs)
);
},
{
closed = 1;
nodes = (
(562,969,l),
(578,1028,l),
(533,986,l),
(558,995,l),
(619,1019,o),
(672,1046,o),
(672,1099,cs),
(672,1138,o),
(644,1183,o),
(573,1183,cs),
(463,1183,o),
(464,1077,o),
(464,1089,c),
(520,1089,l),
(520,1087,o),
(521,1132,o),
(571,1132,cs),
(599,1132,o),
(612,1116,o),
(612,1099,cs),
(612,1075,o),
(590,1058,o),
(552,1041,cs),
(537,1034,ls),
(524,1028,o),
(513,1018,o),
(509,1003,cs),
(500,969,l)
);
}
);
width = 696;
},
{
layerId = "6FA1D1A9-9908-45CC-BE31-7B82C0699C2A";
shapes = (
{
closed = 1;
nodes = (
(37,0,l),
(175,220,l),
(517,220,l),
(537,0,l),
(573,0,l),
(502,740,l),
(458,740,l),
(-5,0,l)
);
},
{
closed = 1;
nodes = (
(472,697,l),
(513,252,l),
(195,252,l)
);
},
{
closed = 1;
nodes = (
(632,823,o),
(664,933,o),
(664,933,c),
(633,933,l),
(633,933,o),
(603,852,o),
(508,852,cs),
(412,852,o),
(427,933,o),
(427,933,c),
(396,933,l),
(396,933,o),
(382,823,o),
(508,823,cs)
);
},
{
closed = 1;
nodes = (
(536,942,l),
(549,993,l),
(519,964,l),
(545,975,ls),
(605,1000,o),
(642,1026,o),
(642,1067,cs),
(642,1099,o),
(621,1133,o),
(569,1133,cs),
(479,1133,o),
(479,1044,o),
(479,1056,c),
(508,1056,l),
(508,1050,o),
(509,1105,o),
(566,1105,cs),
(598,1105,o),
(612,1086,o),
(612,1067,cs),
(612,1040,o),
(591,1020,o),
(549,1002,cs),
(534,996,ls),
(525,992,o),
(519,984,o),
(516,974,cs),
(508,942,l)
);
}
);
width = 658;
}
);
leftKerningGroup = A;
rightKerningGroup = A;
unicode = 7858;
},
{
glyphname = Abrevetilde;
layers = (
{
layerId = "75B83567-2B70-4CA3-ABBB-A798085DCD06";
shapes = (
{
closed = 1;
nodes = (
(154,0,l),
(225,124,l),
(498,124,l),
(505,0,l),
(692,0,l),
(643,740,l),
(384,740,l),
(-59,0,l)
);
},
{
closed = 1;
nodes = (
(477,561,l),
(491,288,l),
(320,288,l)
);
},
{
closed = 1;
nodes = (
(745,802,o),
(764,968,o),
(764,968,c),
(645,968,l),
(645,968,o),
(626,904,o),
(552,904,cs),
(481,904,o),
(495,968,o),
(495,968,c),
(376,968,l),
(376,968,o),
(357,802,o),
(551,802,cs)
);
},
{
closed = 1;
nodes = (
(764,1015,o),
(791,1093,o),
(812,1174,c),
(719,1174,l),
(709,1139,o),
(698,1121,o),
(679,1121,cs),
(645,1121,o),
(617,1180,o),
(544,1180,cs),
(453,1180,o),
(427,1103,o),
(406,1021,c),
(499,1021,l),
(508,1055,o),
(520,1074,o),
(539,1074,cs),
(573,1074,o),
(601,1015,o),
(674,1015,cs)
);
}
);
width = 766;
},
{
layerId = "96AFF54B-CDB9-40A8-9C60-2DEF28996F09";
shapes = (
{
closed = 1;
nodes = (
(67,0,l),
(175,177,l),
(485,177,l),
(500,0,l),
(594,0,l),
(529,740,l),
(415,740,l),
(-44,0,l)
);
},
{
closed = 1;
nodes = (
(449,622,l),
(478,265,l),
(230,265,l)
);
},
{
closed = 1;
nodes = (
(659,815,o),
(692,957,o),
(692,957,c),
(621,957,l),
(621,957,o),
(595,878,o),
(511,878,cs),
(427,878,o),
(443,957,o),
(443,957,c),
(372,957,l),
(372,957,o),
(356,815,o),
(509,815,cs)
);
},
{
closed = 1;
nodes = (
(680,1001,o),
(709,1051,o),
(728,1133,c),
(666,1133,l),
(657,1091,o),
(646,1068,o),
(624,1068,cs),
(587,1068,o),
(568,1138,o),
(497,1138,cs),
(438,1138,o),
(409,1089,o),
(390,1007,c),
(451,1007,l),
(460,1049,o),
(474,1073,o),
(495,1073,cs),
(533,1073,o),
(553,1001,o),
(621,1001,cs)
);
}
);
width = 696;
},
{
layerId = "6FA1D1A9-9908-45CC-BE31-7B82C0699C2A";
shapes = (
{
closed = 1;
nodes = (
(37,0,l),
(175,220,l),
(517,220,l),
(537,0,l),
(573,0,l),
(502,740,l),
(458,740,l),
(-5,0,l)
);
},
{
closed = 1;
nodes = (
(472,697,l),
(513,252,l),
(195,252,l)
);
},
{
closed = 1;
nodes = (
(632,823,o),
(664,933,o),
(664,933,c),
(633,933,l),
(633,933,o),
(603,852,o),
(508,852,cs),
(412,852,o),
(427,933,o),
(427,933,c),
(396,933,l),
(396,933,o),
(382,823,o),
(508,823,cs)
);
},
{
closed = 1;
nodes = (
(649,979,o),
(676,1026,o),
(690,1084,c),
(659,1084,l),
(649,1035,o),
(630,1008,o),
(606,1008,cs),
(565,1008,o),
(567,1089,o),
(504,1089,cs),
(457,1089,o),
(428,1046,o),
(415,984,c),
(446,984,l),
(455,1028,o),
(475,1060,o),
(501,1060,cs),
(542,1060,o),
(542,979,o),
(602,979,cs)
);
}
);
width = 658;
}
);
leftKerningGroup = A;
rightKerningGroup = A;
unicode = 7860;
},
{
glyphname = Acircumflex;
layers = (
{
layerId = "75B83567-2B70-4CA3-ABBB-A798085DCD06";
shapes = (
{
closed = 1;
nodes = (
(154,0,l),
(225,124,l),
(498,124,l),
(505,0,l),
(692,0,l),
(643,740,l),
(384,740,l),
(-59,0,l)
);
},
{
closed = 1;
nodes = (
(477,561,l),
(491,288,l),
(320,288,l)
);
},
{
closed = 1;
nodes = (
(460,799,l),
(550,885,l),
(595,799,l),
(726,799,l),
(634,958,l),
(487,958,l),
(309,799,l)
);
}
);
width = 766;
},
{
layerId = "96AFF54B-CDB9-40A8-9C60-2DEF28996F09";
shapes = (
{
closed = 1;
nodes = (
(67,0,l),
(175,177,l),
(485,177,l),
(500,0,l),
(594,0,l),
(529,740,l),
(415,740,l),
(-44,0,l)
);
},
{
closed = 1;
nodes = (
(449,622,l),
(478,265,l),
(230,265,l)
);
},
{
closed = 1;
nodes = (
(414,816,l),
(513,911,l),
(565,816,l),
(644,816,l),
(562,963,l),
(481,963,l),
(321,816,l)
);
}
);
width = 696;
},
{
layerId = "6FA1D1A9-9908-45CC-BE31-7B82C0699C2A";
shapes = (
{
closed = 1;
nodes = (
(37,0,l),
(175,220,l),
(517,220,l),
(537,0,l),
(573,0,l),
(502,740,l),
(458,740,l),
(-5,0,l)
);
},
{
closed = 1;
nodes = (
(472,697,l),
(513,252,l),
(195,252,l)
);
},
{
closed = 1;
nodes = (
(416,818,l),
(534,931,l),
(594,818,l),
(630,818,l),
(555,956,l),
(518,956,l),
(371,818,l)
);
}
);
width = 658;
}
);
leftKerningGroup = A;
rightKerningGroup = A;
unicode = 194;
},
{
glyphname = Acircumflexacute;
layers = (
{
layerId = "75B83567-2B70-4CA3-ABBB-A798085DCD06";
shapes = (
{
closed = 1;
nodes = (
(154,0,l),
(225,124,l),
(498,124,l),
(505,0,l),
(692,0,l),
(643,740,l),
(384,740,l),
(-59,0,l)
);
},
{
closed = 1;
nodes = (
(477,561,l),
(491,288,l),
(320,288,l)
);
},
{
closed = 1;
nodes = (
(461,799,l),
(550,885,l),
(596,799,l),
(727,799,l),
(634,958,l),
(487,958,l),
(310,799,l)
);
},
{
closed = 1;
nodes = (
(949,1109,l),
(779,1109,l),
(702,930,l),
(835,929,l)
);
}
);
width = 766;
},
{
layerId = "96AFF54B-CDB9-40A8-9C60-2DEF28996F09";
shapes = (
{
closed = 1;
nodes = (
(67,0,l),
(175,177,l),
(485,177,l),
(500,0,l),
(594,0,l),
(529,740,l),
(415,740,l),
(-44,0,l)
);
},
{
closed = 1;
nodes = (
(449,622,l),
(478,265,l),
(230,265,l)
);
},
{
closed = 1;
nodes = (
(427,816,l),
(526,911,l),
(578,816,l),
(656,816,l),
(574,963,l),
(493,963,l),
(333,816,l)
);
},
{
closed = 1;
nodes = (
(840,1125,l),
(746,1125,l),
(651,945,l),
(729,944,l)
);
}
);
width = 696;
},
{
layerId = "6FA1D1A9-9908-45CC-BE31-7B82C0699C2A";
shapes = (
{
closed = 1;
nodes = (
(37,0,l),
(175,220,l),
(517,220,l),
(537,0,l),
(573,0,l),
(502,740,l),
(458,740,l),
(-5,0,l)
);
},
{
closed = 1;
nodes = (
(472,697,l),
(513,252,l),
(195,252,l)
);
},
{
closed = 1;
nodes = (
(416,818,l),
(534,931,l),
(593,818,l),
(629,818,l),
(554,956,l),
(517,956,l),
(370,818,l)
);
},
{
closed = 1;
nodes = (
(749,1089,l),
(713,1089,l),
(643,937,l),
(672,937,l)
);
}
);
width = 658;
}
);
leftKerningGroup = A;
rightKerningGroup = A;
unicode = 7844;
},
{
glyphname = Acircumflexdotbelow;
layers = (
{
layerId = "75B83567-2B70-4CA3-ABBB-A798085DCD06";
shapes = (
{
closed = 1;
nodes = (
(154,0,l),
(225,124,l),
(498,124,l),
(505,0,l),
(692,0,l),
(643,740,l),
(384,740,l),
(-59,0,l)
);
},
{
closed = 1;
nodes = (
(477,561,l),
(491,288,l),
(320,288,l)
);
},
{
closed = 1;
nodes = (
(320,-260,o),
(358,-220,o),
(358,-171,cs),
(358,-121,o),
(320,-82,o),
(269,-82,cs),
(216,-82,o),
(180,-121,o),
(180,-171,cs),
(180,-220,o),
(216,-260,o),
(269,-260,cs)
);
},
{
closed = 1;
nodes = (
(460,799,l),
(550,885,l),
(595,799,l),
(726,799,l),
(634,958,l),
(487,958,l),
(309,799,l)
);
}
);
width = 766;
},
{
layerId = "96AFF54B-CDB9-40A8-9C60-2DEF28996F09";
shapes = (
{
closed = 1;
nodes = (
(67,0,l),
(175,177,l),
(485,177,l),
(500,0,l),
(594,0,l),
(529,740,l),
(415,740,l),
(-44,0,l)
);
},
{
closed = 1;
nodes = (
(449,622,l),
(478,265,l),
(230,265,l)
);
},
{
closed = 1;
nodes = (
(273,-227,o),
(301,-198,o),
(301,-162,cs),
(301,-126,o),
(273,-97,o),
(236,-97,cs),
(198,-97,o),
(171,-126,o),
(171,-162,cs),
(171,-197,o),
(198,-227,o),
(236,-227,cs)
);
},
{
closed = 1;
nodes = (
(414,816,l),
(513,911,l),
(565,816,l),
(644,816,l),
(562,963,l),
(481,963,l),
(321,816,l)
);
}
);
width = 696;
},
{
layerId = "6FA1D1A9-9908-45CC-BE31-7B82C0699C2A";
shapes = (
{
closed = 1;
nodes = (
(37,0,l),
(175,220,l),
(517,220,l),
(537,0,l),
(573,0,l),
(502,740,l),
(458,740,l),
(-5,0,l)
);
},
{
closed = 1;
nodes = (
(472,697,l),
(513,252,l),
(195,252,l)
);
},
{
closed = 1;
nodes = (
(240,-192,o),
(257,-175,o),
(257,-154,cs),
(257,-134,o),
(240,-117,o),
(219,-117,cs),
(198,-117,o),
(182,-134,o),
(182,-154,cs),
(182,-175,o),
(198,-192,o),
(219,-192,cs)
);
},
{
closed = 1;
nodes = (
(416,818,l),
(534,931,l),
(594,818,l),
(630,818,l),
(555,956,l),
(518,956,l),
(371,818,l)
);
}
);
width = 658;
}
);
leftKerningGroup = A;
rightKerningGroup = A;
unicode = 7852;
},
{
glyphname = Acircumflexgrave;
layers = (
{
layerId = "75B83567-2B70-4CA3-ABBB-A798085DCD06";
shapes = (
{
closed = 1;
nodes = (
(154,0,l),
(225,124,l),
(498,124,l),
(505,0,l),
(692,0,l),
(643,740,l),
(384,740,l),
(-59,0,l)
);
},
{
closed = 1;
nodes = (
(477,561,l),
(491,288,l),
(320,288,l)
);
},
{
closed = 1;
nodes = (
(460,799,l),
(550,885,l),
(595,799,l),
(726,799,l),
(634,958,l),
(487,958,l),
(309,799,l)
);
},
{
closed = 1;
nodes = (
(832,930,l),
(767,1109,l),
(604,1109,l),
(705,929,l)
);
}
);
width = 766;
},
{
layerId = "96AFF54B-CDB9-40A8-9C60-2DEF28996F09";
shapes = (
{
closed = 1;
nodes = (
(67,0,l),
(175,177,l),
(485,177,l),
(500,0,l),
(594,0,l),
(529,740,l),
(415,740,l),
(-44,0,l)
);
},
{
closed = 1;
nodes = (
(449,622,l),
(478,265,l),
(230,265,l)
);
},
{
closed = 1;
nodes = (
(427,816,l),
(526,911,l),
(578,816,l),
(656,816,l),
(574,963,l),
(493,963,l),
(333,816,l)
);
},
{
closed = 1;
nodes = (
(727,945,l),
(666,1125,l),
(575,1125,l),
(653,944,l)
);
}
);
width = 696;
},
{
layerId = "6FA1D1A9-9908-45CC-BE31-7B82C0699C2A";
shapes = (
{
closed = 1;
nodes = (
(37,0,l),
(175,220,l),
(517,220,l),
(537,0,l),
(573,0,l),
(502,740,l),
(458,740,l),
(-5,0,l)
);
},
{
closed = 1;
nodes = (
(472,697,l),
(513,252,l),
(195,252,l)
);
},
{
closed = 1;
nodes = (
(416,818,l),
(534,931,l),
(594,818,l),
(630,818,l),
(555,956,l),
(518,956,l),
(371,818,l)
);
},
{
closed = 1;
nodes = (
(671,937,l),
(626,1089,l),
(591,1089,l),
(643,937,l)
);
}
);
width = 658;
}
);
leftKerningGroup = A;
rightKerningGroup = A;
unicode = 7846;
},
{
glyphname = Acircumflexhookabove;
layers = (
{
layerId = "75B83567-2B70-4CA3-ABBB-A798085DCD06";
shapes = (
{
closed = 1;
nodes = (
(154,0,l),
(225,124,l),
(498,124,l),
(505,0,l),
(692,0,l),
(643,740,l),
(384,740,l),
(-59,0,l)
);
},
{
closed = 1;
nodes = (
(477,561,l),
(491,288,l),
(320,288,l)
);
},
{
closed = 1;
nodes = (
(462,799,l),
(551,885,l),
(597,799,l),
(728,799,l),
(635,958,l),
(488,958,l),
(311,799,l)
);
},
{
closed = 1;
nodes = (
(794,907,l),
(814,978,l),
(758,913,l),
(807,937,ls),
(834,950,o),
(925,981,o),
(925,1058,cs),
(925,1110,o),
(879,1158,o),
(798,1158,cs),
(635,1158,o),
(640,1021,o),
(640,1035,c),
(741,1035,l),
(741,1035,o),
(743,1069,o),
(782,1069,cs),
(802,1069,o),
(813,1057,o),
(813,1043,cs),
(813,1026,o),
(798,1012,o),
(759,995,cs),
(741,987,ls),
(716,976,o),
(705,959,o),
(700,940,cs),
(692,907,l)
);
}
);
width = 766;
},
{
layerId = "96AFF54B-CDB9-40A8-9C60-2DEF28996F09";
shapes = (
{
closed = 1;
nodes = (
(67,0,l),
(175,177,l),
(485,177,l),
(500,0,l),
(594,0,l),
(529,740,l),
(415,740,l),
(-44,0,l)
);
},
{
closed = 1;
nodes = (
(449,622,l),
(478,265,l),
(230,265,l)
);
},
{
closed = 1;
nodes = (
(414,816,l),
(513,911,l),
(565,816,l),
(644,816,l),
(562,963,l),
(481,963,l),
(321,816,l)
);
},
{
closed = 1;
nodes = (
(690,928,l),
(707,987,l),
(662,945,l),
(687,954,l),
(748,978,o),
(801,1005,o),
(801,1058,cs),
(801,1097,o),
(773,1142,o),
(702,1142,cs),
(592,1142,o),
(593,1036,o),
(593,1048,c),
(649,1048,l),
(649,1046,o),
(650,1091,o),
(700,1091,cs),
(728,1091,o),
(740,1075,o),
(740,1058,cs),
(740,1034,o),
(719,1017,o),
(681,1000,cs),
(665,993,l),
(653,987,o),
(642,977,o),
(638,962,cs),
(629,928,l)
);
}
);
width = 696;
},
{
layerId = "6FA1D1A9-9908-45CC-BE31-7B82C0699C2A";
shapes = (
{
closed = 1;
nodes = (
(37,0,l),
(175,220,l),
(517,220,l),
(537,0,l),
(573,0,l),
(502,740,l),
(458,740,l),
(-5,0,l)
);
},
{
closed = 1;
nodes = (
(472,697,l),
(513,252,l),
(195,252,l)
);
},
{
closed = 1;
nodes = (
(416,818,l),
(534,931,l),
(594,818,l),
(630,818,l),
(555,956,l),
(518,956,l),
(371,818,l)
);
},
{
closed = 1;
nodes = (
(664,923,l),
(678,974,l),
(647,945,l),
(674,956,ls),
(734,981,o),
(770,1007,o),
(770,1048,cs),
(770,1080,o),
(749,1114,o),
(697,1114,cs),
(607,1114,o),
(608,1025,o),
(608,1037,c),
(637,1037,l),
(637,1031,o),
(638,1086,o),
(695,1086,cs),
(726,1086,o),
(740,1067,o),
(740,1048,cs),
(740,1021,o),
(719,1001,o),
(677,983,cs),
(663,977,ls),
(654,973,o),
(647,965,o),
(645,955,c),
(636,923,l)
);
}
);
width = 658;
}
);
leftKerningGroup = A;
rightKerningGroup = A;
unicode = 7848;
},
{
glyphname = Acircumflextilde;
layers = (
{
layerId = "75B83567-2B70-4CA3-ABBB-A798085DCD06";
shapes = (
{
closed = 1;
nodes = (
(154,0,l),
(225,124,l),
(498,124,l),
(505,0,l),
(692,0,l),
(643,740,l),
(384,740,l),
(-59,0,l)
);
},
{
closed = 1;
nodes = (
(477,561,l),
(491,288,l),
(320,288,l)
);
},
{
closed = 1;
nodes = (
(461,799,l),
(550,885,l),
(596,799,l),
(727,799,l),
(634,958,l),
(487,958,l),
(310,799,l)
);
},
{
closed = 1;
nodes = (
(746,992,o),
(773,1070,o),
(794,1151,c),
(701,1151,l),
(691,1116,o),
(680,1098,o),
(661,1098,cs),
(627,1098,o),
(599,1157,o),
(526,1157,cs),
(435,1157,o),
(409,1080,o),
(388,998,c),
(481,998,l),
(490,1032,o),
(502,1051,o),
(521,1051,cs),
(556,1051,o),
(583,992,o),
(656,992,cs)
);
}
);
width = 766;
},
{
layerId = "96AFF54B-CDB9-40A8-9C60-2DEF28996F09";
shapes = (
{
closed = 1;
nodes = (
(67,0,l),
(175,177,l),
(485,177,l),
(500,0,l),
(594,0,l),
(529,740,l),
(415,740,l),
(-44,0,l)
);
},
{
closed = 1;
nodes = (
(449,622,l),
(478,265,l),
(230,265,l)
);
},
{
closed = 1;
nodes = (
(415,816,l),
(513,911,l),
(566,816,l),
(644,816,l),
(562,963,l),
(481,963,l),
(321,816,l)
);
},
{
closed = 1;
nodes = (
(667,1001,o),
(696,1051,o),
(715,1133,c),
(654,1133,l),
(645,1091,o),
(634,1068,o),
(611,1068,cs),
(574,1068,o),
(555,1138,o),
(485,1138,cs),
(425,1138,o),
(396,1089,o),
(377,1007,c),
(439,1007,l),
(448,1049,o),
(462,1073,o),
(482,1073,cs),
(520,1073,o),
(540,1001,o),
(609,1001,cs)
);
}
);
width = 696;
},
{
layerId = "6FA1D1A9-9908-45CC-BE31-7B82C0699C2A";
shapes = (
{
closed = 1;
nodes = (
(37,0,l),
(175,220,l),
(517,220,l),
(537,0,l),
(573,0,l),
(502,740,l),
(458,740,l),
(-5,0,l)
);
},
{
closed = 1;
nodes = (
(472,697,l),
(513,252,l),
(195,252,l)
);
},
{
closed = 1;
nodes = (
(418,818,l),
(536,931,l),
(595,818,l),
(631,818,l),
(556,956,l),
(519,956,l),
(372,818,l)
);
},
{
closed = 1;
nodes = (
(652,996,o),
(680,1043,o),
(693,1101,c),
(662,1101,l),
(652,1052,o),
(633,1025,o),
(610,1025,cs),
(568,1025,o),
(571,1106,o),
(508,1106,cs),
(461,1106,o),
(432,1063,o),
(418,1001,c),
(449,1001,l),
(458,1045,o),
(478,1077,o),
(504,1077,cs),
(546,1077,o),
(546,996,o),
(606,996,cs)
);
}
);
width = 658;
}
);
leftKerningGroup = A;
rightKerningGroup = A;
unicode = 7850;
},
{
glyphname = Adieresis;
layers = (
{
layerId = "75B83567-2B70-4CA3-ABBB-A798085DCD06";
shapes = (
{
closed = 1;
nodes = (
(154,0,l),
(225,124,l),
(498,124,l),
(505,0,l),
(692,0,l),
(643,740,l),
(384,740,l),
(-59,0,l)
);
},
{
closed = 1;
nodes = (
(477,561,l),
(491,288,l),
(320,288,l)
);
},
{
closed = 1;
nodes = (
(733,788,o),
(776,832,o),
(776,885,cs),
(776,940,o),
(733,983,o),
(674,983,cs),
(614,983,o),
(572,940,o),
(572,885,cs),
(572,832,o),
(614,788,o),
(674,788,cs)
);
},
{
closed = 1;
nodes = (
(483,788,o),
(526,832,o),
(526,885,cs),
(526,940,o),
(483,983,o),
(424,983,cs),
(364,983,o),
(322,940,o),
(322,885,cs),
(322,832,o),
(364,788,o),
(424,788,cs)
);
}
);
width = 766;
},
{
layerId = "96AFF54B-CDB9-40A8-9C60-2DEF28996F09";
shapes = (
{
closed = 1;
nodes = (
(67,0,l),
(175,177,l),
(485,177,l),
(500,0,l),
(594,0,l),
(529,740,l),
(415,740,l),
(-44,0,l)
);
},
{
closed = 1;
nodes = (
(449,622,l),
(478,265,l),
(230,265,l)
);
},
{
closed = 1;
nodes = (
(642,821,o),
(669,848,o),
(669,882,cs),
(669,916,o),
(642,944,o),
(607,944,cs),
(571,944,o),
(545,916,o),
(545,882,cs),
(545,849,o),
(571,821,o),
(607,821,cs)
);
},
{
closed = 1;
nodes = (
(452,821,o),
(479,848,o),
(479,882,cs),
(479,916,o),
(452,944,o),
(417,944,cs),
(381,944,o),
(355,916,o),
(355,882,cs),
(355,849,o),
(381,821,o),
(417,821,cs)
);
}
);
width = 696;
},
{
layerId = "6FA1D1A9-9908-45CC-BE31-7B82C0699C2A";
shapes = (
{
closed = 1;
nodes = (
(37,0,l),
(175,220,l),
(517,220,l),
(537,0,l),
(573,0,l),
(502,740,l),
(458,740,l),
(-5,0,l)
);
},
{
closed = 1;
nodes = (
(472,697,l),
(513,252,l),
(195,252,l)
);
},
{
closed = 1;
nodes = (
(604,840,o),
(620,856,o),
(620,876,cs),
(620,895,o),
(604,912,o),
(584,912,cs),
(564,912,o),
(549,895,o),
(549,876,cs),
(549,856,o),
(564,840,o),
(584,840,cs)
);
},
{
closed = 1;
nodes = (
(465,840,o),
(481,856,o),
(481,876,cs),
(481,895,o),
(465,912,o),
(445,912,cs),
(425,912,o),
(410,895,o),
(410,876,cs),
(410,856,o),
(425,840,o),
(445,840,cs)
);
}
);
width = 658;
}
);
leftKerningGroup = A;
rightKerningGroup = A;
unicode = 196;
},
{
glyphname = Adotbelow;
layers = (
{
layerId = "75B83567-2B70-4CA3-ABBB-A798085DCD06";
shapes = (
{
closed = 1;
nodes = (
(154,0,l),
(225,124,l),
(498,124,l),
(505,0,l),
(692,0,l),
(643,740,l),
(384,740,l),
(-59,0,l)
);
},
{
closed = 1;
nodes = (
(477,561,l),
(491,288,l),
(320,288,l)
);
},
{
closed = 1;
nodes = (
(320,-260,o),
(358,-220,o),
(358,-171,cs),
(358,-121,o),
(320,-82,o),
(269,-82,cs),
(216,-82,o),
(180,-121,o),
(180,-171,cs),
(180,-220,o),
(216,-260,o),
(269,-260,cs)
);
}
);
width = 766;
},
{
layerId = "96AFF54B-CDB9-40A8-9C60-2DEF28996F09";
shapes = (
{
closed = 1;
nodes = (
(67,0,l),
(175,177,l),
(485,177,l),
(500,0,l),
(594,0,l),
(529,740,l),
(415,740,l),
(-44,0,l)
);
},
{
closed = 1;
nodes = (
(449,622,l),
(478,265,l),
(230,265,l)
);
},
{
closed = 1;
nodes = (
(273,-227,o),
(301,-198,o),
(301,-162,cs),
(301,-126,o),
(273,-97,o),
(236,-97,cs),
(198,-97,o),
(171,-126,o),
(171,-162,cs),
(171,-197,o),
(198,-227,o),
(236,-227,cs)
);
}
);
width = 696;
},
{
layerId = "6FA1D1A9-9908-45CC-BE31-7B82C0699C2A";
shapes = (
{
closed = 1;
nodes = (
(37,0,l),
(175,220,l),
(517,220,l),
(537,0,l),
(573,0,l),
(502,740,l),
(458,740,l),
(-5,0,l)
);
},
{
closed = 1;
nodes = (
(472,697,l),
(513,252,l),
(195,252,l)
);
},
{
closed = 1;
nodes = (
(240,-192,o),
(257,-175,o),
(257,-154,cs),
(257,-134,o),
(240,-117,o),
(219,-117,cs),
(198,-117,o),
(182,-134,o),
(182,-154,cs),
(182,-175,o),
(198,-192,o),
(219,-192,cs)
);
}
);
width = 658;
}
);
leftKerningGroup = A;
rightKerningGroup = A;
unicode = 7840;
},
{
glyphname = Agrave;
layers = (
{
layerId = "75B83567-2B70-4CA3-ABBB-A798085DCD06";
shapes = (
{
closed = 1;
nodes = (
(154,0,l),
(225,124,l),
(498,124,l),
(505,0,l),
(692,0,l),
(643,740,l),
(384,740,l),
(-59,0,l)
);
},
{
closed = 1;
nodes = (
(477,561,l),
(491,288,l),
(320,288,l)
);
},
{
closed = 1;
nodes = (
(579,810,l),
(515,989,l),
(351,989,l),
(452,809,l)
);
}
);
width = 766;
},
{
layerId = "96AFF54B-CDB9-40A8-9C60-2DEF28996F09";
shapes = (
{
closed = 1;
nodes = (
(67,0,l),
(175,177,l),
(485,177,l),
(500,0,l),
(594,0,l),
(529,740,l),
(415,740,l),
(-44,0,l)
);
},
{
closed = 1;
nodes = (
(449,622,l),
(478,265,l),
(230,265,l)
);
},
{
closed = 1;
nodes = (
(519,821,l),
(458,1001,l),
(367,1001,l),
(445,820,l)
);
}
);
width = 696;
},
{
layerId = "6FA1D1A9-9908-45CC-BE31-7B82C0699C2A";
shapes = (
{
closed = 1;
nodes = (
(37,0,l),
(175,220,l),
(517,220,l),
(537,0,l),
(573,0,l),
(502,740,l),
(458,740,l),
(-5,0,l)
);
},
{
closed = 1;
nodes = (
(472,697,l),
(513,252,l),
(195,252,l)
);
},
{
closed = 1;
nodes = (
(510,828,l),
(465,980,l),
(430,980,l),
(482,828,l)
);
}
);
width = 658;
}
);
leftKerningGroup = A;
rightKerningGroup = A;
unicode = 192;
},
{
glyphname = Ahookabove;
layers = (
{
layerId = "75B83567-2B70-4CA3-ABBB-A798085DCD06";
shapes = (
{
closed = 1;
nodes = (
(154,0,l),
(225,124,l),
(498,124,l),
(505,0,l),
(692,0,l),
(643,740,l),
(384,740,l),
(-59,0,l)
);
},
{
closed = 1;
nodes = (
(477,561,l),
(491,288,l),
(320,288,l)
);
},
{
closed = 1;
nodes = (
(571,795,l),
(591,866,l),
(535,801,l),
(584,825,ls),
(611,838,o),
(702,869,o),
(702,946,cs),
(702,998,o),
(656,1046,o),
(575,1046,cs),
(412,1046,o),
(417,909,o),
(417,923,c),
(518,923,l),
(518,923,o),
(520,957,o),
(559,957,cs),
(579,957,o),
(590,945,o),
(590,931,cs),
(590,914,o),
(575,900,o),
(536,883,cs),
(518,875,ls),
(493,864,o),
(482,847,o),
(477,828,cs),
(469,795,l)
);
}
);
width = 766;
},
{
layerId = "96AFF54B-CDB9-40A8-9C60-2DEF28996F09";
shapes = (
{
closed = 1;
nodes = (
(67,0,l),
(175,177,l),
(485,177,l),
(500,0,l),
(594,0,l),
(529,740,l),
(415,740,l),
(-44,0,l)
);
},
{
closed = 1;
nodes = (
(449,622,l),
(478,265,l),
(230,265,l)
);
},
{
closed = 1;
nodes = (
(517,804,l),
(534,863,l),
(489,821,l),
(514,830,l),
(575,854,o),
(628,881,o),
(628,934,cs),
(628,973,o),
(600,1018,o),
(529,1018,cs),
(419,1018,o),
(420,912,o),
(420,924,c),
(476,924,l),
(476,922,o),
(477,967,o),
(527,967,cs),
(555,967,o),
(567,951,o),
(567,934,cs),
(567,910,o),
(546,893,o),
(508,876,cs),
(492,869,l),
(480,863,o),
(469,853,o),
(465,838,cs),
(456,804,l)
);
}
);
width = 696;
},
{
layerId = "6FA1D1A9-9908-45CC-BE31-7B82C0699C2A";
shapes = (
{
closed = 1;
nodes = (
(37,0,l),
(175,220,l),
(517,220,l),
(537,0,l),
(573,0,l),
(502,740,l),
(458,740,l),
(-5,0,l)
);
},
{
closed = 1;
nodes = (
(472,697,l),
(513,252,l),
(195,252,l)
);
},
{
closed = 1;
nodes = (
(502,814,l),
(516,865,l),
(485,836,l),
(512,847,ls),
(572,872,o),
(608,898,o),
(608,939,cs),
(608,971,o),
(587,1005,o),
(535,1005,cs),
(445,1005,o),
(446,916,o),
(446,928,c),
(475,928,l),
(475,922,o),
(476,977,o),
(533,977,cs),
(564,977,o),
(578,958,o),
(578,939,cs),
(578,912,o),
(557,892,o),
(515,874,cs),
(501,868,ls),
(492,864,o),
(485,856,o),
(483,846,c),
(474,814,l)
);
}
);
width = 658;
}
);
leftKerningGroup = A;
rightKerningGroup = A;
unicode = 7842;
},
{
glyphname = Amacron;
layers = (
{
layerId = "75B83567-2B70-4CA3-ABBB-A798085DCD06";
shapes = (
{
closed = 1;
nodes = (
(154,0,l),
(225,124,l),
(498,124,l),
(505,0,l),
(692,0,l),
(643,740,l),
(384,740,l),
(-59,0,l)
);
},
{
closed = 1;
nodes = (
(477,561,l),
(491,288,l),
(320,288,l)
);
},
{
closed = 1;
nodes = (
(700,824,l),
(727,926,l),
(387,926,l),
(360,824,l)
);
}
);
width = 766;
},
{
layerId = "96AFF54B-CDB9-40A8-9C60-2DEF28996F09";
shapes = (
{
closed = 1;
nodes = (
(67,0,l),
(175,177,l),
(485,177,l),
(500,0,l),
(594,0,l),
(529,740,l),
(415,740,l),
(-44,0,l)
);
},
{
closed = 1;
nodes = (
(449,622,l),
(478,265,l),
(230,265,l)
);
},
{
closed = 1;
nodes = (
(655,855,l),
(675,927,l),
(371,927,l),
(351,855,l)
);
}
);
width = 696;
},
{
layerId = "6FA1D1A9-9908-45CC-BE31-7B82C0699C2A";
shapes = (
{
closed = 1;
nodes = (
(37,0,l),
(175,220,l),
(517,220,l),
(537,0,l),
(573,0,l),
(502,740,l),
(458,740,l),
(-5,0,l)
);
},
{
closed = 1;
nodes = (
(472,697,l),
(513,252,l),
(195,252,l)
);
},
{
closed = 1;
nodes = (
(646,842,l),
(653,872,l),
(373,872,l),
(366,842,l)
);
}
);
width = 658;
}
);
leftKerningGroup = A;
rightKerningGroup = A;
unicode = 256;
},
{
glyphname = Aogonek;
layers = (
{
layerId = "75B83567-2B70-4CA3-ABBB-A798085DCD06";
shapes = (
{
closed = 1;
nodes = (
(154,0,l),
(225,124,l),
(498,124,l),
(505,0,l),
(692,0,l),
(643,740,l),
(384,740,l),
(-59,0,l)
);
},
{
closed = 1;
nodes = (
(477,561,l),
(491,288,l),
(320,288,l)
);
},
{
closed = 1;
nodes = (
(655,-194,o),
(677,-189,o),
(677,-189,c),
(704,-87,l),
(704,-87,o),
(686,-90,o),
(672,-90,cs),
(640,-90,o),
(627,-78,o),
(627,-61,cs),
(627,-25,o),
(692,0,o),
(692,0,c),
(641,29,l),
(641,29,o),
(486,2,o),
(486,-102,cs),
(486,-157,o),
(529,-194,o),
(621,-194,cs)
);
}
);
width = 766;
},
{
layerId = "96AFF54B-CDB9-40A8-9C60-2DEF28996F09";
shapes = (
{
closed = 1;
nodes = (
(67,0,l),
(175,177,l),
(485,177,l),
(500,0,l),
(594,0,l),
(529,740,l),
(415,740,l),
(-44,0,l)
);
},
{
closed = 1;
nodes = (
(449,622,l),
(478,265,l),
(230,265,l)
);
},
{
closed = 1;
nodes = (
(501,-166,o),
(519,-160,o),
(519,-160,c),
(534,-104,l),
(534,-104,o),
(515,-109,o),
(497,-109,cs),
(464,-109,o),
(448,-96,o),
(448,-74,cs),
(448,-26,o),
(522,0,o),
(522,0,c),
(492,19,l),
(492,19,o),
(377,-10,o),
(377,-93,cs),
(377,-138,o),
(412,-166,o),
(473,-166,cs)
);
}
);
width = 696;
},
{
layerId = "6FA1D1A9-9908-45CC-BE31-7B82C0699C2A";
shapes = (
{
closed = 1;
nodes = (
(37,0,l),
(175,220,l),
(517,220,l),
(537,0,l),
(573,0,l),
(502,740,l),
(458,740,l),
(-5,0,l)
);
},
{
closed = 1;
nodes = (
(472,697,l),
(513,252,l),
(195,252,l)
);
},
{
closed = 1;
nodes = (
(562,-149,o),
(578,-143,o),
(578,-143,c),
(586,-115,l),
(586,-115,o),
(564,-120,o),
(544,-120,cs),
(511,-120,o),
(494,-108,o),
(494,-82,cs),
(494,-27,o),
(573,0,o),
(573,0,c),
(555,12,l),
(555,12,o),
(461,-16,o),
(461,-86,cs),
(461,-127,o),
(492,-149,o),
(538,-149,cs)
);
}
);
width = 658;
}
);
leftKerningGroup = A;
rightKerningGroup = A;
unicode = 260;
},
{
glyphname = Aring;
layers = (
{
layerId = "75B83567-2B70-4CA3-ABBB-A798085DCD06";
shapes = (
{
closed = 1;
nodes = (
(154,0,l),
(225,124,l),
(498,124,l),
(505,0,l),
(692,0,l),
(643,740,l),
(384,740,l),
(-59,0,l)
);
},
{
closed = 1;
nodes = (
(477,561,l),
(491,288,l),
(320,288,l)
);
},
{
closed = 1;
nodes = (
(638,788,o),
(701,851,o),
(701,929,cs),
(701,1006,o),
(638,1069,o),
(560,1069,cs),
(482,1069,o),
(419,1006,o),
(419,929,cs),
(419,851,o),
(482,788,o),
(560,788,cs)
);
},
{
closed = 1;
nodes = (
(532,878,o),
(509,900,o),
(509,929,cs),
(509,957,o),
(532,979,o),
(560,979,cs),
(588,979,o),
(611,957,o),
(611,929,cs),
(611,900,o),
(588,878,o),
(560,878,cs)
);
}
);
width = 766;
},
{
layerId = "96AFF54B-CDB9-40A8-9C60-2DEF28996F09";
shapes = (
{
closed = 1;
nodes = (
(67,0,l),
(175,177,l),
(485,177,l),
(500,0,l),
(594,0,l),
(529,740,l),
(415,740,l),
(-44,0,l)
);
},
{
closed = 1;
nodes = (
(449,622,l),
(478,265,l),
(230,265,l)
);
},
{
closed = 1;
nodes = (
(544,812,o),
(602,869,o),
(602,940,cs),
(602,1011,o),
(544,1068,o),
(474,1068,cs),
(403,1068,o),
(345,1011,o),
(345,940,cs),
(345,869,o),
(403,812,o),
(474,812,cs)
);
},
{
closed = 1;
nodes = (
(440,880,o),
(413,907,o),
(413,940,cs),
(413,973,o),
(440,1000,o),
(474,1000,cs),
(507,1000,o),
(534,973,o),
(534,940,cs),
(534,907,o),
(507,880,o),
(474,880,cs)
);
}
);
width = 696;
},
{
layerId = "6FA1D1A9-9908-45CC-BE31-7B82C0699C2A";
shapes = (
{
closed = 1;
nodes = (
(37,0,l),
(175,220,l),
(517,220,l),
(537,0,l),
(573,0,l),
(502,740,l),
(458,740,l),
(-5,0,l)
);
},
{
closed = 1;
nodes = (
(472,697,l),
(513,252,l),
(195,252,l)
);
},
{
closed = 1;
nodes = (
(578,824,o),
(619,866,o),
(619,917,cs),
(619,969,o),
(578,1011,o),
(526,1011,cs),
(474,1011,o),
(433,969,o),
(433,917,cs),
(433,866,o),
(474,824,o),
(526,824,cs)
);
},
{
closed = 1;
nodes = (
(491,854,o),
(463,882,o),
(463,917,cs),
(463,952,o),
(491,981,o),
(526,981,cs),
(561,981,o),
(589,952,o),
(589,917,cs),
(589,882,o),
(561,854,o),
(526,854,cs)
);
}
);
width = 658;
}
);
leftKerningGroup = A;
rightKerningGroup = A;
unicode = 197;
},
{
glyphname = Atilde;
layers = (
{
layerId = "75B83567-2B70-4CA3-ABBB-A798085DCD06";
shapes = (
{
closed = 1;
nodes = (
(154,0,l),
(225,124,l),
(498,124,l),
(505,0,l),
(692,0,l),
(643,740,l),
(384,740,l),
(-59,0,l)
);
},
{
closed = 1;
nodes = (
(477,561,l),
(491,288,l),
(320,288,l)
);
},
{
closed = 1;
nodes = (
(713,822,o),
(740,900,o),
(761,981,c),
(668,981,l),
(658,946,o),
(647,928,o),
(628,928,cs),
(594,928,o),
(566,987,o),
(493,987,cs),
(402,987,o),
(376,910,o),
(355,828,c),
(448,828,l),
(456,862,o),
(469,881,o),
(487,881,cs),
(522,881,o),
(550,822,o),
(623,822,cs)
);
}
);
width = 766;
},
{
layerId = "96AFF54B-CDB9-40A8-9C60-2DEF28996F09";
shapes = (
{
closed = 1;
nodes = (
(67,0,l),
(175,177,l),
(485,177,l),
(500,0,l),
(594,0,l),
(529,740,l),
(415,740,l),
(-44,0,l)
);
},
{
closed = 1;
nodes = (
(449,622,l),
(478,265,l),
(230,265,l)
);
},
{
closed = 1;
nodes = (
(639,826,o),
(668,876,o),
(686,958,c),
(625,958,l),
(616,916,o),
(605,893,o),
(583,893,cs),
(545,893,o),
(527,963,o),
(456,963,cs),
(396,963,o),
(367,914,o),
(349,832,c),
(410,832,l),
(419,874,o),
(433,898,o),
(453,898,cs),
(492,898,o),
(512,826,o),
(580,826,cs)
);
}
);
width = 696;
},
{
layerId = "6FA1D1A9-9908-45CC-BE31-7B82C0699C2A";
shapes = (
{
closed = 1;
nodes = (
(37,0,l),
(175,220,l),
(517,220,l),
(537,0,l),
(573,0,l),
(502,740,l),
(458,740,l),
(-5,0,l)
);
},
{
closed = 1;
nodes = (
(472,697,l),
(513,252,l),
(195,252,l)
);
},
{
closed = 1;
nodes = (
(613,831,o),
(641,878,o),
(655,936,c),
(623,936,l),
(613,887,o),
(595,860,o),
(571,860,cs),
(530,860,o),
(532,941,o),
(469,941,cs),
(422,941,o),
(393,898,o),
(379,836,c),
(411,836,l),
(419,880,o),
(439,912,o),
(465,912,cs),
(507,912,o),
(507,831,o),
(567,831,cs)
);
}
);
width = 658;
}
);
leftKerningGroup = A;
rightKerningGroup = A;
unicode = 195;
},
{
glyphname = AE;
leftMetricsKey = A;
rightMetricsKey = E;
layers = (
{
layerId = "75B83567-2B70-4CA3-ABBB-A798085DCD06";
shapes = (
{
closed = 1;
nodes = (
(154,0,l),
(569,613,l),
(603,740,l),
(446,740,l),
(-56,0,l)
);
},
{
closed = 1;
nodes = (
(528,124,l),
(572,285,l),
(173,285,l),
(129,124,l)
);
},
{
closed = 1;
nodes = (
(942,296,l),
(985,454,l),
(581,454,l),
(539,296,l)
);
},
{
closed = 1;
nodes = (
(1061,574,l),
(1105,740,l),
(656,740,l),
(613,574,l)
);
},
{
closed = 1;
nodes = (
(914,0,l),
(957,166,l),
(504,166,l),
(460,0,l)
);
},
{
closed = 1;
nodes = (
(580,0,l),
(776,740,l),
(584,740,l),
(388,0,l)
);
}
);
width = 1021;
},
{
layerId = "96AFF54B-CDB9-40A8-9C60-2DEF28996F09";
shapes = (
{
closed = 1;
nodes = (
(74,0,l),
(602,675,l),
(619,740,l),
(534,740,l),
(-44,0,l)
);
},
{
closed = 1;
nodes = (
(537,177,l),
(559,265,l),
(202,265,l),
(180,177,l)
);
},
{
closed = 1;
nodes = (
(898,334,l),
(920,420,l),
(607,420,l),
(585,334,l)
);
},
{
closed = 1;
nodes = (
(1029,654,l),
(1051,740,l),
(692,740,l),
(670,654,l)
);
},
{
closed = 1;
nodes = (
(860,0,l),
(883,86,l),
(519,86,l),
(496,0,l)
);
},
{
closed = 1;
nodes = (
(507,0,l),
(703,740,l),
(605,740,l),
(409,0,l)
);
}
);
width = 1002;
},
{
layerId = "6FA1D1A9-9908-45CC-BE31-7B82C0699C2A";
shapes = (
{
closed = 1;
nodes = (
(37,0,l),
(608,724,l),
(608,740,l),
(577,740,l),
(-6,0,l)
);
},
{
closed = 1;
nodes = (
(474,220,l),
(482,252,l),
(206,252,l),
(198,220,l)
);
},
{
closed = 1;
nodes = (
(858,362,l),
(867,396,l),
(527,396,l),
(518,362,l)
);
},
{
closed = 1;
nodes = (
(998,706,l),
(1007,740,l),
(618,740,l),
(609,706,l)
);
},
{
closed = 1;
nodes = (
(817,0,l),
(826,34,l),
(431,34,l),
(422,0,l)
);
},
{
closed = 1;
nodes = (
(434,0,l),
(630,740,l),
(595,740,l),
(399,0,l)
);
}
);
width = 925;
}
);
leftKerningGroup = A;
rightKerningGroup = E;
unicode = 198;
},
{
glyphname = B;
leftMetricsKey = l;
layers = (
{
layerId = "75B83567-2B70-4CA3-ABBB-A798085DCD06";
shapes = (
{
closed = 1;
nodes = (
(374,0,ls),
(573,0,o),
(689,142,o),
(689,257,cs),
(689,311,o),
(664,374,o),
(577,393,c),
(579,402,l),
(679,428,o),
(730,510,o),
(730,579,cs),
(730,659,o),
(665,740,o),
(513,740,cs),
(363,740,l),
(320,581,l),
(468,581,ls),
(514,581,o),
(532,555,o),
(532,530,cs),
(532,496,o),
(500,452,o),
(446,452,cs),
(286,452,l),
(249,309,l),
(410,309,ls),
(462,309,o),
(485,279,o),
(485,249,cs),
(485,209,o),
(446,159,o),
(383,159,cs),
(209,159,l),
(166,0,l)
);
},
{
closed = 1;
nodes = (
(181,0,l),
(377,740,l),
(185,740,l),
(-11,0,l)
);
}
);
width = 733;
},
{
layerId = "96AFF54B-CDB9-40A8-9C60-2DEF28996F09";
shapes = (
{
closed = 1;
nodes = (
(332,0,ls),
(500,0,o),
(604,135,o),
(604,247,cs),
(604,298,o),
(585,358,o),
(511,384,c),
(512,390,l),
(610,425,o),
(648,512,o),
(648,579,cs),
(648,660,o),
(596,740,o),
(471,740,cs),
(269,740,l),
(246,655,l),
(457,655,ls),
(522,655,o),
(555,612,o),
(555,563,cs),
(555,497,o),
(497,419,o),
(395,419,cs),
(184,419,l),
(162,340,l),
(381,340,ls),
(468,340,o),
(507,294,o),
(507,241,cs),
(507,168,o),
(439,85,o),
(339,85,cs),
(95,85,l),
(72,0,l)
);
},
{
closed = 1;
nodes = (
(114,0,l),
(310,740,l),
(212,740,l),
(16,0,l)
);
}
);
width = 665;
},
{
layerId = "6FA1D1A9-9908-45CC-BE31-7B82C0699C2A";
shapes = (
{
closed = 1;
nodes = (
(322,0,ls),
(491,0,o),
(582,127,o),
(582,229,cs),
(582,297,o),
(546,353,o),
(479,373,c),
(480,377,l),
(587,407,o),
(644,500,o),
(644,584,cs),
(644,666,o),
(588,740,o),
(468,740,cs),
(239,740,l),
(230,706,l),
(465,706,ls),
(564,706,o),
(607,650,o),
(607,583,cs),
(607,494,o),
(531,390,o),
(407,390,cs),
(147,390,l),
(138,358,l),
(398,358,ls),
(500,358,o),
(547,299,o),
(547,229,cs),
(547,138,o),
(466,34,o),
(324,34,cs),
(52,34,l),
(43,0,l)
);
},
{
closed = 1;
nodes = (
(57,0,l),
(254,740,l),
(219,740,l),
(22,0,l)
);
}
);
width = 641;
}
);
leftKerningGroup = l;
rightKerningGroup = B;
unicode = 66;
},
{
glyphname = C;
leftMetricsKey = O;
rightMetricsKey = O;
layers = (
{
anchors = (
{
name = bottom;
position = "{337, 8}";
},
{
name = top;
position = "{532, 738}";
}
);
layerId = "75B83567-2B70-4CA3-ABBB-A798085DCD06";
shapes = (
{
closed = 1;
nodes = (
(691,-10,o),
(749,267,o),
(749,267,c),
(559,267,l),
(559,267,o),
(521,161,o),
(396,161,cs),
(298,161,o),
(254,237,o),
(254,326,cs),
(254,444,o),
(333,580,o),
(471,580,cs),
(607,580,o),
(603,473,o),
(603,473,c),
(793,473,l),
(793,473,o),
(809,750,o),
(482,750,cs),
(212,750,o),
(61,515,o),
(61,305,cs),
(61,139,o),
(160,-10,o),
(374,-10,cs)
);
}
);
width = 784;
},
{
anchors = (
{
name = bottom;
position = "{324, 2}";
},
{
name = top;
position = "{494, 740}";
}
);
layerId = "96AFF54B-CDB9-40A8-9C60-2DEF28996F09";
shapes = (
{
closed = 1;
nodes = (
(621,-10,o),
(691,247,o),
(691,247,c),
(592,247,l),
(592,247,o),
(536,79,o),
(361,79,cs),
(218,79,o),
(158,186,o),
(158,310,cs),
(158,474,o),
(264,663,o),
(465,663,cs),
(650,663,o),
(637,493,o),
(637,493,c),
(735,493,l),
(735,493,o),
(749,750,o),
(471,750,cs),
(200,750,o),
(59,510,o),
(59,301,cs),
(59,135,o),
(147,-10,o),
(353,-10,cs)
);
}
);
width = 743;
},
{
anchors = (
{
name = bottom;
position = "{331, 0}";
},
{
name = top;
position = "{510, 740}";
}
);
layerId = "6FA1D1A9-9908-45CC-BE31-7B82C0699C2A";
shapes = (
{
closed = 1;
nodes = (
(592,-10,o),
(665,234,o),
(665,234,c),
(628,234,l),
(628,234,o),
(563,24,o),
(344,24,cs),
(180,24,o),
(108,152,o),
(108,300,cs),
(108,493,o),
(233,716,o),
(468,716,cs),
(693,716,o),
(673,506,o),
(673,506,c),
(708,506,l),
(708,506,o),
(728,750,o),
(470,750,cs),
(210,750,o),
(72,509,o),
(72,299,cs),
(72,134,o),
(156,-10,o),
(342,-10,cs)
);
}
);
width = 745;
}
);
leftKerningGroup = O;
rightKerningGroup = O;
unicode = 67;
},
{
glyphname = Cacute;
layers = (
{
layerId = "75B83567-2B70-4CA3-ABBB-A798085DCD06";
shapes = (
{
closed = 1;
nodes = (
(691,-10,o),
(749,267,o),
(749,267,c),
(559,267,l),
(559,267,o),
(521,161,o),
(396,161,cs),
(298,161,o),
(254,237,o),
(254,326,cs),
(254,444,o),
(333,580,o),
(471,580,cs),
(607,580,o),
(603,473,o),
(603,473,c),
(793,473,l),
(793,473,o),
(809,750,o),
(482,750,cs),
(212,750,o),
(61,515,o),
(61,305,cs),
(61,139,o),
(160,-10,o),
(374,-10,cs)
);
},
{
closed = 1;
nodes = (
(743,987,l),
(573,987,l),
(496,808,l),
(629,807,l)
);
}
);
width = 784;
},
{
layerId = "96AFF54B-CDB9-40A8-9C60-2DEF28996F09";
shapes = (
{
closed = 1;
nodes = (
(621,-10,o),
(691,247,o),
(691,247,c),
(592,247,l),
(592,247,o),
(536,79,o),
(361,79,cs),
(218,79,o),
(158,186,o),
(158,310,cs),
(158,474,o),
(264,663,o),
(465,663,cs),
(650,663,o),
(637,493,o),
(637,493,c),
(735,493,l),
(735,493,o),
(749,750,o),
(471,750,cs),
(200,750,o),
(59,510,o),
(59,301,cs),
(59,135,o),
(147,-10,o),
(353,-10,cs)
);
},
{
closed = 1;
nodes = (
(674,1001,l),
(580,1001,l),
(485,821,l),
(563,820,l)
);
}
);
width = 744;
},
{
layerId = "6FA1D1A9-9908-45CC-BE31-7B82C0699C2A";
shapes = (
{
closed = 1;
nodes = (
(592,-10,o),
(664,234,o),
(664,234,c),
(627,234,l),
(627,234,o),
(563,24,o),
(344,24,cs),
(180,24,o),
(108,152,o),
(108,300,cs),
(108,493,o),
(232,716,o),
(468,716,cs),
(693,716,o),
(672,506,o),
(672,506,c),
(708,506,l),
(708,506,o),
(728,750,o),
(470,750,cs),
(210,750,o),
(71,509,o),
(71,299,cs),
(71,134,o),
(156,-10,o),
(341,-10,cs)
);
},
{
closed = 1;
nodes = (
(619,980,l),
(583,980,l),
(513,828,l),
(542,828,l)
);
}
);
width = 744;
}
);
leftKerningGroup = O;
rightKerningGroup = O;
unicode = 262;
},
{
glyphname = Ccaron;
layers = (
{
layerId = "75B83567-2B70-4CA3-ABBB-A798085DCD06";
shapes = (
{
closed = 1;
nodes = (
(691,-10,o),
(749,267,o),
(749,267,c),
(559,267,l),
(559,267,o),
(521,161,o),
(396,161,cs),
(298,161,o),
(254,237,o),
(254,326,cs),
(254,444,o),
(333,580,o),
(471,580,cs),
(607,580,o),
(603,473,o),
(603,473,c),
(793,473,l),
(793,473,o),
(809,750,o),
(482,750,cs),
(212,750,o),
(61,515,o),
(61,305,cs),
(61,139,o),
(160,-10,o),
(374,-10,cs)
);
},
{
closed = 1;
nodes = (
(626,798,l),
(811,987,l),
(661,987,l),
(534,852,l),
(582,843,l),
(526,987,l),
(394,987,l),
(479,798,l)
);
}
);
width = 784;
},
{
layerId = "96AFF54B-CDB9-40A8-9C60-2DEF28996F09";
shapes = (
{
closed = 1;
nodes = (
(621,-10,o),
(691,247,o),
(691,247,c),
(592,247,l),
(592,247,o),
(536,79,o),
(361,79,cs),
(218,79,o),
(158,186,o),
(158,310,cs),
(158,474,o),
(264,663,o),
(465,663,cs),
(650,663,o),
(637,493,o),
(637,493,c),
(735,493,l),
(735,493,o),
(749,750,o),
(471,750,cs),
(200,750,o),
(59,510,o),
(59,301,cs),
(59,135,o),
(147,-10,o),
(353,-10,cs)
);
},
{
closed = 1;
nodes = (
(549,818,l),
(713,985,l),
(620,985,l),
(485,846,l),
(535,837,l),
(469,985,l),
(390,985,l),
(468,818,l)
);
}
);
width = 744;
},
{
layerId = "6FA1D1A9-9908-45CC-BE31-7B82C0699C2A";
shapes = (
{
closed = 1;
nodes = (
(592,-10,o),
(664,234,o),
(664,234,c),
(627,234,l),
(627,234,o),
(563,24,o),
(344,24,cs),
(180,24,o),
(108,152,o),
(108,300,cs),
(108,493,o),
(232,716,o),
(468,716,cs),
(693,716,o),
(672,506,o),
(672,506,c),
(708,506,l),
(708,506,o),
(728,750,o),
(470,750,cs),
(210,750,o),
(71,509,o),
(71,299,cs),
(71,134,o),
(156,-10,o),
(341,-10,cs)
);
},
{
closed = 1;
nodes = (
(542,818,l),
(693,970,l),
(648,970,l),
(515,832,l),
(531,832,l),
(470,970,l),
(434,970,l),
(505,818,l)
);
}
);
width = 744;
}
);
leftKerningGroup = O;
rightKerningGroup = O;
unicode = 268;
},
{
glyphname = Ccedilla;
layers = (
{
layerId = "75B83567-2B70-4CA3-ABBB-A798085DCD06";
shapes = (
{
closed = 1;
nodes = (
(691,-10,o),
(749,267,o),
(749,267,c),
(559,267,l),
(559,267,o),
(521,161,o),
(396,161,cs),
(298,161,o),
(254,237,o),
(254,326,cs),
(254,444,o),
(333,580,o),
(471,580,cs),
(607,580,o),
(603,473,o),
(603,473,c),
(793,473,l),
(793,473,o),
(809,750,o),
(482,750,cs),
(212,750,o),
(61,515,o),
(61,305,cs),
(61,139,o),
(160,-10,o),
(374,-10,cs)
);
},
{
closed = 1;
nodes = (
(402,-263,o),
(459,-193,o),
(459,-132,cs),
(459,-78,o),
(412,-33,o),
(345,-33,cs),
(270,-33,o),
(265,-87,o),
(265,-87,c),
(292,-87,l),
(419,36,l),
(304,36,l),
(211,-57,l),
(252,-113,l),
(252,-113,o),
(270,-103,o),
(291,-103,cs),
(316,-103,o),
(328,-117,o),
(328,-130,cs),
(328,-148,o),
(315,-164,o),
(272,-164,cs),
(246,-164,o),
(198,-158,o),
(198,-158,c),
(180,-255,l),
(180,-255,o),
(221,-263,o),
(267,-263,cs)
);
}
);
width = 784;
},
{
layerId = "96AFF54B-CDB9-40A8-9C60-2DEF28996F09";
shapes = (
{
closed = 1;
nodes = (
(621,-10,o),
(691,247,o),
(691,247,c),
(592,247,l),
(592,247,o),
(536,79,o),
(361,79,cs),
(218,79,o),
(158,186,o),
(158,310,cs),
(158,474,o),
(264,663,o),
(465,663,cs),
(650,663,o),
(637,493,o),
(637,493,c),
(735,493,l),
(735,493,o),
(749,750,o),
(471,750,cs),
(200,750,o),
(59,510,o),
(59,301,cs),
(59,135,o),
(147,-10,o),
(353,-10,cs)
);
},
{
closed = 1;
nodes = (
(364,-260,o),
(407,-205,o),
(407,-152,cs),
(407,-104,o),
(373,-57,o),
(305,-57,cs),
(243,-57,o),
(235,-104,o),
(235,-104,c),
(265,-104,l),
(368,9,l),
(294,9,l),
(206,-88,l),
(232,-122,l),
(231,-122,o),
(250,-110,o),
(278,-110,cs),
(315,-110,o),
(333,-130,o),
(333,-153,cs),
(333,-177,o),
(316,-202,o),
(263,-202,cs),
(234,-202,o),
(192,-193,o),
(192,-193,c),
(180,-248,l),
(180,-248,o),
(216,-260,o),
(261,-260,cs)
);
}
);
width = 744;
},
{
layerId = "6FA1D1A9-9908-45CC-BE31-7B82C0699C2A";
shapes = (
{
closed = 1;
nodes = (
(592,-10,o),
(664,234,o),
(664,234,c),
(627,234,l),
(627,234,o),
(563,24,o),
(344,24,cs),
(180,24,o),
(108,152,o),
(108,300,cs),
(108,493,o),
(232,716,o),
(468,716,cs),
(693,716,o),
(672,506,o),
(672,506,c),
(708,506,l),
(708,506,o),
(728,750,o),
(470,750,cs),
(210,750,o),
(71,509,o),
(71,299,cs),
(71,134,o),
(156,-10,o),
(341,-10,cs)
);
},
{
closed = 1;
nodes = (
(366,-249,o),
(404,-202,o),
(404,-154,cs),
(404,-111,o),
(372,-70,o),
(312,-70,cs),
(255,-70,o),
(246,-107,o),
(246,-107,c),
(266,-107,l),
(356,0,l),
(320,0,l),
(236,-99,l),
(250,-118,l),
(249,-118,o),
(274,-101,o),
(306,-101,cs),
(346,-101,o),
(369,-128,o),
(369,-157,cs),
(369,-188,o),
(343,-218,o),
(289,-218,cs),
(257,-218,o),
(220,-207,o),
(220,-207,c),
(212,-236,l),
(212,-236,o),
(246,-249,o),
(289,-249,cs)
);
}
);
width = 744;
}
);
leftKerningGroup = O;
rightKerningGroup = O;
unicode = 199;
},
{
glyphname = Cdotaccent;
layers = (
{
layerId = "75B83567-2B70-4CA3-ABBB-A798085DCD06";
shapes = (
{
closed = 1;
nodes = (
(691,-10,o),
(749,267,o),
(749,267,c),
(559,267,l),
(559,267,o),
(521,161,o),
(396,161,cs),
(298,161,o),
(254,237,o),
(254,326,cs),
(254,444,o),
(333,580,o),
(471,580,cs),
(607,580,o),
(603,473,o),
(603,473,c),
(793,473,l),
(793,473,o),
(809,750,o),
(482,750,cs),
(212,750,o),
(61,515,o),
(61,305,cs),
(61,139,o),
(160,-10,o),
(374,-10,cs)
);
},
{
closed = 1;
nodes = (
(636,791,o),
(682,838,o),
(682,894,cs),
(682,952,o),
(636,998,o),
(573,998,cs),
(510,998,o),
(465,952,o),
(465,894,cs),
(465,838,o),
(510,791,o),
(573,791,cs)
);
}
);
width = 784;
},
{
layerId = "96AFF54B-CDB9-40A8-9C60-2DEF28996F09";
shapes = (
{
closed = 1;
nodes = (
(621,-10,o),
(691,247,o),
(691,247,c),
(592,247,l),
(592,247,o),
(536,79,o),
(361,79,cs),
(218,79,o),
(158,186,o),
(158,310,cs),
(158,474,o),
(264,663,o),
(465,663,cs),
(650,663,o),
(637,493,o),
(637,493,c),
(735,493,l),
(735,493,o),
(749,750,o),
(471,750,cs),
(200,750,o),
(59,510,o),
(59,301,cs),
(59,135,o),
(147,-10,o),
(353,-10,cs)
);
},
{
closed = 1;
nodes = (
(571,835,o),
(598,862,o),
(598,896,cs),
(598,930,o),
(571,958,o),
(536,958,cs),
(500,958,o),
(474,930,o),
(474,896,cs),
(474,863,o),
(500,835,o),
(536,835,cs)
);
}
);
width = 744;
},
{
layerId = "6FA1D1A9-9908-45CC-BE31-7B82C0699C2A";
shapes = (
{
closed = 1;
nodes = (
(592,-10,o),
(664,234,o),
(664,234,c),
(627,234,l),
(627,234,o),
(563,24,o),
(344,24,cs),
(180,24,o),
(108,152,o),
(108,300,cs),
(108,493,o),
(232,716,o),
(468,716,cs),
(693,716,o),
(672,506,o),
(672,506,c),
(708,506,l),
(708,506,o),
(728,750,o),
(470,750,cs),
(210,750,o),
(71,509,o),
(71,299,cs),
(71,134,o),
(156,-10,o),
(341,-10,cs)
);
},
{
closed = 1;
nodes = (
(567,839,o),
(583,855,o),
(583,875,cs),
(583,894,o),
(567,911,o),
(547,911,cs),
(527,911,o),
(512,894,o),
(512,875,cs),
(512,855,o),
(527,839,o),
(547,839,cs)
);
}
);
width = 744;
}
);
leftKerningGroup = O;
rightKerningGroup = O;
unicode = 266;
},
{
glyphname = D;
leftMetricsKey = l;
rightMetricsKey = O;
layers = (
{
layerId = "75B83567-2B70-4CA3-ABBB-A798085DCD06";
shapes = (
{
closed = 1;
nodes = (
(294,0,ls),
(598,0,o),
(757,220,o),
(757,420,cs),
(757,588,o),
(647,740,o),
(415,740,cs),
(332,740,l),
(288,572,l),
(400,572,ls),
(514,572,o),
(571,494,o),
(571,406,cs),
(571,296,o),
(482,171,o),
(317,171,cs),
(181,171,l),
(136,0,l)
);
},
{
closed = 1;
nodes = (
(181,0,l),
(377,740,l),
(185,740,l),
(-11,0,l)
);
}
);
width = 765;
},
{
layerId = "96AFF54B-CDB9-40A8-9C60-2DEF28996F09";
shapes = (
{
closed = 1;
nodes = (
(245,0,ls),
(520,0,o),
(678,238,o),
(678,445,cs),
(678,603,o),
(586,740,o),
(379,740,cs),
(259,740,l),
(236,654,l),
(365,654,ls),
(514,654,o),
(579,555,o),
(579,439,cs),
(579,277,o),
(455,86,o),
(251,86,cs),
(85,86,l),
(62,0,l)
);
},
{
closed = 1;
nodes = (
(114,0,l),
(310,740,l),
(212,740,l),
(16,0,l)
);
}
);
width = 692;
},
{
layerId = "6FA1D1A9-9908-45CC-BE31-7B82C0699C2A";
shapes = (
{
closed = 1;
nodes = (
(229,0,ls),
(516,0,o),
(680,241,o),
(680,449,cs),
(680,605,o),
(588,740,o),
(383,740,cs),
(223,740,l),
(214,706,l),
(383,706,ls),
(563,706,o),
(644,587,o),
(644,446,cs),
(644,257,o),
(495,34,o),
(229,34,cs),
(35,34,l),
(26,0,l)
);
},
{
closed = 1;
nodes = (
(57,0,l),
(254,740,l),
(219,740,l),
(22,0,l)
);
}
);
width = 717;
}
);
leftKerningGroup = h;
rightKerningGroup = O;
unicode = 68;
},
{
glyphname = Eth;
layers = (
{
layerId = "75B83567-2B70-4CA3-ABBB-A798085DCD06";
shapes = (
{
closed = 1;
nodes = (
(375,296,l),
(415,444,l),
(25,444,l),
(-15,296,l)
);
},
{
closed = 1;
nodes = (
(308,0,ls),
(613,0,o),
(772,220,o),
(772,420,cs),
(772,588,o),
(662,740,o),
(430,740,cs),
(347,740,l),
(303,572,l),
(414,572,ls),
(528,572,o),
(585,494,o),
(585,406,cs),
(585,296,o),
(497,171,o),
(332,171,cs),
(195,171,l),
(150,0,l)
);
},
{
closed = 1;
nodes = (
(196,0,l),
(392,740,l),
(200,740,l),
(4,0,l)
);
}
);
width = 780;
},
{
layerId = "96AFF54B-CDB9-40A8-9C60-2DEF28996F09";
shapes = (
{
closed = 1;
nodes = (
(395,329,l),
(418,414,l),
(64,414,l),
(41,329,l)
);
},
{
closed = 1;
nodes = (
(293,0,ls),
(567,0,o),
(726,238,o),
(726,445,cs),
(726,603,o),
(634,740,o),
(426,740,cs),
(306,740,l),
(284,654,l),
(412,654,ls),
(562,654,o),
(626,555,o),
(626,439,cs),
(626,277,o),
(503,86,o),
(299,86,cs),
(133,86,l),
(110,0,l)
);
},
{
closed = 1;
nodes = (
(162,0,l),
(358,740,l),
(260,740,l),
(64,0,l)
);
}
);
width = 741;
},
{
layerId = "6FA1D1A9-9908-45CC-BE31-7B82C0699C2A";
shapes = (
{
closed = 1;
nodes = (
(356,354,l),
(364,386,l),
(64,386,l),
(55,354,l)
);
},
{
closed = 1;
nodes = (
(272,0,ls),
(559,0,o),
(723,241,o),
(723,449,cs),
(723,605,o),
(630,740,o),
(426,740,cs),
(265,740,l),
(257,706,l),
(426,706,ls),
(605,706,o),
(687,587,o),
(687,446,cs),
(687,257,o),
(538,34,o),
(272,34,cs),
(78,34,l),
(69,0,l)
);
},
{
closed = 1;
nodes = (
(100,0,l),
(296,740,l),
(261,740,l),
(65,0,l)
);
}
);
width = 762;
}
);
rightKerningGroup = O;
unicode = 208;
},
{
glyphname = Dcaron;
layers = (
{
layerId = "75B83567-2B70-4CA3-ABBB-A798085DCD06";
shapes = (
{
closed = 1;
nodes = (
(292,0,ls),
(597,0,o),
(756,220,o),
(756,420,cs),
(756,588,o),
(646,740,o),
(414,740,cs),
(331,740,l),
(287,572,l),
(398,572,ls),
(512,572,o),
(569,494,o),
(569,406,cs),
(569,296,o),
(481,171,o),
(316,171,cs),
(179,171,l),
(134,0,l)
);
},
{
closed = 1;
nodes = (
(180,0,l),
(376,740,l),
(184,740,l),
(-13,0,l)
);
},
{
closed = 1;
nodes = (
(558,800,l),
(743,989,l),
(593,989,l),
(466,854,l),
(514,845,l),
(458,989,l),
(326,989,l),
(411,800,l)
);
}
);
width = 764;
},
{
layerId = "96AFF54B-CDB9-40A8-9C60-2DEF28996F09";
shapes = (
{
closed = 1;
nodes = (
(243,0,ls),
(517,0,o),
(676,238,o),
(676,445,cs),
(676,603,o),
(584,740,o),
(376,740,cs),
(256,740,l),
(234,654,l),
(362,654,ls),
(512,654,o),
(576,555,o),
(576,439,cs),
(576,277,o),
(453,86,o),
(249,86,cs),
(83,86,l),
(60,0,l)
);
},
{
closed = 1;
nodes = (
(112,0,l),
(308,740,l),
(210,740,l),
(14,0,l)
);
},
{
closed = 1;
nodes = (
(481,818,l),
(646,985,l),
(552,985,l),
(418,846,l),
(467,837,l),
(401,985,l),
(323,985,l),
(400,818,l)
);
}
);
width = 691;
},
{
layerId = "6FA1D1A9-9908-45CC-BE31-7B82C0699C2A";
shapes = (
{
closed = 1;
nodes = (
(227,0,ls),
(514,0,o),
(678,241,o),
(678,449,cs),
(678,605,o),
(585,740,o),
(381,740,cs),
(220,740,l),
(212,706,l),
(381,706,ls),
(560,706,o),
(642,587,o),
(642,446,cs),
(642,257,o),
(493,34,o),
(227,34,cs),
(33,34,l),
(24,0,l)
);
},
{
closed = 1;
nodes = (
(55,0,l),
(251,740,l),
(216,740,l),
(20,0,l)
);
},
{
closed = 1;
nodes = (
(446,818,l),
(597,970,l),
(553,970,l),
(419,832,l),
(436,832,l),
(374,970,l),
(338,970,l),
(409,818,l)
);
}
);
width = 717;
}
);
leftKerningGroup = h;
rightKerningGroup = O;
unicode = 270;
},
{
glyphname = Dcroat;
rightMetricsKey = O;
layers = (
{
layerId = "75B83567-2B70-4CA3-ABBB-A798085DCD06";
shapes = (
{
closed = 1;
nodes = (
(375,296,l),
(415,444,l),
(25,444,l),
(-15,296,l)
);
},
{
closed = 1;
nodes = (
(308,0,ls),
(613,0,o),
(772,220,o),
(772,420,cs),
(772,588,o),
(662,740,o),
(430,740,cs),
(347,740,l),
(303,572,l),
(414,572,ls),
(528,572,o),
(585,494,o),
(585,406,cs),
(585,296,o),
(497,171,o),
(332,171,cs),
(195,171,l),
(150,0,l)
);
},
{
closed = 1;
nodes = (
(196,0,l),
(392,740,l),
(200,740,l),
(4,0,l)
);
}
);
width = 780;
},
{
layerId = "96AFF54B-CDB9-40A8-9C60-2DEF28996F09";
shapes = (
{
closed = 1;
nodes = (
(395,329,l),
(418,414,l),
(64,414,l),
(41,329,l)
);
},
{
closed = 1;
nodes = (
(293,0,ls),
(567,0,o),
(726,238,o),
(726,445,cs),
(726,603,o),
(634,740,o),
(426,740,cs),
(306,740,l),
(284,654,l),
(412,654,ls),
(562,654,o),
(626,555,o),
(626,439,cs),
(626,277,o),
(503,86,o),
(299,86,cs),
(133,86,l),
(110,0,l)
);
},
{
closed = 1;
nodes = (
(162,0,l),
(358,740,l),
(260,740,l),
(64,0,l)
);
}
);
width = 740;
},
{
layerId = "6FA1D1A9-9908-45CC-BE31-7B82C0699C2A";
shapes = (
{
closed = 1;
nodes = (
(356,354,l),
(364,386,l),
(64,386,l),
(55,354,l)
);
},
{
closed = 1;
nodes = (
(272,0,ls),
(559,0,o),
(723,241,o),
(723,449,cs),
(723,605,o),
(630,740,o),
(426,740,cs),
(265,740,l),
(257,706,l),
(426,706,ls),
(605,706,o),
(687,587,o),
(687,446,cs),
(687,257,o),
(538,34,o),
(272,34,cs),
(78,34,l),
(69,0,l)
);
},
{
closed = 1;
nodes = (
(100,0,l),
(296,740,l),
(261,740,l),
(65,0,l)
);
}
);
width = 760;
}
);
rightKerningGroup = O;
unicode = 272;
},
{
glyphname = E;
leftMetricsKey = l;
layers = (
{
anchors = (
{
name = bottom;
position = "{258, 0}";
},
{
name = ogonek;
position = "{515, 0}";
},
{
name = top;
position = "{443, 740}";
},
{
name = topleft;
position = "{216, 736}";
}
);
layerId = "75B83567-2B70-4CA3-ABBB-A798085DCD06";
shapes = (
{
closed = 1;
nodes = (
(556,296,l),
(599,454,l),
(183,454,l),
(140,296,l)
);
},
{
closed = 1;
nodes = (
(675,574,l),
(719,740,l),
(258,740,l),
(214,574,l)
);
},
{
closed = 1;
nodes = (
(527,0,l),
(571,166,l),
(105,166,l),
(61,0,l)
);
},
{
closed = 1;
nodes = (
(181,0,l),
(377,740,l),
(185,740,l),
(-11,0,l)
);
}
);
width = 634;
},
{
anchors = (
{
name = bottom;
position = "{295, 0}";
},
{
name = ogonek;
position = "{467, 0}";
},
{
name = top;
position = "{427, 740}";
},
{
name = topleft;
position = "{221, 700}";
}
);
layerId = "96AFF54B-CDB9-40A8-9C60-2DEF28996F09";
shapes = (
{
closed = 1;
nodes = (
(505,334,l),
(528,420,l),
(215,420,l),
(192,334,l)
);
},
{
closed = 1;
nodes = (
(636,654,l),
(659,740,l),
(300,740,l),
(277,654,l)
);
},
{
closed = 1;
nodes = (
(467,0,l),
(490,86,l),
(126,86,l),
(103,0,l)
);
},
{
closed = 1;
nodes = (
(114,0,l),
(310,740,l),
(212,740,l),
(16,0,l)
);
}
);
width = 609;
},
{
anchors = (
{
name = bottom;
position = "{205, 0}";
},
{
name = ogonek;
position = "{440, 0}";
},
{
name = top;
position = "{401, 740}";
},
{
name = topleft;
position = "{210, 700}";
}
);
layerId = "6FA1D1A9-9908-45CC-BE31-7B82C0699C2A";
shapes = (
{
closed = 1;
nodes = (
(482,362,l),
(490,396,l),
(150,396,l),
(142,362,l)
);
},
{
closed = 1;
nodes = (
(622,706,l),
(631,740,l),
(242,740,l),
(233,706,l)
);
},
{
closed = 1;
nodes = (
(440,0,l),
(449,34,l),
(54,34,l),
(45,0,l)
);
},
{
closed = 1;
nodes = (
(57,0,l),
(254,740,l),
(219,740,l),
(22,0,l)
);
}
);
width = 548;
}
);
leftKerningGroup = l;
rightKerningGroup = E;
unicode = 69;
},
{
glyphname = Eacute;
layers = (
{
layerId = "75B83567-2B70-4CA3-ABBB-A798085DCD06";
shapes = (
{
closed = 1;
nodes = (
(542,296,l),
(585,454,l),
(181,454,l),
(139,296,l)
);
},
{
closed = 1;
nodes = (
(661,574,l),
(705,740,l),
(256,740,l),
(213,574,l)
);
},
{
closed = 1;
nodes = (
(514,0,l),
(557,166,l),
(104,166,l),
(60,0,l)
);
},
{
closed = 1;
nodes = (
(180,0,l),
(376,740,l),
(184,740,l),
(-13,0,l)
);
},
{
closed = 1;
nodes = (
(653,989,l),
(483,989,l),
(406,810,l),
(539,809,l)
);
}
);
width = 631;
},
{
layerId = "96AFF54B-CDB9-40A8-9C60-2DEF28996F09";
shapes = (
{
closed = 1;
nodes = (
(503,334,l),
(525,420,l),
(212,420,l),
(190,334,l)
);
},
{
closed = 1;
nodes = (
(634,654,l),
(656,740,l),
(297,740,l),
(275,654,l)
);
},
{
closed = 1;
nodes = (
(465,0,l),
(488,86,l),
(124,86,l),
(101,0,l)
);
},
{
closed = 1;
nodes = (
(112,0,l),
(308,740,l),
(210,740,l),
(14,0,l)
);
},
{
closed = 1;
nodes = (
(606,1001,l),
(511,1001,l),
(417,821,l),
(494,820,l)
);
}
);
width = 606;
},
{
layerId = "6FA1D1A9-9908-45CC-BE31-7B82C0699C2A";
shapes = (
{
closed = 1;
nodes = (
(479,362,l),
(488,396,l),
(148,396,l),
(139,362,l)
);
},
{
closed = 1;
nodes = (
(620,706,l),
(628,740,l),
(239,740,l),
(231,706,l)
);
},
{
closed = 1;
nodes = (
(438,0,l),
(447,34,l),
(52,34,l),
(43,0,l)
);
},
{
closed = 1;
nodes = (
(55,0,l),
(251,740,l),
(216,740,l),
(20,0,l)
);
},
{
closed = 1;
nodes = (
(508,980,l),
(472,980,l),
(402,828,l),
(431,828,l)
);
}
);
width = 546;
}
);
leftKerningGroup = l;
rightKerningGroup = E;
unicode = 201;
},
{
glyphname = Ecaron;
layers = (
{
layerId = "75B83567-2B70-4CA3-ABBB-A798085DCD06";
shapes = (
{
closed = 1;
nodes = (
(542,296,l),
(585,454,l),
(181,454,l),
(139,296,l)
);
},
{
closed = 1;
nodes = (
(661,574,l),
(705,740,l),
(256,740,l),
(213,574,l)
);
},
{
closed = 1;
nodes = (
(514,0,l),
(557,166,l),
(104,166,l),
(60,0,l)
);
},
{
closed = 1;
nodes = (
(180,0,l),
(376,740,l),
(184,740,l),
(-13,0,l)
);
},
{
closed = 1;
nodes = (
(536,800,l),
(721,989,l),
(571,989,l),
(444,854,l),
(492,845,l),
(436,989,l),
(304,989,l),
(389,800,l)
);
}
);
width = 631;
},
{
layerId = "96AFF54B-CDB9-40A8-9C60-2DEF28996F09";
shapes = (
{
closed = 1;
nodes = (
(503,334,l),
(525,420,l),
(212,420,l),
(190,334,l)
);
},
{
closed = 1;
nodes = (
(634,654,l),
(656,740,l),
(297,740,l),
(275,654,l)
);
},
{
closed = 1;
nodes = (
(465,0,l),
(488,86,l),
(124,86,l),
(101,0,l)
);
},
{
closed = 1;
nodes = (
(112,0,l),
(308,740,l),
(210,740,l),
(14,0,l)
);
},
{
closed = 1;
nodes = (
(480,818,l),
(645,985,l),
(551,985,l),
(417,846,l),
(466,837,l),
(400,985,l),
(322,985,l),
(399,818,l)
);
}
);
width = 606;
},
{
layerId = "6FA1D1A9-9908-45CC-BE31-7B82C0699C2A";
shapes = (
{
closed = 1;
nodes = (
(479,362,l),
(488,396,l),
(148,396,l),
(139,362,l)
);
},
{
closed = 1;
nodes = (
(620,706,l),
(628,740,l),
(239,740,l),
(231,706,l)
);
},
{
closed = 1;
nodes = (
(438,0,l),
(447,34,l),
(52,34,l),
(43,0,l)
);
},
{
closed = 1;
nodes = (
(55,0,l),
(251,740,l),
(216,740,l),
(20,0,l)
);
},
{
closed = 1;
nodes = (
(431,818,l),
(582,970,l),
(537,970,l),
(404,832,l),
(420,832,l),
(359,970,l),
(323,970,l),
(394,818,l)
);
}
);
width = 546;
}
);
leftKerningGroup = l;
rightKerningGroup = E;
unicode = 282;
},
{
glyphname = Ecircumflex;
layers = (
{
layerId = "75B83567-2B70-4CA3-ABBB-A798085DCD06";
shapes = (
{
closed = 1;
nodes = (
(542,296,l),
(585,454,l),
(181,454,l),
(139,296,l)
);
},
{
closed = 1;
nodes = (
(661,574,l),
(705,740,l),
(256,740,l),
(213,574,l)
);
},
{
closed = 1;
nodes = (
(514,0,l),
(557,166,l),
(104,166,l),
(60,0,l)
);
},
{
closed = 1;
nodes = (
(180,0,l),
(376,740,l),
(184,740,l),
(-13,0,l)
);
},
{
closed = 1;
nodes = (
(392,799,l),
(482,885,l),
(527,799,l),
(658,799,l),
(566,958,l),
(419,958,l),
(241,799,l)
);
}
);
width = 631;
},
{
layerId = "96AFF54B-CDB9-40A8-9C60-2DEF28996F09";
shapes = (
{
closed = 1;
nodes = (
(503,334,l),
(525,420,l),
(212,420,l),
(190,334,l)
);
},
{
closed = 1;
nodes = (
(634,654,l),
(656,740,l),
(297,740,l),
(275,654,l)
);
},
{
closed = 1;
nodes = (
(465,0,l),
(488,86,l),
(124,86,l),
(101,0,l)
);
},
{
closed = 1;
nodes = (
(112,0,l),
(308,740,l),
(210,740,l),
(14,0,l)
);
},
{
closed = 1;
nodes = (
(365,816,l),
(464,911,l),
(516,816,l),
(595,816,l),
(512,963,l),
(431,963,l),
(272,816,l)
);
}
);
width = 606;
},
{
layerId = "6FA1D1A9-9908-45CC-BE31-7B82C0699C2A";
shapes = (
{
closed = 1;
nodes = (
(479,362,l),
(488,396,l),
(148,396,l),
(139,362,l)
);
},
{
closed = 1;
nodes = (
(620,706,l),
(628,740,l),
(239,740,l),
(231,706,l)
);
},
{
closed = 1;
nodes = (
(438,0,l),
(447,34,l),
(52,34,l),
(43,0,l)
);
},
{
closed = 1;
nodes = (
(55,0,l),
(251,740,l),
(216,740,l),
(20,0,l)
);
},
{
closed = 1;
nodes = (
(337,818,l),
(455,931,l),
(515,818,l),
(550,818,l),
(476,956,l),
(439,956,l),
(291,818,l)
);
}
);
width = 546;
}
);
leftKerningGroup = l;
rightKerningGroup = E;
unicode = 202;
},
{
glyphname = Ecircumflexacute;
layers = (
{
layerId = "75B83567-2B70-4CA3-ABBB-A798085DCD06";
shapes = (
{
closed = 1;
nodes = (
(542,296,l),
(585,454,l),
(181,454,l),
(139,296,l)
);
},
{
closed = 1;
nodes = (
(661,574,l),
(705,740,l),
(256,740,l),
(213,574,l)
);
},
{
closed = 1;
nodes = (
(514,0,l),
(557,166,l),
(104,166,l),
(60,0,l)
);
},
{
closed = 1;
nodes = (
(180,0,l),
(376,740,l),
(184,740,l),
(-13,0,l)
);
},
{
closed = 1;
nodes = (
(393,799,l),
(482,885,l),
(528,799,l),
(659,799,l),
(566,958,l),
(419,958,l),
(242,799,l)
);
},
{
closed = 1;
nodes = (
(881,1109,l),
(711,1109,l),
(634,930,l),
(767,929,l)
);
}
);
width = 631;
},
{
layerId = "96AFF54B-CDB9-40A8-9C60-2DEF28996F09";
shapes = (
{
closed = 1;
nodes = (
(503,334,l),
(525,420,l),
(212,420,l),
(190,334,l)
);
},
{
closed = 1;
nodes = (
(634,654,l),
(656,740,l),
(297,740,l),
(275,654,l)
);
},
{
closed = 1;
nodes = (
(465,0,l),
(488,86,l),
(124,86,l),
(101,0,l)
);
},
{
closed = 1;
nodes = (
(112,0,l),
(308,740,l),
(210,740,l),
(14,0,l)
);
},
{
closed = 1;
nodes = (
(378,816,l),
(476,911,l),
(529,816,l),
(607,816,l),
(525,963,l),
(444,963,l),
(284,816,l)
);
},
{
closed = 1;
nodes = (
(791,1125,l),
(697,1125,l),
(602,945,l),
(679,944,l)
);
}
);
width = 606;
},
{
layerId = "6FA1D1A9-9908-45CC-BE31-7B82C0699C2A";
shapes = (
{
closed = 1;
nodes = (
(479,362,l),
(488,396,l),
(148,396,l),
(139,362,l)
);
},
{
closed = 1;
nodes = (
(620,706,l),
(628,740,l),
(239,740,l),
(231,706,l)
);
},
{
closed = 1;
nodes = (
(438,0,l),
(447,34,l),
(52,34,l),
(43,0,l)
);
},
{
closed = 1;
nodes = (
(55,0,l),
(251,740,l),
(216,740,l),
(20,0,l)
);
},
{
closed = 1;
nodes = (
(337,818,l),
(455,931,l),
(514,818,l),
(550,818,l),
(475,956,l),
(438,956,l),
(291,818,l)
);
},
{
closed = 1;
nodes = (
(670,1089,l),
(634,1089,l),
(564,937,l),
(593,937,l)
);
}
);
width = 546;
}
);
leftKerningGroup = l;
rightKerningGroup = E;
unicode = 7870;
},
{
glyphname = Ecircumflexdotbelow;
layers = (
{
layerId = "75B83567-2B70-4CA3-ABBB-A798085DCD06";
shapes = (
{
closed = 1;
nodes = (
(542,296,l),
(585,454,l),
(181,454,l),
(139,296,l)
);
},
{
closed = 1;
nodes = (
(661,574,l),
(705,740,l),
(256,740,l),
(213,574,l)
);
},
{
closed = 1;
nodes = (
(514,0,l),
(557,166,l),
(104,166,l),
(60,0,l)
);
},
{
closed = 1;
nodes = (
(180,0,l),
(376,740,l),
(184,740,l),
(-13,0,l)
);
},
{
closed = 1;
nodes = (
(262,-260,o),
(300,-220,o),
(300,-171,cs),
(300,-121,o),
(262,-82,o),
(211,-82,cs),
(158,-82,o),
(122,-121,o),
(122,-171,cs),
(122,-220,o),
(158,-260,o),
(211,-260,cs)
);
},
{
closed = 1;
nodes = (
(392,799,l),
(482,885,l),
(527,799,l),
(658,799,l),
(566,958,l),
(419,958,l),
(241,799,l)
);
}
);
width = 631;
},
{
layerId = "96AFF54B-CDB9-40A8-9C60-2DEF28996F09";
shapes = (
{
closed = 1;
nodes = (
(503,334,l),
(525,420,l),
(212,420,l),
(190,334,l)
);
},
{
closed = 1;
nodes = (
(634,654,l),
(656,740,l),
(297,740,l),
(275,654,l)
);
},
{
closed = 1;
nodes = (
(465,0,l),
(488,86,l),
(124,86,l),
(101,0,l)
);
},
{
closed = 1;
nodes = (
(112,0,l),
(308,740,l),
(210,740,l),
(14,0,l)
);
},
{
closed = 1;
nodes = (
(287,-227,o),
(315,-198,o),
(315,-162,cs),
(315,-126,o),
(287,-97,o),
(250,-97,cs),
(212,-97,o),
(185,-126,o),
(185,-162,cs),
(185,-197,o),
(212,-227,o),
(250,-227,cs)
);
},
{
closed = 1;
nodes = (
(365,816,l),
(464,911,l),
(516,816,l),
(595,816,l),
(512,963,l),
(431,963,l),
(272,816,l)
);
}
);
width = 606;
},
{
layerId = "6FA1D1A9-9908-45CC-BE31-7B82C0699C2A";
shapes = (
{
closed = 1;
nodes = (
(479,362,l),
(488,396,l),
(148,396,l),
(139,362,l)
);
},
{
closed = 1;
nodes = (
(620,706,l),
(628,740,l),
(239,740,l),
(231,706,l)
);
},
{
closed = 1;
nodes = (
(438,0,l),
(447,34,l),
(52,34,l),
(43,0,l)
);
},
{
closed = 1;
nodes = (
(55,0,l),
(251,740,l),
(216,740,l),
(20,0,l)
);
},
{
closed = 1;
nodes = (
(183,-192,o),
(200,-175,o),
(200,-154,cs),
(200,-134,o),
(183,-117,o),
(162,-117,cs),
(141,-117,o),
(125,-134,o),
(125,-154,cs),
(125,-175,o),
(141,-192,o),
(162,-192,cs)
);
},
{
closed = 1;
nodes = (
(337,818,l),
(455,931,l),
(515,818,l),
(550,818,l),
(476,956,l),
(439,956,l),
(291,818,l)
);
}
);
width = 546;
}
);
leftKerningGroup = l;
rightKerningGroup = E;
unicode = 7878;
},
{
glyphname = Ecircumflexgrave;
layers = (
{
layerId = "75B83567-2B70-4CA3-ABBB-A798085DCD06";
shapes = (
{
closed = 1;
nodes = (
(542,296,l),
(585,454,l),
(181,454,l),
(139,296,l)
);
},
{
closed = 1;
nodes = (
(661,574,l),
(705,740,l),
(256,740,l),
(213,574,l)
);
},
{
closed = 1;
nodes = (
(514,0,l),
(557,166,l),
(104,166,l),
(60,0,l)
);
},
{
closed = 1;
nodes = (
(180,0,l),
(376,740,l),
(184,740,l),
(-13,0,l)
);
},
{
closed = 1;
nodes = (
(392,799,l),
(482,885,l),
(527,799,l),
(658,799,l),
(566,958,l),
(419,958,l),
(241,799,l)
);
},
{
closed = 1;
nodes = (
(764,930,l),
(699,1109,l),
(536,1109,l),
(637,929,l)
);
}
);
width = 631;
},
{
layerId = "96AFF54B-CDB9-40A8-9C60-2DEF28996F09";
shapes = (
{
closed = 1;
nodes = (
(503,334,l),
(525,420,l),
(212,420,l),
(190,334,l)
);
},
{
closed = 1;
nodes = (
(634,654,l),
(656,740,l),
(297,740,l),
(275,654,l)
);
},
{
closed = 1;
nodes = (
(465,0,l),
(488,86,l),
(124,86,l),
(101,0,l)
);
},
{
closed = 1;
nodes = (
(112,0,l),
(308,740,l),
(210,740,l),
(14,0,l)
);
},
{
closed = 1;
nodes = (
(378,816,l),
(476,911,l),
(529,816,l),
(607,816,l),
(525,963,l),
(444,963,l),
(284,816,l)
);
},
{
closed = 1;
nodes = (
(678,945,l),
(617,1125,l),
(525,1125,l),
(603,944,l)
);
}
);
width = 606;
},
{
layerId = "6FA1D1A9-9908-45CC-BE31-7B82C0699C2A";
shapes = (
{
closed = 1;
nodes = (
(479,362,l),
(488,396,l),
(148,396,l),
(139,362,l)
);
},
{
closed = 1;
nodes = (
(620,706,l),
(628,740,l),
(239,740,l),
(231,706,l)
);
},
{
closed = 1;
nodes = (
(438,0,l),
(447,34,l),
(52,34,l),
(43,0,l)
);
},
{
closed = 1;
nodes = (
(55,0,l),
(251,740,l),
(216,740,l),
(20,0,l)
);
},
{
closed = 1;
nodes = (
(337,818,l),
(455,931,l),
(515,818,l),
(550,818,l),
(476,956,l),
(439,956,l),
(291,818,l)
);
},
{
closed = 1;
nodes = (
(591,937,l),
(546,1089,l),
(512,1089,l),
(564,937,l)
);
}
);
width = 546;
}
);
leftKerningGroup = l;
rightKerningGroup = E;
unicode = 7872;
},
{
glyphname = Ecircumflexhookabove;
layers = (
{
layerId = "75B83567-2B70-4CA3-ABBB-A798085DCD06";
shapes = (
{
closed = 1;
nodes = (
(542,296,l),
(585,454,l),
(181,454,l),
(139,296,l)
);
},
{
closed = 1;
nodes = (
(661,574,l),
(705,740,l),
(256,740,l),
(213,574,l)
);
},
{
closed = 1;
nodes = (
(514,0,l),
(557,166,l),
(104,166,l),
(60,0,l)
);
},
{
closed = 1;
nodes = (
(180,0,l),
(376,740,l),
(184,740,l),
(-13,0,l)
);
},
{
closed = 1;
nodes = (
(394,799,l),
(483,885,l),
(529,799,l),
(660,799,l),
(567,958,l),
(420,958,l),
(243,799,l)
);
},
{
closed = 1;
nodes = (
(726,907,l),
(746,978,l),
(690,913,l),
(739,937,ls),
(766,950,o),
(857,981,o),
(857,1058,cs),
(857,1110,o),
(811,1158,o),
(730,1158,cs),
(567,1158,o),
(572,1021,o),
(572,1035,c),
(673,1035,l),
(673,1035,o),
(675,1069,o),
(714,1069,cs),
(734,1069,o),
(745,1057,o),
(745,1043,cs),
(745,1026,o),
(730,1012,o),
(691,995,cs),
(673,987,ls),
(648,976,o),
(637,959,o),
(632,940,cs),
(624,907,l)
);
}
);
width = 631;
},
{
layerId = "96AFF54B-CDB9-40A8-9C60-2DEF28996F09";
shapes = (
{
closed = 1;
nodes = (
(503,334,l),
(525,420,l),
(212,420,l),
(190,334,l)
);
},
{
closed = 1;
nodes = (
(634,654,l),
(656,740,l),
(297,740,l),
(275,654,l)
);
},
{
closed = 1;
nodes = (
(465,0,l),
(488,86,l),
(124,86,l),
(101,0,l)
);
},
{
closed = 1;
nodes = (
(112,0,l),
(308,740,l),
(210,740,l),
(14,0,l)
);
},
{
closed = 1;
nodes = (
(365,816,l),
(464,911,l),
(516,816,l),
(595,816,l),
(512,963,l),
(431,963,l),
(272,816,l)
);
},
{
closed = 1;
nodes = (
(641,928,l),
(657,987,l),
(612,945,l),
(638,954,l),
(699,978,o),
(751,1005,o),
(751,1058,cs),
(751,1097,o),
(724,1142,o),
(652,1142,cs),
(543,1142,o),
(544,1036,o),
(544,1048,c),
(600,1048,l),
(600,1046,o),
(601,1091,o),
(651,1091,cs),
(678,1091,o),
(691,1075,o),
(691,1058,cs),
(691,1034,o),
(670,1017,o),
(631,1000,cs),
(616,993,ls),
(604,987,o),
(592,977,o),
(589,962,c),
(580,928,l)
);
}
);
width = 606;
},
{
layerId = "6FA1D1A9-9908-45CC-BE31-7B82C0699C2A";
shapes = (
{
closed = 1;
nodes = (
(479,362,l),
(488,396,l),
(148,396,l),
(139,362,l)
);
},
{
closed = 1;
nodes = (
(620,706,l),
(628,740,l),
(239,740,l),
(231,706,l)
);
},
{
closed = 1;
nodes = (
(438,0,l),
(447,34,l),
(52,34,l),
(43,0,l)
);
},
{
closed = 1;
nodes = (
(55,0,l),
(251,740,l),
(216,740,l),
(20,0,l)
);
},
{
closed = 1;
nodes = (
(337,818,l),
(455,931,l),
(515,818,l),
(550,818,l),
(476,956,l),
(439,956,l),
(291,818,l)
);
},
{
closed = 1;
nodes = (
(585,923,l),
(598,974,l),
(568,945,l),
(594,956,ls),
(654,981,o),
(691,1007,o),
(691,1048,cs),
(691,1080,o),
(670,1114,o),
(618,1114,cs),
(528,1114,o),
(528,1025,o),
(528,1037,c),
(557,1037,l),
(557,1031,o),
(558,1086,o),
(615,1086,cs),
(647,1086,o),
(661,1067,o),
(661,1048,cs),
(661,1021,o),
(640,1001,o),
(598,983,cs),
(583,977,ls),
(574,973,o),
(568,965,o),
(565,955,cs),
(557,923,l)
);
}
);
width = 546;
}
);
leftKerningGroup = l;
rightKerningGroup = E;
unicode = 7874;
},
{
glyphname = Ecircumflextilde;
layers = (
{
layerId = "75B83567-2B70-4CA3-ABBB-A798085DCD06";
shapes = (
{
closed = 1;
nodes = (
(542,296,l),
(585,454,l),
(181,454,l),
(139,296,l)
);
},
{
closed = 1;
nodes = (
(661,574,l),
(705,740,l),
(256,740,l),
(213,574,l)
);
},
{
closed = 1;
nodes = (
(514,0,l),
(557,166,l),
(104,166,l),
(60,0,l)
);
},
{
closed = 1;
nodes = (
(180,0,l),
(376,740,l),
(184,740,l),
(-13,0,l)
);
},
{
closed = 1;
nodes = (
(393,799,l),
(482,885,l),
(528,799,l),
(659,799,l),
(566,958,l),
(419,958,l),
(242,799,l)
);
},
{
closed = 1;
nodes = (
(678,992,o),
(705,1070,o),
(726,1151,c),
(633,1151,l),
(623,1116,o),
(612,1098,o),
(593,1098,cs),
(559,1098,o),
(531,1157,o),
(458,1157,cs),
(367,1157,o),
(341,1080,o),
(320,998,c),
(413,998,l),
(422,1032,o),
(434,1051,o),
(453,1051,cs),
(488,1051,o),
(515,992,o),
(588,992,cs)
);
}
);
width = 631;
},
{
layerId = "96AFF54B-CDB9-40A8-9C60-2DEF28996F09";
shapes = (
{
closed = 1;
nodes = (
(503,334,l),
(525,420,l),
(212,420,l),
(190,334,l)
);
},
{
closed = 1;
nodes = (
(634,654,l),
(656,740,l),
(297,740,l),
(275,654,l)
);
},
{
closed = 1;
nodes = (
(465,0,l),
(488,86,l),
(124,86,l),
(101,0,l)
);
},
{
closed = 1;
nodes = (
(112,0,l),
(308,740,l),
(210,740,l),
(14,0,l)
);
},
{
closed = 1;
nodes = (
(365,816,l),
(464,911,l),
(516,816,l),
(595,816,l),
(513,963,l),
(432,963,l),
(272,816,l)
);
},
{
closed = 1;
nodes = (
(618,1001,o),
(647,1051,o),
(666,1133,c),
(604,1133,l),
(596,1091,o),
(584,1068,o),
(562,1068,cs),
(525,1068,o),
(506,1138,o),
(436,1138,cs),
(376,1138,o),
(347,1089,o),
(328,1007,c),
(390,1007,l),
(398,1049,o),
(412,1073,o),
(433,1073,cs),
(471,1073,o),
(491,1001,o),
(559,1001,cs)
);
}
);
width = 606;
},
{
layerId = "6FA1D1A9-9908-45CC-BE31-7B82C0699C2A";
shapes = (
{
closed = 1;
nodes = (
(479,362,l),
(488,396,l),
(148,396,l),
(139,362,l)
);
},
{
closed = 1;
nodes = (
(620,706,l),
(628,740,l),
(239,740,l),
(231,706,l)
);
},
{
closed = 1;
nodes = (
(438,0,l),
(447,34,l),
(52,34,l),
(43,0,l)
);
},
{
closed = 1;
nodes = (
(55,0,l),
(251,740,l),
(216,740,l),
(20,0,l)
);
},
{
closed = 1;
nodes = (
(338,818,l),
(456,931,l),
(516,818,l),
(552,818,l),
(477,956,l),
(440,956,l),
(293,818,l)
);
},
{
closed = 1;
nodes = (
(573,996,o),
(600,1043,o),
(614,1101,c),
(583,1101,l),
(573,1052,o),
(554,1025,o),
(530,1025,cs),
(489,1025,o),
(491,1106,o),
(429,1106,cs),
(382,1106,o),
(353,1063,o),
(339,1001,c),
(370,1001,l),
(379,1045,o),
(399,1077,o),
(425,1077,cs),
(467,1077,o),
(467,996,o),
(527,996,cs)
);
}
);
width = 546;
}
);
leftKerningGroup = l;
rightKerningGroup = E;
unicode = 7876;
},
{
glyphname = Edieresis;
layers = (
{
layerId = "75B83567-2B70-4CA3-ABBB-A798085DCD06";
shapes = (
{
closed = 1;
nodes = (
(542,296,l),
(585,454,l),
(181,454,l),
(139,296,l)
);
},
{
closed = 1;
nodes = (
(661,574,l),
(705,740,l),
(256,740,l),
(213,574,l)
);
},
{
closed = 1;
nodes = (
(514,0,l),
(557,166,l),
(104,166,l),
(60,0,l)
);
},
{
closed = 1;
nodes = (
(180,0,l),
(376,740,l),
(184,740,l),
(-13,0,l)
);
},
{
closed = 1;
nodes = (
(665,788,o),
(708,832,o),
(708,885,cs),
(708,940,o),
(665,983,o),
(606,983,cs),
(546,983,o),
(504,940,o),
(504,885,cs),
(504,832,o),
(546,788,o),
(606,788,cs)
);
},
{
closed = 1;
nodes = (
(415,788,o),
(458,832,o),
(458,885,cs),
(458,940,o),
(415,983,o),
(356,983,cs),
(296,983,o),
(254,940,o),
(254,885,cs),
(254,832,o),
(296,788,o),
(356,788,cs)
);
}
);
width = 631;
},
{
layerId = "96AFF54B-CDB9-40A8-9C60-2DEF28996F09";
shapes = (
{
closed = 1;
nodes = (
(503,334,l),
(525,420,l),
(212,420,l),
(190,334,l)
);
},
{
closed = 1;
nodes = (
(634,654,l),
(656,740,l),
(297,740,l),
(275,654,l)
);
},
{
closed = 1;
nodes = (
(465,0,l),
(488,86,l),
(124,86,l),
(101,0,l)
);
},
{
closed = 1;
nodes = (
(112,0,l),
(308,740,l),
(210,740,l),
(14,0,l)
);
},
{
closed = 1;
nodes = (
(593,821,o),
(620,848,o),
(620,882,cs),
(620,916,o),
(593,944,o),
(558,944,cs),
(522,944,o),
(496,916,o),
(496,882,cs),
(496,849,o),
(522,821,o),
(558,821,cs)
);
},
{
closed = 1;
nodes = (
(403,821,o),
(430,848,o),
(430,882,cs),
(430,916,o),
(403,944,o),
(368,944,cs),
(332,944,o),
(306,916,o),
(306,882,cs),
(306,849,o),
(332,821,o),
(368,821,cs)
);
}
);
width = 606;
},
{
layerId = "6FA1D1A9-9908-45CC-BE31-7B82C0699C2A";
shapes = (
{
closed = 1;
nodes = (
(479,362,l),
(488,396,l),
(148,396,l),
(139,362,l)
);
},
{
closed = 1;
nodes = (
(620,706,l),
(628,740,l),
(239,740,l),
(231,706,l)
);
},
{
closed = 1;
nodes = (
(438,0,l),
(447,34,l),
(52,34,l),
(43,0,l)
);
},
{
closed = 1;
nodes = (
(55,0,l),
(251,740,l),
(216,740,l),
(20,0,l)
);
},
{
closed = 1;
nodes = (
(524,840,o),
(540,856,o),
(540,876,cs),
(540,895,o),
(524,912,o),
(504,912,cs),
(484,912,o),
(469,895,o),
(469,876,cs),
(469,856,o),
(484,840,o),
(504,840,cs)
);
},
{
closed = 1;
nodes = (
(385,840,o),
(401,856,o),
(401,876,cs),
(401,895,o),
(385,912,o),
(365,912,cs),
(345,912,o),
(330,895,o),
(330,876,cs),
(330,856,o),
(345,840,o),
(365,840,cs)
);
}
);
width = 546;
}
);
leftKerningGroup = l;
rightKerningGroup = E;
unicode = 203;
},
{
glyphname = Edotaccent;
layers = (
{
layerId = "75B83567-2B70-4CA3-ABBB-A798085DCD06";
shapes = (
{
closed = 1;
nodes = (
(542,296,l),
(585,454,l),
(181,454,l),
(139,296,l)
);
},
{
closed = 1;
nodes = (
(661,574,l),
(705,740,l),
(256,740,l),
(213,574,l)
);
},
{
closed = 1;
nodes = (
(514,0,l),
(557,166,l),
(104,166,l),
(60,0,l)
);
},
{
closed = 1;
nodes = (
(180,0,l),
(376,740,l),
(184,740,l),
(-13,0,l)
);
},
{
closed = 1;
nodes = (
(546,793,o),
(592,840,o),
(592,896,cs),
(592,954,o),
(546,1000,o),
(483,1000,cs),
(420,1000,o),
(375,954,o),
(375,896,cs),
(375,840,o),
(420,793,o),
(483,793,cs)
);
}
);
width = 631;
},
{
layerId = "96AFF54B-CDB9-40A8-9C60-2DEF28996F09";
shapes = (
{
closed = 1;
nodes = (
(503,334,l),
(525,420,l),
(212,420,l),
(190,334,l)
);
},
{
closed = 1;
nodes = (
(634,654,l),
(656,740,l),
(297,740,l),
(275,654,l)
);
},
{
closed = 1;
nodes = (
(465,0,l),
(488,86,l),
(124,86,l),
(101,0,l)
);
},
{
closed = 1;
nodes = (
(112,0,l),
(308,740,l),
(210,740,l),
(14,0,l)
);
},
{
closed = 1;
nodes = (
(503,835,o),
(530,862,o),
(530,896,cs),
(530,930,o),
(503,958,o),
(468,958,cs),
(432,958,o),
(406,930,o),
(406,896,cs),
(406,863,o),
(432,835,o),
(468,835,cs)
);
}
);
width = 606;
},
{
layerId = "6FA1D1A9-9908-45CC-BE31-7B82C0699C2A";
shapes = (
{
closed = 1;
nodes = (
(479,362,l),
(488,396,l),
(148,396,l),
(139,362,l)
);
},
{
closed = 1;
nodes = (
(620,706,l),
(628,740,l),
(239,740,l),
(231,706,l)
);
},
{
closed = 1;
nodes = (
(438,0,l),
(447,34,l),
(52,34,l),
(43,0,l)
);
},
{
closed = 1;
nodes = (
(55,0,l),
(251,740,l),
(216,740,l),
(20,0,l)
);
},
{
closed = 1;
nodes = (
(456,839,o),
(472,855,o),
(472,875,cs),
(472,894,o),
(456,911,o),
(436,911,cs),
(416,911,o),
(401,894,o),
(401,875,cs),
(401,855,o),
(416,839,o),
(436,839,cs)
);
}
);
width = 546;
}
);
leftKerningGroup = l;
rightKerningGroup = E;
unicode = 278;
},
{
glyphname = Edotbelow;
layers = (
{
layerId = "75B83567-2B70-4CA3-ABBB-A798085DCD06";
shapes = (
{
closed = 1;
nodes = (
(542,296,l),
(585,454,l),
(181,454,l),
(139,296,l)
);
},
{
closed = 1;
nodes = (
(661,574,l),
(705,740,l),
(256,740,l),
(213,574,l)
);
},
{
closed = 1;
nodes = (
(514,0,l),
(557,166,l),
(104,166,l),
(60,0,l)
);
},
{
closed = 1;
nodes = (
(180,0,l),
(376,740,l),
(184,740,l),
(-13,0,l)
);
},
{
closed = 1;
nodes = (
(262,-260,o),
(300,-220,o),
(300,-171,cs),
(300,-121,o),
(262,-82,o),
(211,-82,cs),
(158,-82,o),
(122,-121,o),
(122,-171,cs),
(122,-220,o),
(158,-260,o),
(211,-260,cs)
);
}
);
width = 631;
},
{
layerId = "96AFF54B-CDB9-40A8-9C60-2DEF28996F09";
shapes = (
{
closed = 1;
nodes = (
(503,334,l),
(525,420,l),
(212,420,l),
(190,334,l)
);
},
{
closed = 1;
nodes = (
(634,654,l),
(656,740,l),
(297,740,l),
(275,654,l)
);
},
{
closed = 1;
nodes = (
(465,0,l),
(488,86,l),
(124,86,l),
(101,0,l)
);
},
{
closed = 1;
nodes = (
(112,0,l),
(308,740,l),
(210,740,l),
(14,0,l)
);
},
{
closed = 1;
nodes = (
(287,-227,o),
(315,-198,o),
(315,-162,cs),
(315,-126,o),
(287,-97,o),
(250,-97,cs),
(212,-97,o),
(185,-126,o),
(185,-162,cs),
(185,-197,o),
(212,-227,o),
(250,-227,cs)
);
}
);
width = 606;
},
{
layerId = "6FA1D1A9-9908-45CC-BE31-7B82C0699C2A";
shapes = (
{
closed = 1;
nodes = (
(479,362,l),
(488,396,l),
(148,396,l),
(139,362,l)
);
},
{
closed = 1;
nodes = (
(620,706,l),
(628,740,l),
(239,740,l),
(231,706,l)
);
},
{
closed = 1;
nodes = (
(438,0,l),
(447,34,l),
(52,34,l),
(43,0,l)
);
},
{
closed = 1;
nodes = (
(55,0,l),
(251,740,l),
(216,740,l),
(20,0,l)
);
},
{
closed = 1;
nodes = (
(183,-192,o),
(200,-175,o),
(200,-154,cs),
(200,-134,o),
(183,-117,o),
(162,-117,cs),
(141,-117,o),
(125,-134,o),
(125,-154,cs),
(125,-175,o),
(141,-192,o),
(162,-192,cs)
);
}
);
width = 546;
}
);
leftKerningGroup = l;
rightKerningGroup = E;
unicode = 7864;
},
{
glyphname = Egrave;
layers = (
{
layerId = "75B83567-2B70-4CA3-ABBB-A798085DCD06";
shapes = (
{
closed = 1;
nodes = (
(542,296,l),
(585,454,l),
(181,454,l),
(139,296,l)
);
},
{
closed = 1;
nodes = (
(661,574,l),
(705,740,l),
(256,740,l),
(213,574,l)
);
},
{
closed = 1;
nodes = (
(514,0,l),
(557,166,l),
(104,166,l),
(60,0,l)
);
},
{
closed = 1;
nodes = (
(180,0,l),
(376,740,l),
(184,740,l),
(-13,0,l)
);
},
{
closed = 1;
nodes = (
(511,810,l),
(447,989,l),
(283,989,l),
(384,809,l)
);
}
);
width = 631;
},
{
layerId = "96AFF54B-CDB9-40A8-9C60-2DEF28996F09";
shapes = (
{
closed = 1;
nodes = (
(503,334,l),
(525,420,l),
(212,420,l),
(190,334,l)
);
},
{
closed = 1;
nodes = (
(634,654,l),
(656,740,l),
(297,740,l),
(275,654,l)
);
},
{
closed = 1;
nodes = (
(465,0,l),
(488,86,l),
(124,86,l),
(101,0,l)
);
},
{
closed = 1;
nodes = (
(112,0,l),
(308,740,l),
(210,740,l),
(14,0,l)
);
},
{
closed = 1;
nodes = (
(470,821,l),
(409,1001,l),
(317,1001,l),
(395,820,l)
);
}
);
width = 606;
},
{
layerId = "6FA1D1A9-9908-45CC-BE31-7B82C0699C2A";
shapes = (
{
closed = 1;
nodes = (
(479,362,l),
(488,396,l),
(148,396,l),
(139,362,l)
);
},
{
closed = 1;
nodes = (
(620,706,l),
(628,740,l),
(239,740,l),
(231,706,l)
);
},
{
closed = 1;
nodes = (
(438,0,l),
(447,34,l),
(52,34,l),
(43,0,l)
);
},
{
closed = 1;
nodes = (
(55,0,l),
(251,740,l),
(216,740,l),
(20,0,l)
);
},
{
closed = 1;
nodes = (
(431,828,l),
(386,980,l),
(351,980,l),
(403,828,l)
);
}
);
width = 546;
}
);
leftKerningGroup = l;
rightKerningGroup = E;
unicode = 200;
},
{
glyphname = Ehookabove;
layers = (
{
layerId = "75B83567-2B70-4CA3-ABBB-A798085DCD06";
shapes = (
{
closed = 1;
nodes = (
(542,296,l),
(585,454,l),
(181,454,l),
(139,296,l)
);
},
{
closed = 1;
nodes = (
(661,574,l),
(705,740,l),
(256,740,l),
(213,574,l)
);
},
{
closed = 1;
nodes = (
(514,0,l),
(557,166,l),
(104,166,l),
(60,0,l)
);
},
{
closed = 1;
nodes = (
(180,0,l),
(376,740,l),
(184,740,l),
(-13,0,l)
);
},
{
closed = 1;
nodes = (
(503,795,l),
(523,866,l),
(467,801,l),
(516,825,ls),
(543,838,o),
(634,869,o),
(634,946,cs),
(634,998,o),
(588,1046,o),
(507,1046,cs),
(344,1046,o),
(349,909,o),
(349,923,c),
(450,923,l),
(450,923,o),
(452,957,o),
(491,957,cs),
(511,957,o),
(522,945,o),
(522,931,cs),
(522,914,o),
(507,900,o),
(468,883,cs),
(450,875,ls),
(425,864,o),
(414,847,o),
(409,828,cs),
(401,795,l)
);
}
);
width = 631;
},
{
layerId = "96AFF54B-CDB9-40A8-9C60-2DEF28996F09";
shapes = (
{
closed = 1;
nodes = (
(503,334,l),
(525,420,l),
(212,420,l),
(190,334,l)
);
},
{
closed = 1;
nodes = (
(634,654,l),
(656,740,l),
(297,740,l),
(275,654,l)
);
},
{
closed = 1;
nodes = (
(465,0,l),
(488,86,l),
(124,86,l),
(101,0,l)
);
},
{
closed = 1;
nodes = (
(112,0,l),
(308,740,l),
(210,740,l),
(14,0,l)
);
},
{
closed = 1;
nodes = (
(468,804,l),
(484,863,l),
(439,821,l),
(465,830,l),
(526,854,o),
(578,881,o),
(578,934,cs),
(578,973,o),
(551,1018,o),
(479,1018,cs),
(370,1018,o),
(371,912,o),
(371,924,c),
(427,924,l),
(427,922,o),
(428,967,o),
(478,967,cs),
(505,967,o),
(518,951,o),
(518,934,cs),
(518,910,o),
(497,893,o),
(458,876,cs),
(443,869,ls),
(431,863,o),
(419,853,o),
(416,838,c),
(407,804,l)
);
}
);
width = 606;
},
{
layerId = "6FA1D1A9-9908-45CC-BE31-7B82C0699C2A";
shapes = (
{
closed = 1;
nodes = (
(479,362,l),
(488,396,l),
(148,396,l),
(139,362,l)
);
},
{
closed = 1;
nodes = (
(620,706,l),
(628,740,l),
(239,740,l),
(231,706,l)
);
},
{
closed = 1;
nodes = (
(438,0,l),
(447,34,l),
(52,34,l),
(43,0,l)
);
},
{
closed = 1;
nodes = (
(55,0,l),
(251,740,l),
(216,740,l),
(20,0,l)
);
},
{
closed = 1;
nodes = (
(423,814,l),
(436,865,l),
(406,836,l),
(432,847,ls),
(492,872,o),
(529,898,o),
(529,939,cs),
(529,971,o),
(508,1005,o),
(456,1005,cs),
(366,1005,o),
(366,916,o),
(366,928,c),
(395,928,l),
(395,922,o),
(396,977,o),
(453,977,cs),
(485,977,o),
(499,958,o),
(499,939,cs),
(499,912,o),
(478,892,o),
(436,874,cs),
(421,868,ls),
(412,864,o),
(406,856,o),
(403,846,cs),
(395,814,l)
);
}
);
width = 546;
}
);
leftKerningGroup = l;
rightKerningGroup = E;
unicode = 7866;
},
{
glyphname = Emacron;
layers = (
{
layerId = "75B83567-2B70-4CA3-ABBB-A798085DCD06";
shapes = (
{
closed = 1;
nodes = (
(542,296,l),
(585,454,l),
(181,454,l),
(139,296,l)
);
},
{
closed = 1;
nodes = (
(661,574,l),
(705,740,l),
(256,740,l),
(213,574,l)
);
},
{
closed = 1;
nodes = (
(514,0,l),
(557,166,l),
(104,166,l),
(60,0,l)
);
},
{
closed = 1;
nodes = (
(180,0,l),
(376,740,l),
(184,740,l),
(-13,0,l)
);
},
{
closed = 1;
nodes = (
(632,824,l),
(659,926,l),
(319,926,l),
(292,824,l)
);
}
);
width = 631;
},
{
layerId = "96AFF54B-CDB9-40A8-9C60-2DEF28996F09";
shapes = (
{
closed = 1;
nodes = (
(503,334,l),
(525,420,l),
(212,420,l),
(190,334,l)
);
},
{
closed = 1;
nodes = (
(634,654,l),
(656,740,l),
(297,740,l),
(275,654,l)
);
},
{
closed = 1;
nodes = (
(465,0,l),
(488,86,l),
(124,86,l),
(101,0,l)
);
},
{
closed = 1;
nodes = (
(112,0,l),
(308,740,l),
(210,740,l),
(14,0,l)
);
},
{
closed = 1;
nodes = (
(606,855,l),
(626,927,l),
(322,927,l),
(302,855,l)
);
}
);
width = 606;
},
{
layerId = "6FA1D1A9-9908-45CC-BE31-7B82C0699C2A";
shapes = (
{
closed = 1;
nodes = (
(479,362,l),
(488,396,l),
(148,396,l),
(139,362,l)
);
},
{
closed = 1;
nodes = (
(620,706,l),
(628,740,l),
(239,740,l),
(231,706,l)
);
},
{
closed = 1;
nodes = (
(438,0,l),
(447,34,l),
(52,34,l),
(43,0,l)
);
},
{
closed = 1;
nodes = (
(55,0,l),
(251,740,l),
(216,740,l),
(20,0,l)
);
},
{
closed = 1;
nodes = (
(567,842,l),
(574,872,l),
(294,872,l),
(287,842,l)
);
}
);
width = 546;
}
);
leftKerningGroup = l;
rightKerningGroup = E;
unicode = 274;
},
{
glyphname = Eogonek;
layers = (
{
layerId = "75B83567-2B70-4CA3-ABBB-A798085DCD06";
shapes = (
{
closed = 1;
nodes = (
(542,296,l),
(585,454,l),
(181,454,l),
(139,296,l)
);
},
{
closed = 1;
nodes = (
(661,574,l),
(705,740,l),
(256,740,l),
(213,574,l)
);
},
{
closed = 1;
nodes = (
(514,0,l),
(557,166,l),
(104,166,l),
(60,0,l)
);
},
{
closed = 1;
nodes = (
(180,0,l),
(376,740,l),
(184,740,l),
(-13,0,l)
);
},
{
closed = 1;
nodes = (
(476,-194,o),
(499,-189,o),
(499,-189,c),
(525,-87,l),
(525,-87,o),
(508,-90,o),
(493,-90,cs),
(461,-90,o),
(448,-78,o),
(448,-61,cs),
(448,-25,o),
(514,0,o),
(514,0,c),
(462,29,l),
(462,29,o),
(307,2,o),
(307,-102,cs),
(307,-157,o),
(350,-194,o),
(443,-194,cs)
);
}
);
width = 631;
},
{
layerId = "96AFF54B-CDB9-40A8-9C60-2DEF28996F09";
shapes = (
{
closed = 1;
nodes = (
(503,334,l),
(525,420,l),
(212,420,l),
(190,334,l)
);
},
{
closed = 1;
nodes = (
(634,654,l),
(656,740,l),
(297,740,l),
(275,654,l)
);
},
{
closed = 1;
nodes = (
(465,0,l),
(488,86,l),
(124,86,l),
(101,0,l)
);
},
{
closed = 1;
nodes = (
(112,0,l),
(308,740,l),
(210,740,l),
(14,0,l)
);
},
{
closed = 1;
nodes = (
(443,-166,o),
(461,-160,o),
(461,-160,c),
(476,-104,l),
(476,-104,o),
(457,-109,o),
(439,-109,cs),
(406,-109,o),
(391,-96,o),
(391,-74,cs),
(391,-26,o),
(465,0,o),
(465,0,c),
(435,19,l),
(435,19,o),
(319,-10,o),
(319,-93,cs),
(319,-138,o),
(354,-166,o),
(416,-166,cs)
);
}
);
width = 606;
},
{
layerId = "6FA1D1A9-9908-45CC-BE31-7B82C0699C2A";
shapes = (
{
closed = 1;
nodes = (
(479,362,l),
(488,396,l),
(148,396,l),
(139,362,l)
);
},
{
closed = 1;
nodes = (
(620,706,l),
(628,740,l),
(239,740,l),
(231,706,l)
);
},
{
closed = 1;
nodes = (
(438,0,l),
(447,34,l),
(52,34,l),
(43,0,l)
);
},
{
closed = 1;
nodes = (
(55,0,l),
(251,740,l),
(216,740,l),
(20,0,l)
);
},
{
closed = 1;
nodes = (
(427,-149,o),
(443,-143,o),
(443,-143,c),
(451,-115,l),
(451,-115,o),
(430,-120,o),
(410,-120,cs),
(376,-120,o),
(359,-108,o),
(359,-82,cs),
(359,-27,o),
(438,0,o),
(438,0,c),
(421,12,l),
(421,12,o),
(327,-16,o),
(327,-86,cs),
(327,-127,o),
(357,-149,o),
(403,-149,cs)
);
}
);
width = 546;
}
);
leftKerningGroup = l;
rightKerningGroup = E;
unicode = 280;
},
{
glyphname = Etilde;
layers = (
{
layerId = "75B83567-2B70-4CA3-ABBB-A798085DCD06";
shapes = (
{
closed = 1;
nodes = (
(542,296,l),
(585,454,l),
(181,454,l),
(139,296,l)
);
},
{
closed = 1;
nodes = (
(661,574,l),
(705,740,l),
(256,740,l),
(213,574,l)
);
},
{
closed = 1;
nodes = (
(514,0,l),
(557,166,l),
(104,166,l),
(60,0,l)
);
},
{
closed = 1;
nodes = (
(180,0,l),
(376,740,l),
(184,740,l),
(-13,0,l)
);
},
{
closed = 1;
nodes = (
(645,822,o),
(672,900,o),
(693,981,c),
(600,981,l),
(590,946,o),
(579,928,o),
(560,928,cs),
(526,928,o),
(498,987,o),
(425,987,cs),
(334,987,o),
(308,910,o),
(287,828,c),
(380,828,l),
(388,862,o),
(401,881,o),
(419,881,cs),
(454,881,o),
(482,822,o),
(555,822,cs)
);
}
);
width = 631;
},
{
layerId = "96AFF54B-CDB9-40A8-9C60-2DEF28996F09";
shapes = (
{
closed = 1;
nodes = (
(503,334,l),
(525,420,l),
(212,420,l),
(190,334,l)
);
},
{
closed = 1;
nodes = (
(634,654,l),
(656,740,l),
(297,740,l),
(275,654,l)
);
},
{
closed = 1;
nodes = (
(465,0,l),
(488,86,l),
(124,86,l),
(101,0,l)
);
},
{
closed = 1;
nodes = (
(112,0,l),
(308,740,l),
(210,740,l),
(14,0,l)
);
},
{
closed = 1;
nodes = (
(589,826,o),
(618,876,o),
(637,958,c),
(576,958,l),
(567,916,o),
(556,893,o),
(533,893,cs),
(496,893,o),
(477,963,o),
(407,963,cs),
(347,963,o),
(318,914,o),
(299,832,c),
(361,832,l),
(370,874,o),
(384,898,o),
(404,898,cs),
(442,898,o),
(462,826,o),
(531,826,cs)
);
}
);
width = 606;
},
{
layerId = "6FA1D1A9-9908-45CC-BE31-7B82C0699C2A";
shapes = (
{
closed = 1;
nodes = (
(479,362,l),
(488,396,l),
(148,396,l),
(139,362,l)
);
},
{
closed = 1;
nodes = (
(620,706,l),
(628,740,l),
(239,740,l),
(231,706,l)
);
},
{
closed = 1;
nodes = (
(438,0,l),
(447,34,l),
(52,34,l),
(43,0,l)
);
},
{
closed = 1;
nodes = (
(55,0,l),
(251,740,l),
(216,740,l),
(20,0,l)
);
},
{
closed = 1;
nodes = (
(534,831,o),
(562,878,o),
(575,936,c),
(544,936,l),
(534,887,o),
(515,860,o),
(492,860,cs),
(450,860,o),
(453,941,o),
(390,941,cs),
(343,941,o),
(314,898,o),
(300,836,c),
(331,836,l),
(340,880,o),
(360,912,o),
(386,912,cs),
(428,912,o),
(428,831,o),
(488,831,cs)
);
}
);
width = 546;
}
);
leftKerningGroup = l;
rightKerningGroup = E;
unicode = 7868;
},
{
glyphname = F;
leftMetricsKey = l;
rightMetricsKey = E;
layers = (
{
layerId = "75B83567-2B70-4CA3-ABBB-A798085DCD06";
shapes = (
{
closed = 1;
nodes = (
(545,255,l),
(587,414,l),
(171,414,l),
(129,255,l)
);
},
{
closed = 1;
nodes = (
(675,574,l),
(719,740,l),
(258,740,l),
(214,574,l)
);
},
{
closed = 1;
nodes = (
(181,0,l),
(377,740,l),
(185,740,l),
(-11,0,l)
);
}
);
width = 629;
},
{
layerId = "96AFF54B-CDB9-40A8-9C60-2DEF28996F09";
shapes = (
{
closed = 1;
nodes = (
(508,324,l),
(531,410,l),
(220,410,l),
(198,324,l)
);
},
{
closed = 1;
nodes = (
(642,654,l),
(664,740,l),
(308,740,l),
(285,654,l)
);
},
{
closed = 1;
nodes = (
(114,0,l),
(310,740,l),
(212,740,l),
(16,0,l)
);
}
);
width = 609;
},
{
layerId = "6FA1D1A9-9908-45CC-BE31-7B82C0699C2A";
shapes = (
{
closed = 1;
nodes = (
(488,352,l),
(497,386,l),
(157,386,l),
(148,352,l)
);
},
{
closed = 1;
nodes = (
(631,706,l),
(640,740,l),
(251,740,l),
(242,706,l)
);
},
{
closed = 1;
nodes = (
(57,0,l),
(254,740,l),
(219,740,l),
(22,0,l)
);
}
);
width = 550;
}
);
leftKerningGroup = l;
rightKerningGroup = F;
unicode = 70;
},
{
glyphname = G;
leftMetricsKey = O;
layers = (
{
anchors = (
{
name = bottom;
position = "{318, 0}";
},
{
name = top;
position = "{504, 740}";
}
);
layerId = "75B83567-2B70-4CA3-ABBB-A798085DCD06";
shapes = (
{
closed = 1;
nodes = (
(572,-10,o),
(739,87,o),
(780,354,cs),
(789,409,l),
(440,409,l),
(400,261,l),
(620,261,l),
(586,381,l),
(583,356,ls),
(567,213,o),
(504,162,o),
(411,162,cs),
(305,162,o),
(256,238,o),
(256,330,cs),
(256,443,o),
(332,580,o),
(477,580,cs),
(605,580,o),
(603,470,o),
(603,470,c),
(793,470,l),
(793,470,o),
(802,750,o),
(493,750,cs),
(209,750,o),
(63,515,o),
(63,312,cs),
(63,135,o),
(172,-10,o),
(388,-10,cs)
);
}
);
width = 790;
},
{
anchors = (
{
name = bottom;
position = "{300, 0}";
},
{
name = top;
position = "{483, 740}";
}
);
layerId = "96AFF54B-CDB9-40A8-9C60-2DEF28996F09";
shapes = (
{
closed = 1;
nodes = (
(559,-10,o),
(682,140,o),
(714,329,cs),
(723,383,l),
(423,383,l),
(401,304,l),
(651,304,l),
(619,364,l),
(615,337,ls),
(595,200,o),
(509,79,o),
(366,79,cs),
(222,79,o),
(159,187,o),
(159,311,cs),
(159,474,o),
(265,662,o),
(463,662,cs),
(650,662,o),
(638,491,o),
(638,491,c),
(735,491,l),
(735,491,o),
(750,750,o),
(470,750,cs),
(203,750,o),
(60,512,o),
(60,303,cs),
(60,134,o),
(155,-10,o),
(356,-10,cs)
);
}
);
width = 748;
},
{
anchors = (
{
name = bottom;
position = "{310, 0}";
},
{
name = top;
position = "{479, 740}";
}
);
layerId = "6FA1D1A9-9908-45CC-BE31-7B82C0699C2A";
shapes = (
{
closed = 1;
nodes = (
(550,-10,o),
(652,161,o),
(682,313,cs),
(692,366,l),
(427,366,l),
(418,333,l),
(682,333,l),
(654,354,l),
(649,327,ls),
(623,181,o),
(528,24,o),
(348,24,cs),
(179,24,o),
(108,152,o),
(108,299,cs),
(108,493,o),
(233,716,o),
(467,716,cs),
(691,716,o),
(671,503,o),
(671,503,c),
(707,503,l),
(707,503,o),
(727,750,o),
(470,750,cs),
(210,750,o),
(72,509,o),
(72,298,cs),
(72,134,o),
(155,-10,o),
(348,-10,cs)
);
}
);
width = 759;
}
);
leftKerningGroup = O;
rightKerningGroup = G;
unicode = 71;
},
{
glyphname = Gbreve;
layers = (
{
layerId = "75B83567-2B70-4CA3-ABBB-A798085DCD06";
shapes = (
{
closed = 1;
nodes = (
(572,-10,o),
(739,87,o),
(780,354,cs),
(789,409,l),
(440,409,l),
(400,261,l),
(620,261,l),
(586,381,l),
(583,356,ls),
(567,213,o),
(504,162,o),
(411,162,cs),
(305,162,o),
(256,238,o),
(256,330,cs),
(256,443,o),
(332,580,o),
(477,580,cs),
(605,580,o),
(603,470,o),
(603,470,c),
(793,470,l),
(793,470,o),
(802,750,o),
(493,750,cs),
(209,750,o),
(63,515,o),
(63,312,cs),
(63,135,o),
(172,-10,o),
(388,-10,cs)
);
},
{
closed = 1;
nodes = (
(739,802,o),
(764,988,o),
(764,988,c),
(645,988,l),
(645,988,o),
(622,907,o),
(549,907,cs),
(475,907,o),
(495,988,o),
(495,988,c),
(376,988,l),
(376,988,o),
(339,802,o),
(539,802,cs)
);
}
);
width = 790;
},
{
layerId = "96AFF54B-CDB9-40A8-9C60-2DEF28996F09";
shapes = (
{
closed = 1;
nodes = (
(558,-10,o),
(681,140,o),
(713,329,cs),
(722,383,l),
(422,383,l),
(400,304,l),
(650,304,l),
(618,364,l),
(614,337,ls),
(594,200,o),
(508,79,o),
(365,79,cs),
(221,79,o),
(158,187,o),
(158,311,cs),
(158,474,o),
(264,662,o),
(462,662,cs),
(649,662,o),
(637,491,o),
(637,491,c),
(734,491,l),
(734,491,o),
(749,750,o),
(469,750,cs),
(202,750,o),
(59,512,o),
(59,303,cs),
(59,134,o),
(154,-10,o),
(355,-10,cs)
);
},
{
closed = 1;
nodes = (
(678,815,o),
(702,967,o),
(702,967,c),
(631,967,l),
(631,967,o),
(606,879,o),
(518,879,cs),
(434,879,o),
(453,967,o),
(453,967,c),
(382,967,l),
(382,967,o),
(357,815,o),
(518,815,cs)
);
}
);
width = 747;
},
{
layerId = "6FA1D1A9-9908-45CC-BE31-7B82C0699C2A";
shapes = (
{
closed = 1;
nodes = (
(550,-10,o),
(652,161,o),
(682,313,cs),
(692,366,l),
(427,366,l),
(418,333,l),
(682,333,l),
(654,354,l),
(649,327,ls),
(623,181,o),
(527,24,o),
(347,24,cs),
(179,24,o),
(108,152,o),
(108,299,cs),
(108,493,o),
(233,716,o),
(467,716,cs),
(691,716,o),
(671,503,o),
(671,503,c),
(707,503,l),
(707,503,o),
(727,750,o),
(470,750,cs),
(209,750,o),
(71,509,o),
(71,298,cs),
(71,134,o),
(154,-10,o),
(347,-10,cs)
);
},
{
closed = 1;
nodes = (
(640,823,o),
(669,953,o),
(669,953,c),
(637,953,l),
(637,953,o),
(608,853,o),
(508,853,cs),
(407,853,o),
(433,953,o),
(433,953,c),
(401,953,l),
(401,953,o),
(376,823,o),
(508,823,cs)
);
}
);
width = 758;
}
);
leftKerningGroup = O;
rightKerningGroup = G;
unicode = 286;
},
{
glyphname = Gcaron;
layers = (
{
layerId = "75B83567-2B70-4CA3-ABBB-A798085DCD06";
shapes = (
{
closed = 1;
nodes = (
(572,-10,o),
(739,87,o),
(780,354,cs),
(789,409,l),
(440,409,l),
(400,261,l),
(620,261,l),
(586,381,l),
(583,356,ls),
(567,213,o),
(504,162,o),
(411,162,cs),
(305,162,o),
(256,238,o),
(256,330,cs),
(256,443,o),
(332,580,o),
(477,580,cs),
(605,580,o),
(603,470,o),
(603,470,c),
(793,470,l),
(793,470,o),
(802,750,o),
(493,750,cs),
(209,750,o),
(63,515,o),
(63,312,cs),
(63,135,o),
(172,-10,o),
(388,-10,cs)
);
},
{
closed = 1;
nodes = (
(598,800,l),
(783,989,l),
(634,989,l),
(507,854,l),
(554,845,l),
(499,989,l),
(366,989,l),
(451,800,l)
);
}
);
width = 790;
},
{
layerId = "96AFF54B-CDB9-40A8-9C60-2DEF28996F09";
shapes = (
{
closed = 1;
nodes = (
(558,-10,o),
(681,140,o),
(713,329,cs),
(722,383,l),
(422,383,l),
(400,304,l),
(650,304,l),
(618,364,l),
(614,337,ls),
(594,200,o),
(508,79,o),
(365,79,cs),
(221,79,o),
(158,187,o),
(158,311,cs),
(158,474,o),
(264,662,o),
(462,662,cs),
(649,662,o),
(637,491,o),
(637,491,c),
(734,491,l),
(734,491,o),
(749,750,o),
(469,750,cs),
(202,750,o),
(59,512,o),
(59,303,cs),
(59,134,o),
(154,-10,o),
(355,-10,cs)
);
},
{
closed = 1;
nodes = (
(537,818,l),
(701,985,l),
(608,985,l),
(473,846,l),
(523,837,l),
(457,985,l),
(378,985,l),
(456,818,l)
);
}
);
width = 747;
},
{
layerId = "6FA1D1A9-9908-45CC-BE31-7B82C0699C2A";
shapes = (
{
closed = 1;
nodes = (
(550,-10,o),
(652,161,o),
(682,313,cs),
(692,366,l),
(427,366,l),
(418,333,l),
(682,333,l),
(654,354,l),
(649,327,ls),
(623,181,o),
(527,24,o),
(347,24,cs),
(179,24,o),
(108,152,o),
(108,299,cs),
(108,493,o),
(233,716,o),
(467,716,cs),
(691,716,o),
(671,503,o),
(671,503,c),
(707,503,l),
(707,503,o),
(727,750,o),
(470,750,cs),
(209,750,o),
(71,509,o),
(71,298,cs),
(71,134,o),
(154,-10,o),
(347,-10,cs)
);
},
{
closed = 1;
nodes = (
(510,818,l),
(661,970,l),
(617,970,l),
(483,832,l),
(500,832,l),
(438,970,l),
(402,970,l),
(473,818,l)
);
}
);
width = 758;
}
);
leftKerningGroup = O;
rightKerningGroup = G;
unicode = 486;
},
{
glyphname = Gdotaccent;
layers = (
{
layerId = "75B83567-2B70-4CA3-ABBB-A798085DCD06";
shapes = (
{
closed = 1;
nodes = (
(572,-10,o),
(739,87,o),
(780,354,cs),
(789,409,l),
(440,409,l),
(400,261,l),
(620,261,l),
(586,381,l),
(583,356,ls),
(567,213,o),
(504,162,o),
(411,162,cs),
(305,162,o),
(256,238,o),
(256,330,cs),
(256,443,o),
(332,580,o),
(477,580,cs),
(605,580,o),
(603,470,o),
(603,470,c),
(793,470,l),
(793,470,o),
(802,750,o),
(493,750,cs),
(209,750,o),
(63,515,o),
(63,312,cs),
(63,135,o),
(172,-10,o),
(388,-10,cs)
);
},
{
closed = 1;
nodes = (
(608,793,o),
(654,840,o),
(654,896,cs),
(654,954,o),
(608,1000,o),
(545,1000,cs),
(482,1000,o),
(437,954,o),
(437,896,cs),
(437,840,o),
(482,793,o),
(545,793,cs)
);
}
);
width = 790;
},
{
layerId = "96AFF54B-CDB9-40A8-9C60-2DEF28996F09";
shapes = (
{
closed = 1;
nodes = (
(558,-10,o),
(681,140,o),
(713,329,cs),
(722,383,l),
(422,383,l),
(400,304,l),
(650,304,l),
(618,364,l),
(614,337,ls),
(594,200,o),
(508,79,o),
(365,79,cs),
(221,79,o),
(158,187,o),
(158,311,cs),
(158,474,o),
(264,662,o),
(462,662,cs),
(649,662,o),
(637,491,o),
(637,491,c),
(734,491,l),
(734,491,o),
(749,750,o),
(469,750,cs),
(202,750,o),
(59,512,o),
(59,303,cs),
(59,134,o),
(154,-10,o),
(355,-10,cs)
);
},
{
closed = 1;
nodes = (
(559,835,o),
(586,862,o),
(586,896,cs),
(586,930,o),
(559,958,o),
(524,958,cs),
(488,958,o),
(462,930,o),
(462,896,cs),
(462,863,o),
(488,835,o),
(524,835,cs)
);
}
);
width = 747;
},
{
layerId = "6FA1D1A9-9908-45CC-BE31-7B82C0699C2A";
shapes = (
{
closed = 1;
nodes = (
(550,-10,o),
(652,161,o),
(682,313,cs),
(692,366,l),
(427,366,l),
(418,333,l),
(682,333,l),
(654,354,l),
(649,327,ls),
(623,181,o),
(527,24,o),
(347,24,cs),
(179,24,o),
(108,152,o),
(108,299,cs),
(108,493,o),
(233,716,o),
(467,716,cs),
(691,716,o),
(671,503,o),
(671,503,c),
(707,503,l),
(707,503,o),
(727,750,o),
(470,750,cs),
(209,750,o),
(71,509,o),
(71,298,cs),
(71,134,o),
(154,-10,o),
(347,-10,cs)
);
},
{
closed = 1;
nodes = (
(535,839,o),
(551,855,o),
(551,875,cs),
(551,894,o),
(535,911,o),
(515,911,cs),
(495,911,o),
(480,894,o),
(480,875,cs),
(480,855,o),
(495,839,o),
(515,839,cs)
);
}
);
width = 758;
}
);
leftKerningGroup = O;
rightKerningGroup = G;
unicode = 288;
},
{
glyphname = Gmacron;
layers = (
{
layerId = "75B83567-2B70-4CA3-ABBB-A798085DCD06";
shapes = (
{
closed = 1;
nodes = (
(572,-10,o),
(739,87,o),
(780,354,cs),
(789,409,l),
(440,409,l),
(400,261,l),
(620,261,l),
(586,381,l),
(583,356,ls),
(567,213,o),
(504,162,o),
(411,162,cs),
(305,162,o),
(256,238,o),
(256,330,cs),
(256,443,o),
(332,580,o),
(477,580,cs),
(605,580,o),
(603,470,o),
(603,470,c),
(793,470,l),
(793,470,o),
(802,750,o),
(493,750,cs),
(209,750,o),
(63,515,o),
(63,312,cs),
(63,135,o),
(172,-10,o),
(388,-10,cs)
);
},
{
closed = 1;
nodes = (
(694,824,l),
(722,926,l),
(382,926,l),
(354,824,l)
);
}
);
width = 790;
},
{
layerId = "96AFF54B-CDB9-40A8-9C60-2DEF28996F09";
shapes = (
{
closed = 1;
nodes = (
(558,-10,o),
(681,140,o),
(713,329,cs),
(722,383,l),
(422,383,l),
(400,304,l),
(650,304,l),
(618,364,l),
(614,337,ls),
(594,200,o),
(508,79,o),
(365,79,cs),
(221,79,o),
(158,187,o),
(158,311,cs),
(158,474,o),
(264,662,o),
(462,662,cs),
(649,662,o),
(637,491,o),
(637,491,c),
(734,491,l),
(734,491,o),
(749,750,o),
(469,750,cs),
(202,750,o),
(59,512,o),
(59,303,cs),
(59,134,o),
(154,-10,o),
(355,-10,cs)
);
},
{
closed = 1;
nodes = (
(663,855,l),
(683,927,l),
(379,927,l),
(359,855,l)
);
}
);
width = 747;
},
{
layerId = "6FA1D1A9-9908-45CC-BE31-7B82C0699C2A";
shapes = (
{
closed = 1;
nodes = (
(550,-10,o),
(652,161,o),
(682,313,cs),
(692,366,l),
(427,366,l),
(418,333,l),
(682,333,l),
(654,354,l),
(649,327,ls),
(623,181,o),
(527,24,o),
(347,24,cs),
(179,24,o),
(108,152,o),
(108,299,cs),
(108,493,o),
(233,716,o),
(467,716,cs),
(691,716,o),
(671,503,o),
(671,503,c),
(707,503,l),
(707,503,o),
(727,750,o),
(470,750,cs),
(209,750,o),
(71,509,o),
(71,298,cs),
(71,134,o),
(154,-10,o),
(347,-10,cs)
);
},
{
closed = 1;
nodes = (
(646,842,l),
(653,872,l),
(373,872,l),
(366,842,l)
);
}
);
width = 758;
}
);
leftKerningGroup = O;
rightKerningGroup = G;
unicode = 7712;
},
{
glyphname = H;
leftMetricsKey = l;
rightMetricsKey = l;
layers = (
{
anchors = (
{
name = bottom;
position = "{533, 0}";
},
{
name = ogonek;
position = "{629, 0}";
},
{
name = top;
position = "{500, 740}";
},
{
name = topleft;
position = "{602, 736}";
}
);
layerId = "75B83567-2B70-4CA3-ABBB-A798085DCD06";
shapes = (
{
closed = 1;
nodes = (
(181,0,l),
(377,740,l),
(185,740,l),
(-11,0,l)
);
},
{
closed = 1;
nodes = (
(629,0,l),
(826,740,l),
(634,740,l),
(437,0,l)
);
},
{
closed = 1;
nodes = (
(610,298,l),
(610,462,l),
(182,462,l),
(182,298,l)
);
}
);
width = 761;
},
{
anchors = (
{
name = bottom;
position = "{504, 0}";
},
{
name = ogonek;
position = "{553, 0}";
},
{
name = top;
position = "{485, 740}";
},
{
name = topleft;
position = "{586, 700}";
}
);
layerId = "96AFF54B-CDB9-40A8-9C60-2DEF28996F09";
shapes = (
{
closed = 1;
nodes = (
(114,0,l),
(310,740,l),
(212,740,l),
(16,0,l)
);
},
{
closed = 1;
nodes = (
(553,0,l),
(749,740,l),
(651,740,l),
(455,0,l)
);
},
{
closed = 1;
nodes = (
(585,331,l),
(585,419,l),
(139,419,l),
(139,331,l)
);
}
);
width = 705;
},
{
anchors = (
{
name = bottom;
position = "{481, 0}";
},
{
name = ogonek;
position = "{498, 0}";
},
{
name = top;
position = "{448, 740}";
},
{
name = topleft;
position = "{588, 740}";
}
);
layerId = "6FA1D1A9-9908-45CC-BE31-7B82C0699C2A";
shapes = (
{
closed = 1;
nodes = (
(57,0,l),
(254,740,l),
(219,740,l),
(22,0,l)
);
},
{
closed = 1;
nodes = (
(498,0,l),
(695,740,l),
(660,740,l),
(463,0,l)
);
},
{
closed = 1;
nodes = (
(568,374,l),
(568,406,l),
(145,406,l),
(145,374,l)
);
}
);
width = 658;
}
);
leftKerningGroup = l;
rightKerningGroup = l;
unicode = 72;
},
{
glyphname = Hbar;
leftMetricsKey = "=l-50";
rightMetricsKey = "=l-50";
layers = (
{
layerId = "75B83567-2B70-4CA3-ABBB-A798085DCD06";
shapes = (
{
closed = 1;
nodes = (
(849,527,l),
(884,658,l),
(113,658,l),
(78,527,l)
);
},
{
closed = 1;
nodes = (
(199,0,l),
(396,740,l),
(204,740,l),
(7,0,l)
);
},
{
closed = 1;
nodes = (
(648,0,l),
(844,740,l),
(652,740,l),
(456,0,l)
);
},
{
closed = 1;
nodes = (
(628,298,l),
(628,462,l),
(200,462,l),
(200,298,l)
);
}
);
width = 790;
},
{
layerId = "96AFF54B-CDB9-40A8-9C60-2DEF28996F09";
shapes = (
{
closed = 1;
nodes = (
(834,579,l),
(857,667,l),
(142,667,l),
(120,579,l)
);
},
{
closed = 1;
nodes = (
(137,0,l),
(333,740,l),
(235,740,l),
(39,0,l)
);
},
{
closed = 1;
nodes = (
(576,0,l),
(772,740,l),
(674,740,l),
(478,0,l)
);
},
{
closed = 1;
nodes = (
(608,331,l),
(608,419,l),
(162,419,l),
(162,331,l)
);
}
);
width = 781;
},
{
layerId = "6FA1D1A9-9908-45CC-BE31-7B82C0699C2A";
shapes = (
{
closed = 1;
nodes = (
(816,622,l),
(823,654,l),
(146,654,l),
(139,622,l)
);
},
{
closed = 1;
nodes = (
(115,0,l),
(311,740,l),
(276,740,l),
(80,0,l)
);
},
{
closed = 1;
nodes = (
(556,0,l),
(752,740,l),
(717,740,l),
(521,0,l)
);
},
{
closed = 1;
nodes = (
(626,374,l),
(626,406,l),
(203,406,l),
(203,374,l)
);
}
);
width = 760;
}
);
unicode = 294;
},
{
glyphname = I;
leftMetricsKey = l;
rightMetricsKey = l;
layers = (
{
anchors = (
{
name = bottom;
position = "{85, 0}";
},
{
name = ogonek;
position = "{181, 0}";
},
{
name = top;
position = "{280, 735}";
},
{
name = topleft;
position = "{154, 736}";
}
);
layerId = "75B83567-2B70-4CA3-ABBB-A798085DCD06";
shapes = (
{
closed = 1;
nodes = (
(181,0,l),
(377,740,l),
(185,740,l),
(-11,0,l)
);
}
);
width = 313;
},
{
anchors = (
{
name = bottom;
position = "{65, 0}";
},
{
name = ogonek;
position = "{114, 0}";
},
{
name = top;
position = "{251, 690}";
},
{
name = topleft;
position = "{147, 700}";
}
);
layerId = "96AFF54B-CDB9-40A8-9C60-2DEF28996F09";
shapes = (
{
closed = 1;
nodes = (
(114,0,l),
(310,740,l),
(212,740,l),
(16,0,l)
);
}
);
width = 266;
},
{
anchors = (
{
name = bottom;
position = "{40, 0}";
},
{
name = ogonek;
position = "{57, 0}";
},
{
name = top;
position = "{237, 740}";
},
{
name = topleft;
position = "{147, 740}";
}
);
layerId = "6FA1D1A9-9908-45CC-BE31-7B82C0699C2A";
shapes = (
{
closed = 1;
nodes = (
(57,0,l),
(254,740,l),
(219,740,l),
(22,0,l)
);
}
);
width = 217;
}
);
leftKerningGroup = l;
rightKerningGroup = l;
unicode = 73;
},
{
glyphname = Iacute;
layers = (
{
layerId = "75B83567-2B70-4CA3-ABBB-A798085DCD06";
shapes = (
{
closed = 1;
nodes = (
(180,0,l),
(376,740,l),
(184,740,l),
(-13,0,l)
);
},
{
closed = 1;
nodes = (
(489,984,l),
(319,984,l),
(242,805,l),
(375,804,l)
);
}
);
width = 311;
},
{
layerId = "96AFF54B-CDB9-40A8-9C60-2DEF28996F09";
shapes = (
{
closed = 1;
nodes = (
(112,0,l),
(308,740,l),
(210,740,l),
(14,0,l)
);
},
{
closed = 1;
nodes = (
(430,951,l),
(335,951,l),
(241,771,l),
(318,770,l)
);
}
);
width = 262;
},
{
layerId = "6FA1D1A9-9908-45CC-BE31-7B82C0699C2A";
shapes = (
{
closed = 1;
nodes = (
(55,0,l),
(251,740,l),
(216,740,l),
(20,0,l)
);
},
{
closed = 1;
nodes = (
(343,980,l),
(307,980,l),
(237,828,l),
(266,828,l)
);
}
);
width = 214;
}
);
leftKerningGroup = l;
rightKerningGroup = l;
unicode = 205;
},
{
glyphname = Icircumflex;
layers = (
{
layerId = "75B83567-2B70-4CA3-ABBB-A798085DCD06";
shapes = (
{
closed = 1;
nodes = (
(180,0,l),
(376,740,l),
(184,740,l),
(-13,0,l)
);
},
{
closed = 1;
nodes = (
(235,794,l),
(331,896,l),
(370,794,l),
(503,794,l),
(418,983,l),
(271,983,l),
(86,794,l)
);
}
);
width = 311;
},
{
layerId = "96AFF54B-CDB9-40A8-9C60-2DEF28996F09";
shapes = (
{
closed = 1;
nodes = (
(112,0,l),
(308,740,l),
(210,740,l),
(14,0,l)
);
},
{
closed = 1;
nodes = (
(202,766,l),
(305,873,l),
(353,766,l),
(431,766,l),
(354,933,l),
(273,933,l),
(108,766,l)
);
}
);
width = 262;
},
{
layerId = "6FA1D1A9-9908-45CC-BE31-7B82C0699C2A";
shapes = (
{
closed = 1;
nodes = (
(55,0,l),
(251,740,l),
(216,740,l),
(20,0,l)
);
},
{
closed = 1;
nodes = (
(171,818,l),
(293,945,l),
(350,818,l),
(386,818,l),
(315,970,l),
(278,970,l),
(127,818,l)
);
}
);
width = 214;
}
);
leftKerningGroup = l;
rightKerningGroup = l;
unicode = 206;
},
{
glyphname = Idieresis;
layers = (
{
layerId = "75B83567-2B70-4CA3-ABBB-A798085DCD06";
shapes = (
{
closed = 1;
nodes = (
(180,0,l),
(376,740,l),
(184,740,l),
(-13,0,l)
);
},
{
closed = 1;
nodes = (
(501,783,o),
(544,827,o),
(544,880,cs),
(544,935,o),
(501,978,o),
(442,978,cs),
(382,978,o),
(340,935,o),
(340,880,cs),
(340,827,o),
(382,783,o),
(442,783,cs)
);
},
{
closed = 1;
nodes = (
(252,783,o),
(295,827,o),
(295,880,cs),
(295,935,o),
(252,978,o),
(193,978,cs),
(133,978,o),
(91,935,o),
(91,880,cs),
(91,827,o),
(133,783,o),
(193,783,cs)
);
}
);
width = 311;
},
{
layerId = "96AFF54B-CDB9-40A8-9C60-2DEF28996F09";
shapes = (
{
closed = 1;
nodes = (
(112,0,l),
(308,740,l),
(210,740,l),
(14,0,l)
);
},
{
closed = 1;
nodes = (
(417,771,o),
(444,798,o),
(444,832,cs),
(444,866,o),
(417,894,o),
(382,894,cs),
(346,894,o),
(320,866,o),
(320,832,cs),
(320,799,o),
(346,771,o),
(382,771,cs)
);
},
{
closed = 1;
nodes = (
(227,771,o),
(254,798,o),
(254,832,cs),
(254,866,o),
(227,894,o),
(192,894,cs),
(156,894,o),
(130,866,o),
(130,832,cs),
(130,799,o),
(156,771,o),
(192,771,cs)
);
}
);
width = 262;
},
{
layerId = "6FA1D1A9-9908-45CC-BE31-7B82C0699C2A";
shapes = (
{
closed = 1;
nodes = (
(55,0,l),
(251,740,l),
(216,740,l),
(20,0,l)
);
},
{
closed = 1;
nodes = (
(360,840,o),
(376,856,o),
(376,876,cs),
(376,895,o),
(360,912,o),
(340,912,cs),
(320,912,o),
(305,895,o),
(305,876,cs),
(305,856,o),
(320,840,o),
(340,840,cs)
);
},
{
closed = 1;
nodes = (
(221,840,o),
(237,856,o),
(237,876,cs),
(237,895,o),
(221,912,o),
(201,912,cs),
(181,912,o),
(166,895,o),
(166,876,cs),
(166,856,o),
(181,840,o),
(201,840,cs)
);
}
);
width = 214;
}
);
leftKerningGroup = l;
rightKerningGroup = l;
unicode = 207;
},
{
glyphname = Idotaccent;
layers = (
{
layerId = "75B83567-2B70-4CA3-ABBB-A798085DCD06";
shapes = (
{
closed = 1;
nodes = (
(180,0,l),
(376,740,l),
(184,740,l),
(-13,0,l)
);
},
{
closed = 1;
nodes = (
(383,788,o),
(429,835,o),
(429,891,cs),
(429,949,o),
(383,995,o),
(320,995,cs),
(257,995,o),
(212,949,o),
(212,891,cs),
(212,835,o),
(257,788,o),
(320,788,cs)
);
}
);
width = 311;
},
{
layerId = "96AFF54B-CDB9-40A8-9C60-2DEF28996F09";
shapes = (
{
closed = 1;
nodes = (
(112,0,l),
(308,740,l),
(210,740,l),
(14,0,l)
);
},
{
closed = 1;
nodes = (
(327,785,o),
(354,812,o),
(354,846,cs),
(354,880,o),
(327,908,o),
(292,908,cs),
(256,908,o),
(230,880,o),
(230,846,cs),
(230,813,o),
(256,785,o),
(292,785,cs)
);
}
);
width = 262;
},
{
layerId = "6FA1D1A9-9908-45CC-BE31-7B82C0699C2A";
shapes = (
{
closed = 1;
nodes = (
(55,0,l),
(251,740,l),
(216,740,l),
(20,0,l)
);
},
{
closed = 1;
nodes = (
(291,839,o),
(307,855,o),
(307,875,cs),
(307,894,o),
(291,911,o),
(271,911,cs),
(251,911,o),
(236,894,o),
(236,875,cs),
(236,855,o),
(251,839,o),
(271,839,cs)
);
}
);
width = 214;
}
);
leftKerningGroup = l;
rightKerningGroup = l;
unicode = 304;
},
{
glyphname = Idotbelow;
layers = (
{
layerId = "75B83567-2B70-4CA3-ABBB-A798085DCD06";
shapes = (
{
closed = 1;
nodes = (
(180,0,l),
(376,740,l),
(184,740,l),
(-13,0,l)
);
},
{
closed = 1;
nodes = (
(90,-260,o),
(128,-220,o),
(128,-171,cs),
(128,-121,o),
(90,-82,o),
(39,-82,cs),
(-15,-82,o),
(-52,-121,o),
(-52,-171,cs),
(-52,-220,o),
(-15,-260,o),
(39,-260,cs)
);
}
);
width = 311;
},
{
layerId = "96AFF54B-CDB9-40A8-9C60-2DEF28996F09";
shapes = (
{
closed = 1;
nodes = (
(112,0,l),
(308,740,l),
(210,740,l),
(14,0,l)
);
},
{
closed = 1;
nodes = (
(57,-227,o),
(85,-198,o),
(85,-162,cs),
(85,-126,o),
(57,-97,o),
(20,-97,cs),
(-18,-97,o),
(-45,-126,o),
(-45,-162,cs),
(-45,-197,o),
(-18,-227,o),
(20,-227,cs)
);
}
);
width = 262;
},
{
layerId = "6FA1D1A9-9908-45CC-BE31-7B82C0699C2A";
shapes = (
{
closed = 1;
nodes = (
(55,0,l),
(251,740,l),
(216,740,l),
(20,0,l)
);
},
{
closed = 1;
nodes = (
(18,-192,o),
(35,-175,o),
(35,-154,cs),
(35,-134,o),
(18,-117,o),
(-3,-117,cs),
(-24,-117,o),
(-40,-134,o),
(-40,-154,cs),
(-40,-175,o),
(-24,-192,o),
(-3,-192,cs)
);
}
);
width = 214;
}
);
leftKerningGroup = l;
rightKerningGroup = l;
unicode = 7882;
},
{
glyphname = Igrave;
layers = (
{
layerId = "75B83567-2B70-4CA3-ABBB-A798085DCD06";
shapes = (
{
closed = 1;
nodes = (
(180,0,l),
(376,740,l),
(184,740,l),
(-13,0,l)
);
},
{
closed = 1;
nodes = (
(348,805,l),
(283,984,l),
(120,984,l),
(221,804,l)
);
}
);
width = 311;
},
{
layerId = "96AFF54B-CDB9-40A8-9C60-2DEF28996F09";
shapes = (
{
closed = 1;
nodes = (
(112,0,l),
(308,740,l),
(210,740,l),
(14,0,l)
);
},
{
closed = 1;
nodes = (
(294,771,l),
(233,951,l),
(141,951,l),
(219,770,l)
);
}
);
width = 262;
},
{
layerId = "6FA1D1A9-9908-45CC-BE31-7B82C0699C2A";
shapes = (
{
closed = 1;
nodes = (
(55,0,l),
(251,740,l),
(216,740,l),
(20,0,l)
);
},
{
closed = 1;
nodes = (
(266,828,l),
(221,980,l),
(186,980,l),
(238,828,l)
);
}
);
width = 214;
}
);
leftKerningGroup = l;
rightKerningGroup = l;
unicode = 204;
},
{
glyphname = Ihookabove;
layers = (
{
layerId = "75B83567-2B70-4CA3-ABBB-A798085DCD06";
shapes = (
{
closed = 1;
nodes = (
(180,0,l),
(376,740,l),
(184,740,l),
(-13,0,l)
);
},
{
closed = 1;
nodes = (
(339,790,l),
(359,861,l),
(304,796,l),
(353,820,ls),
(380,833,o),
(470,864,o),
(470,941,cs),
(470,993,o),
(425,1041,o),
(343,1041,cs),
(180,1041,o),
(186,904,o),
(186,918,c),
(287,918,l),
(287,918,o),
(289,952,o),
(328,952,cs),
(348,952,o),
(359,940,o),
(359,926,cs),
(359,909,o),
(344,895,o),
(305,878,cs),
(287,870,ls),
(262,859,o),
(251,842,o),
(246,823,cs),
(237,790,l)
);
}
);
width = 311;
},
{
layerId = "96AFF54B-CDB9-40A8-9C60-2DEF28996F09";
shapes = (
{
closed = 1;
nodes = (
(112,0,l),
(308,740,l),
(210,740,l),
(14,0,l)
);
},
{
closed = 1;
nodes = (
(292,754,l),
(308,813,l),
(263,771,l),
(289,780,l),
(350,804,o),
(402,831,o),
(402,884,cs),
(402,923,o),
(375,968,o),
(303,968,cs),
(194,968,o),
(195,862,o),
(195,874,c),
(251,874,l),
(251,872,o),
(252,917,o),
(302,917,cs),
(329,917,o),
(342,901,o),
(342,884,cs),
(342,860,o),
(321,843,o),
(282,826,cs),
(267,819,ls),
(255,813,o),
(243,803,o),
(240,788,c),
(231,754,l)
);
}
);
width = 262;
},
{
layerId = "6FA1D1A9-9908-45CC-BE31-7B82C0699C2A";
shapes = (
{
closed = 1;
nodes = (
(55,0,l),
(251,740,l),
(216,740,l),
(20,0,l)
);
},
{
closed = 1;
nodes = (
(258,814,l),
(272,865,l),
(241,836,l),
(268,847,ls),
(328,872,o),
(364,898,o),
(364,939,cs),
(364,971,o),
(343,1005,o),
(291,1005,cs),
(201,1005,o),
(202,916,o),
(202,928,c),
(231,928,l),
(231,922,o),
(232,977,o),
(289,977,cs),
(320,977,o),
(334,958,o),
(334,939,cs),
(334,912,o),
(313,892,o),
(271,874,cs),
(257,868,ls),
(248,864,o),
(241,856,o),
(239,846,c),
(230,814,l)
);
}
);
width = 214;
}
);
leftKerningGroup = l;
rightKerningGroup = l;
unicode = 7880;
},
{
glyphname = Imacron;
layers = (
{
layerId = "75B83567-2B70-4CA3-ABBB-A798085DCD06";
shapes = (
{
closed = 1;
nodes = (
(180,0,l),
(376,740,l),
(184,740,l),
(-13,0,l)
);
},
{
closed = 1;
nodes = (
(469,819,l),
(496,921,l),
(156,921,l),
(129,819,l)
);
}
);
width = 311;
},
{
layerId = "96AFF54B-CDB9-40A8-9C60-2DEF28996F09";
shapes = (
{
closed = 1;
nodes = (
(112,0,l),
(308,740,l),
(210,740,l),
(14,0,l)
);
},
{
closed = 1;
nodes = (
(430,805,l),
(450,877,l),
(146,877,l),
(126,805,l)
);
}
);
width = 262;
},
{
layerId = "6FA1D1A9-9908-45CC-BE31-7B82C0699C2A";
shapes = (
{
closed = 1;
nodes = (
(55,0,l),
(251,740,l),
(216,740,l),
(20,0,l)
);
},
{
closed = 1;
nodes = (
(402,842,l),
(409,872,l),
(129,872,l),
(122,842,l)
);
}
);
width = 214;
}
);
leftKerningGroup = l;
rightKerningGroup = l;
unicode = 298;
},
{
glyphname = Iogonek;
layers = (
{
layerId = "75B83567-2B70-4CA3-ABBB-A798085DCD06";
shapes = (
{
closed = 1;
nodes = (
(180,0,l),
(376,740,l),
(184,740,l),
(-13,0,l)
);
},
{
closed = 1;
nodes = (
(142,-194,o),
(165,-189,o),
(165,-189,c),
(191,-87,l),
(191,-87,o),
(174,-90,o),
(159,-90,cs),
(127,-90,o),
(114,-78,o),
(114,-61,cs),
(114,-25,o),
(180,0,o),
(180,0,c),
(128,29,l),
(128,29,o),
(-27,2,o),
(-27,-102,cs),
(-27,-157,o),
(16,-194,o),
(109,-194,cs)
);
}
);
width = 311;
},
{
layerId = "96AFF54B-CDB9-40A8-9C60-2DEF28996F09";
shapes = (
{
closed = 1;
nodes = (
(112,0,l),
(308,740,l),
(210,740,l),
(14,0,l)
);
},
{
closed = 1;
nodes = (
(90,-166,o),
(108,-160,o),
(108,-160,c),
(123,-104,l),
(123,-104,o),
(104,-109,o),
(86,-109,cs),
(53,-109,o),
(38,-96,o),
(38,-74,cs),
(38,-26,o),
(112,0,o),
(112,0,c),
(81,19,l),
(81,19,o),
(-34,-10,o),
(-34,-93,cs),
(-34,-138,o),
(1,-166,o),
(63,-166,cs)
);
}
);
width = 262;
},
{
layerId = "6FA1D1A9-9908-45CC-BE31-7B82C0699C2A";
shapes = (
{
closed = 1;
nodes = (
(55,0,l),
(251,740,l),
(216,740,l),
(20,0,l)
);
},
{
closed = 1;
nodes = (
(44,-149,o),
(60,-143,o),
(60,-143,c),
(68,-115,l),
(68,-115,o),
(47,-120,o),
(27,-120,cs),
(-7,-120,o),
(-24,-108,o),
(-24,-82,cs),
(-24,-27,o),
(55,0,o),
(55,0,c),
(38,12,l),
(38,12,o),
(-57,-16,o),
(-57,-86,cs),
(-57,-127,o),
(-26,-149,o),
(20,-149,cs)
);
}
);
width = 214;
}
);
leftKerningGroup = l;
rightKerningGroup = l;
unicode = 302;
},
{
glyphname = Itilde;
layers = (
{
layerId = "75B83567-2B70-4CA3-ABBB-A798085DCD06";
shapes = (
{
closed = 1;
nodes = (
(180,0,l),
(376,740,l),
(184,740,l),
(-13,0,l)
);
},
{
closed = 1;
nodes = (
(481,817,o),
(508,895,o),
(530,976,c),
(437,976,l),
(427,941,o),
(416,923,o),
(397,923,cs),
(363,923,o),
(334,982,o),
(261,982,cs),
(170,982,o),
(145,905,o),
(123,823,c),
(216,823,l),
(225,857,o),
(237,876,o),
(256,876,cs),
(291,876,o),
(319,817,o),
(392,817,cs)
);
}
);
width = 311;
},
{
layerId = "96AFF54B-CDB9-40A8-9C60-2DEF28996F09";
shapes = (
{
closed = 1;
nodes = (
(112,0,l),
(308,740,l),
(210,740,l),
(14,0,l)
);
},
{
closed = 1;
nodes = (
(413,776,o),
(442,826,o),
(461,908,c),
(400,908,l),
(391,866,o),
(380,843,o),
(357,843,cs),
(320,843,o),
(301,913,o),
(231,913,cs),
(171,913,o),
(142,864,o),
(123,782,c),
(185,782,l),
(194,824,o),
(208,848,o),
(228,848,cs),
(266,848,o),
(286,776,o),
(355,776,cs)
);
}
);
width = 262;
},
{
layerId = "6FA1D1A9-9908-45CC-BE31-7B82C0699C2A";
shapes = (
{
closed = 1;
nodes = (
(55,0,l),
(251,740,l),
(216,740,l),
(20,0,l)
);
},
{
closed = 1;
nodes = (
(369,831,o),
(397,878,o),
(411,936,c),
(379,936,l),
(369,887,o),
(351,860,o),
(327,860,cs),
(286,860,o),
(288,941,o),
(225,941,cs),
(178,941,o),
(149,898,o),
(135,836,c),
(167,836,l),
(175,880,o),
(195,912,o),
(221,912,cs),
(263,912,o),
(263,831,o),
(323,831,cs)
);
}
);
width = 214;
}
);
leftKerningGroup = l;
rightKerningGroup = l;
unicode = 296;
},
{
glyphname = J;
rightMetricsKey = l;
layers = (
{
layerId = "75B83567-2B70-4CA3-ABBB-A798085DCD06";
shapes = (
{
closed = 1;
nodes = (
(310,-10,o),
(421,130,o),
(462,286,cs),
(582,740,l),
(392,740,l),
(276,304,ls),
(248,201,o),
(173,152,o),
(97,152,cs),
(56,152,o),
(19,157,o),
(19,157,c),
(-23,0,l),
(-23,0,o),
(26,-10,o),
(93,-10,cs)
);
}
);
width = 518;
},
{
layerId = "96AFF54B-CDB9-40A8-9C60-2DEF28996F09";
shapes = (
{
closed = 1;
nodes = (
(261,-10,o),
(350,93,o),
(391,248,cs),
(523,740,l),
(425,740,l),
(293,248,l),
(267,158,o),
(211,79,o),
(84,79,cs),
(46,79,o),
(3,90,o),
(3,90,c),
(-20,3,l),
(-20,3,o),
(21,-10,o),
(74,-10,cs)
);
}
);
width = 477;
},
{
layerId = "6FA1D1A9-9908-45CC-BE31-7B82C0699C2A";
shapes = (
{
closed = 1;
nodes = (
(198,-10,o),
(302,67,o),
(340,207,cs),
(481,740,l),
(446,740,l),
(305,207,l),
(275,97,o),
(185,23,o),
(78,23,cs),
(40,23,o),
(0,29,o),
(0,29,c),
(-9,-4,l),
(-9,-4,o),
(30,-10,o),
(69,-10,cs)
);
}
);
width = 445;
}
);
leftKerningGroup = J;
rightKerningGroup = U;
unicode = 74;
},
{
glyphname = K;
leftMetricsKey = l;
layers = (
{
anchors = (
{
name = bottom;
position = "{371, 0}";
},
{
name = ogonek;
position = "{181, 0}";
},
{
name = top;
position = "{568, 740}";
},
{
name = topleft;
position = "{154, 736}";
}
);
layerId = "75B83567-2B70-4CA3-ABBB-A798085DCD06";
shapes = (
{
closed = 1;
nodes = (
(640,0,l),
(436,412,l),
(417,307,l),
(856,740,l),
(603,740,l),
(254,378,l),
(432,0,l)
);
},
{
closed = 1;
nodes = (
(181,0,l),
(377,740,l),
(185,740,l),
(-11,0,l)
);
}
);
width = 729;
},
{
anchors = (
{
name = bottom;
position = "{244, 0}";
},
{
name = ogonek;
position = "{114, 0}";
},
{
name = top;
position = "{441, 740}";
},
{
name = topleft;
position = "{147, 700}";
}
);
layerId = "96AFF54B-CDB9-40A8-9C60-2DEF28996F09";
shapes = (
{
closed = 1;
nodes = (
(553,0,l),
(265,406,l),
(254,338,l),
(738,739,l),
(600,739,l),
(173,380,l),
(440,0,l)
);
},
{
closed = 1;
nodes = (
(114,0,l),
(310,740,l),
(212,740,l),
(16,0,l)
);
}
);
width = 633;
},
{
anchors = (
{
name = bottom;
position = "{243, 0}";
},
{
name = ogonek;
position = "{57, 0}";
},
{
name = top;
position = "{439, 740}";
},
{
name = topleft;
position = "{147, 740}";
}
);
layerId = "6FA1D1A9-9908-45CC-BE31-7B82C0699C2A";
shapes = (
{
closed = 1;
nodes = (
(500,0,l),
(171,402,l),
(166,359,l),
(664,739,l),
(612,739,l),
(144,381,l),
(457,0,l)
);
},
{
closed = 1;
nodes = (
(57,0,l),
(254,740,l),
(219,740,l),
(22,0,l)
);
}
);
width = 565;
}
);
leftKerningGroup = l;
rightKerningGroup = K;
unicode = 75;
},
{
glyphname = L;
leftMetricsKey = l;
rightMetricsKey = E;
layers = (
{
anchors = (
{
name = bottom;
position = "{279, 0}";
},
{
name = center;
position = "{418, 370}";
},
{
name = ogonek;
position = "{181, 0}";
},
{
name = top;
position = "{280, 740}";
},
{
name = topleft;
position = "{154, 736}";
},
{
name = topright;
position = "{814, 740}";
}
);
layerId = "75B83567-2B70-4CA3-ABBB-A798085DCD06";
shapes = (
{
closed = 1;
nodes = (
(527,0,l),
(571,166,l),
(105,166,l),
(61,0,l)
);
},
{
closed = 1;
nodes = (
(181,0,l),
(377,740,l),
(185,740,l),
(-11,0,l)
);
}
);
width = 634;
},
{
anchors = (
{
name = bottom;
position = "{333, 0}";
},
{
name = center;
position = "{426, 350}";
},
{
name = ogonek;
position = "{114, 0}";
},
{
name = top;
position = "{262, 740}";
},
{
name = topleft;
position = "{147, 700}";
},
{
name = topright;
position = "{793, 700}";
}
);
layerId = "96AFF54B-CDB9-40A8-9C60-2DEF28996F09";
shapes = (
{
closed = 1;
nodes = (
(459,0,l),
(481,86,l),
(130,86,l),
(107,0,l)
);
},
{
closed = 1;
nodes = (
(114,0,l),
(310,740,l),
(212,740,l),
(16,0,l)
);
}
);
width = 601;
},
{
anchors = (
{
name = bottom;
position = "{277, 0}";
},
{
name = center;
position = "{370, 350}";
},
{
name = ogonek;
position = "{57, 0}";
},
{
name = top;
position = "{237, 740}";
},
{
name = topleft;
position = "{147, 740}";
},
{
name = topright;
position = "{706, 700}";
}
);
layerId = "6FA1D1A9-9908-45CC-BE31-7B82C0699C2A";
shapes = (
{
closed = 1;
nodes = (
(463,0,l),
(472,34,l),
(67,34,l),
(58,0,l)
);
},
{
closed = 1;
nodes = (
(57,0,l),
(254,740,l),
(219,740,l),
(22,0,l)
);
}
);
width = 571;
}
);
leftKerningGroup = l;
rightKerningGroup = L;
unicode = 76;
},
{
glyphname = Lacute;
layers = (
{
layerId = "75B83567-2B70-4CA3-ABBB-A798085DCD06";
shapes = (
{
closed = 1;
nodes = (
(514,0,l),
(557,166,l),
(104,166,l),
(60,0,l)
);
},
{
closed = 1;
nodes = (
(180,0,l),
(376,740,l),
(184,740,l),
(-13,0,l)
);
},
{
closed = 1;
nodes = (
(489,989,l),
(319,989,l),
(242,810,l),
(375,809,l)
);
}
);
width = 631;
},
{
layerId = "96AFF54B-CDB9-40A8-9C60-2DEF28996F09";
shapes = (
{
closed = 1;
nodes = (
(457,0,l),
(479,86,l),
(128,86,l),
(105,0,l)
);
},
{
closed = 1;
nodes = (
(112,0,l),
(308,740,l),
(210,740,l),
(14,0,l)
);
},
{
closed = 1;
nodes = (
(440,1001,l),
(346,1001,l),
(251,821,l),
(328,820,l)
);
}
);
width = 598;
},
{
layerId = "6FA1D1A9-9908-45CC-BE31-7B82C0699C2A";
shapes = (
{
closed = 1;
nodes = (
(461,0,l),
(469,34,l),
(64,34,l),
(56,0,l)
);
},
{
closed = 1;
nodes = (
(55,0,l),
(251,740,l),
(216,740,l),
(20,0,l)
);
},
{
closed = 1;
nodes = (
(344,980,l),
(308,980,l),
(238,828,l),
(267,828,l)
);
}
);
width = 568;
}
);
leftKerningGroup = l;
rightKerningGroup = L;
unicode = 313;
},
{
glyphname = Lcaron;
layers = (
{
layerId = "75B83567-2B70-4CA3-ABBB-A798085DCD06";
shapes = (
{
closed = 1;
nodes = (
(514,0,l),
(557,166,l),
(104,166,l),
(60,0,l)
);
},
{
closed = 1;
nodes = (
(180,0,l),
(376,740,l),
(184,740,l),
(-13,0,l)
);
},
{
closed = 1;
nodes = (
(373,800,l),
(558,989,l),
(408,989,l),
(281,854,l),
(329,845,l),
(273,989,l),
(141,989,l),
(226,800,l)
);
}
);
width = 631;
},
{
layerId = "96AFF54B-CDB9-40A8-9C60-2DEF28996F09";
shapes = (
{
closed = 1;
nodes = (
(457,0,l),
(479,86,l),
(128,86,l),
(105,0,l)
);
},
{
closed = 1;
nodes = (
(112,0,l),
(308,740,l),
(210,740,l),
(14,0,l)
);
},
{
closed = 1;
nodes = (
(314,818,l),
(479,985,l),
(385,985,l),
(251,846,l),
(300,837,l),
(234,985,l),
(156,985,l),
(233,818,l)
);
}
);
width = 598;
},
{
layerId = "6FA1D1A9-9908-45CC-BE31-7B82C0699C2A";
shapes = (
{
closed = 1;
nodes = (
(461,0,l),
(469,34,l),
(64,34,l),
(56,0,l)
);
},
{
closed = 1;
nodes = (
(55,0,l),
(251,740,l),
(216,740,l),
(20,0,l)
);
},
{
closed = 1;
nodes = (
(266,818,l),
(417,970,l),
(373,970,l),
(240,832,l),
(256,832,l),
(194,970,l),
(158,970,l),
(229,818,l)
);
}
);
width = 568;
}
);
leftKerningGroup = l;
rightKerningGroup = L;
unicode = 317;
},
{
glyphname = Lslash;
leftMetricsKey = "=l-69";
rightMetricsKey = L;
layers = (
{
layerId = "75B83567-2B70-4CA3-ABBB-A798085DCD06";
shapes = (
{
closed = 1;
nodes = (
(417,408,l),
(458,553,l),
(17,361,l),
(-25,216,l)
);
},
{
closed = 1;
nodes = (
(529,0,l),
(573,166,l),
(119,166,l),
(75,0,l)
);
},
{
closed = 1;
nodes = (
(195,0,l),
(391,740,l),
(199,740,l),
(3,0,l)
);
}
);
width = 636;
},
{
layerId = "96AFF54B-CDB9-40A8-9C60-2DEF28996F09";
shapes = (
{
closed = 1;
nodes = (
(416,400,l),
(437,488,l),
(47,382,l),
(26,294,l)
);
},
{
closed = 1;
nodes = (
(519,0,l),
(542,86,l),
(190,86,l),
(168,0,l)
);
},
{
closed = 1;
nodes = (
(174,0,l),
(371,740,l),
(273,740,l),
(76,0,l)
);
}
);
width = 661;
},
{
layerId = "6FA1D1A9-9908-45CC-BE31-7B82C0699C2A";
shapes = (
{
closed = 1;
nodes = (
(349,427,l),
(358,464,l),
(40,330,l),
(31,293,l)
);
},
{
closed = 1;
nodes = (
(499,0,l),
(508,34,l),
(103,34,l),
(94,0,l)
);
},
{
closed = 1;
nodes = (
(94,0,l),
(290,740,l),
(255,740,l),
(59,0,l)
);
}
);
width = 607;
}
);
rightKerningGroup = L;
unicode = 321;
},
{
glyphname = M;
layers = (
{
layerId = "75B83567-2B70-4CA3-ABBB-A798085DCD06";
shapes = (
{
closed = 1;
nodes = (
(-49,0,l),
(145,0,l),
(260,428,l),
(259,0,l),
(439,0,l),
(668,427,l),
(553,0,l),
(747,0,l),
(945,740,l),
(674,740,l),
(421,264,l),
(430,740,l),
(150,740,l)
);
}
);
width = 844;
},
{
layerId = "96AFF54B-CDB9-40A8-9C60-2DEF28996F09";
shapes = (
{
closed = 1;
nodes = (
(1,0,l),
(97,0,l),
(256,594,l),
(302,0,l),
(395,0,l),
(760,593,l),
(600,0,l),
(697,0,l),
(895,740,l),
(761,740,l),
(381,118,l),
(334,740,l),
(200,740,l)
);
}
);
width = 805;
},
{
layerId = "6FA1D1A9-9908-45CC-BE31-7B82C0699C2A";
shapes = (
{
closed = 1;
nodes = (
(1,0,l),
(39,0,l),
(224,688,l),
(321,0,l),
(355,0,l),
(823,689,l),
(637,0,l),
(674,0,l),
(873,740,l),
(818,740,l),
(352,49,l),
(255,740,l),
(200,740,l)
);
}
);
width = 785;
}
);
leftKerningGroup = l;
rightKerningGroup = l;
unicode = 77;
},
{
glyphname = N;
leftMetricsKey = l;
rightMetricsKey = l;
layers = (
{
layerId = "75B83567-2B70-4CA3-ABBB-A798085DCD06";
shapes = (
{
closed = 1;
nodes = (
(181,0,l),
(296,432,l),
(268,451,l),
(450,0,l),
(629,0,l),
(825,740,l),
(633,740,l),
(513,288,l),
(540,268,l),
(362,740,l),
(185,740,l),
(-11,0,l)
);
}
);
width = 761;
},
{
layerId = "96AFF54B-CDB9-40A8-9C60-2DEF28996F09";
shapes = (
{
closed = 1;
nodes = (
(114,0,l),
(277,610,l),
(247,601,l),
(500,0,l),
(588,0,l),
(784,740,l),
(686,740,l),
(525,131,l),
(553,138,l),
(300,740,l),
(212,740,l),
(16,0,l)
);
}
);
width = 740;
},
{
layerId = "6FA1D1A9-9908-45CC-BE31-7B82C0699C2A";
shapes = (
{
closed = 1;
nodes = (
(57,0,l),
(251,731,l),
(227,721,l),
(523,0,l),
(559,0,l),
(756,740,l),
(721,740,l),
(527,11,l),
(551,20,l),
(255,740,l),
(219,740,l),
(22,0,l)
);
}
);
width = 719;
}
);
leftKerningGroup = l;
rightKerningGroup = l;
unicode = 78;
},
{
glyphname = Nacute;
layers = (
{
layerId = "75B83567-2B70-4CA3-ABBB-A798085DCD06";
shapes = (
{
closed = 1;
nodes = (
(180,0,l),
(295,432,l),
(266,451,l),
(449,0,l),
(628,0,l),
(824,740,l),
(631,740,l),
(511,288,l),
(539,268,l),
(361,740,l),
(184,740,l),
(-13,0,l)
);
},
{
closed = 1;
nodes = (
(711,989,l),
(541,989,l),
(464,810,l),
(597,809,l)
);
}
);
width = 759;
},
{
layerId = "96AFF54B-CDB9-40A8-9C60-2DEF28996F09";
shapes = (
{
closed = 1;
nodes = (
(112,0,l),
(274,610,l),
(245,601,l),
(498,0,l),
(586,0,l),
(782,740,l),
(684,740,l),
(523,131,l),
(551,138,l),
(298,740,l),
(210,740,l),
(14,0,l)
);
},
{
closed = 1;
nodes = (
(675,1001,l),
(580,1001,l),
(486,821,l),
(563,820,l)
);
}
);
width = 736;
},
{
layerId = "6FA1D1A9-9908-45CC-BE31-7B82C0699C2A";
shapes = (
{
closed = 1;
nodes = (
(55,0,l),
(249,731,l),
(224,721,l),
(521,0,l),
(557,0,l),
(753,740,l),
(718,740,l),
(525,11,l),
(549,20,l),
(252,740,l),
(216,740,l),
(20,0,l)
);
},
{
closed = 1;
nodes = (
(605,980,l),
(569,980,l),
(499,828,l),
(528,828,l)
);
}
);
width = 716;
}
);
leftKerningGroup = l;
rightKerningGroup = l;
unicode = 323;
},
{
glyphname = Ncaron;
layers = (
{
layerId = "75B83567-2B70-4CA3-ABBB-A798085DCD06";
shapes = (
{
closed = 1;
nodes = (
(180,0,l),
(295,432,l),
(266,451,l),
(449,0,l),
(628,0,l),
(824,740,l),
(631,740,l),
(511,288,l),
(539,268,l),
(361,740,l),
(184,740,l),
(-13,0,l)
);
},
{
closed = 1;
nodes = (
(594,800,l),
(779,989,l),
(629,989,l),
(502,854,l),
(550,845,l),
(494,989,l),
(362,989,l),
(447,800,l)
);
}
);
width = 759;
},
{
layerId = "96AFF54B-CDB9-40A8-9C60-2DEF28996F09";
shapes = (
{
closed = 1;
nodes = (
(112,0,l),
(274,610,l),
(245,601,l),
(498,0,l),
(586,0,l),
(782,740,l),
(684,740,l),
(523,131,l),
(551,138,l),
(298,740,l),
(210,740,l),
(14,0,l)
);
},
{
closed = 1;
nodes = (
(549,818,l),
(714,985,l),
(620,985,l),
(486,846,l),
(535,837,l),
(469,985,l),
(391,985,l),
(468,818,l)
);
}
);
width = 736;
},
{
layerId = "6FA1D1A9-9908-45CC-BE31-7B82C0699C2A";
shapes = (
{
closed = 1;
nodes = (
(55,0,l),
(249,731,l),
(224,721,l),
(521,0,l),
(557,0,l),
(753,740,l),
(718,740,l),
(525,11,l),
(549,20,l),
(252,740,l),
(216,740,l),
(20,0,l)
);
},
{
closed = 1;
nodes = (
(528,818,l),
(679,970,l),
(635,970,l),
(501,832,l),
(518,832,l),
(456,970,l),
(420,970,l),
(491,818,l)
);
}
);
width = 716;
}
);
leftKerningGroup = l;
rightKerningGroup = l;
unicode = 327;
},
{
glyphname = Ntilde;
layers = (
{
layerId = "75B83567-2B70-4CA3-ABBB-A798085DCD06";
shapes = (
{
closed = 1;
nodes = (
(180,0,l),
(295,432,l),
(266,451,l),
(449,0,l),
(628,0,l),
(824,740,l),
(631,740,l),
(511,288,l),
(539,268,l),
(361,740,l),
(184,740,l),
(-13,0,l)
);
},
{
closed = 1;
nodes = (
(703,822,o),
(730,900,o),
(751,981,c),
(658,981,l),
(648,946,o),
(637,928,o),
(618,928,cs),
(584,928,o),
(556,987,o),
(483,987,cs),
(392,987,o),
(366,910,o),
(345,828,c),
(438,828,l),
(446,862,o),
(459,881,o),
(477,881,cs),
(512,881,o),
(540,822,o),
(613,822,cs)
);
}
);
width = 759;
},
{
layerId = "96AFF54B-CDB9-40A8-9C60-2DEF28996F09";
shapes = (
{
closed = 1;
nodes = (
(112,0,l),
(274,610,l),
(245,601,l),
(498,0,l),
(586,0,l),
(782,740,l),
(684,740,l),
(523,131,l),
(551,138,l),
(298,740,l),
(210,740,l),
(14,0,l)
);
},
{
closed = 1;
nodes = (
(658,826,o),
(687,876,o),
(706,958,c),
(645,958,l),
(636,916,o),
(625,893,o),
(602,893,cs),
(565,893,o),
(546,963,o),
(476,963,cs),
(416,963,o),
(387,914,o),
(368,832,c),
(430,832,l),
(439,874,o),
(453,898,o),
(473,898,cs),
(511,898,o),
(531,826,o),
(600,826,cs)
);
}
);
width = 736;
},
{
layerId = "6FA1D1A9-9908-45CC-BE31-7B82C0699C2A";
shapes = (
{
closed = 1;
nodes = (
(55,0,l),
(249,731,l),
(224,721,l),
(521,0,l),
(557,0,l),
(753,740,l),
(718,740,l),
(525,11,l),
(549,20,l),
(252,740,l),
(216,740,l),
(20,0,l)
);
},
{
closed = 1;
nodes = (
(631,831,o),
(659,878,o),
(673,936,c),
(641,936,l),
(631,887,o),
(613,860,o),
(589,860,cs),
(548,860,o),
(550,941,o),
(487,941,cs),
(440,941,o),
(411,898,o),
(397,836,c),
(429,836,l),
(437,880,o),
(457,912,o),
(483,912,cs),
(525,912,o),
(525,831,o),
(585,831,cs)
);
}
);
width = 716;
}
);
leftKerningGroup = l;
rightKerningGroup = l;
unicode = 209;
},
{
glyphname = O;
layers = (
{
anchors = (
{
name = bottom;
position = "{354, 0}";
},
{
name = center;
position = "{450, 357}";
},
{
name = ogonek;
position = "{667, 11}";
},
{
name = top;
position = "{501, 738}";
},
{
name = topleft;
position = "{186, 738}";
},
{
name = topright;
position = "{505, 750}";
}
);
layerId = "75B83567-2B70-4CA3-ABBB-A798085DCD06";
shapes = (
{
closed = 1;
nodes = (
(665,-10,o),
(816,217,o),
(816,424,cs),
(816,595,o),
(714,750,o),
(488,750,cs),
(215,750,o),
(64,523,o),
(64,316,cs),
(64,145,o),
(166,-10,o),
(393,-10,cs)
);
},
{
closed = 1;
nodes = (
(302,161,o),
(257,235,o),
(257,321,cs),
(257,440,o),
(340,579,o),
(479,579,cs),
(579,579,o),
(624,505,o),
(624,419,cs),
(624,300,o),
(542,161,o),
(403,161,cs)
);
}
);
width = 824;
},
{
anchors = (
{
name = bottom;
position = "{319, 0}";
},
{
name = center;
position = "{410, 295}";
},
{
name = ogonek;
position = "{647, 11}";
},
{
name = top;
position = "{478, 738}";
},
{
name = topleft;
position = "{165, 738}";
},
{
name = topright;
position = "{467, 750}";
}
);
layerId = "96AFF54B-CDB9-40A8-9C60-2DEF28996F09";
shapes = (
{
closed = 1;
nodes = (
(612,-10,o),
(760,229,o),
(760,440,cs),
(760,604,o),
(671,750,o),
(467,750,cs),
(208,750,o),
(59,512,o),
(59,300,cs),
(59,135,o),
(149,-10,o),
(353,-10,cs)
);
},
{
closed = 1;
nodes = (
(219,79,o),
(159,182,o),
(159,302,cs),
(159,467,o),
(271,662,o),
(463,662,cs),
(603,662,o),
(661,557,o),
(661,437,cs),
(661,273,o),
(550,79,o),
(357,79,cs)
);
}
);
width = 777;
},
{
anchors = (
{
name = bottom;
position = "{317, 0}";
},
{
name = center;
position = "{429, 371}";
},
{
name = ogonek;
position = "{645, 11}";
},
{
name = top;
position = "{489, 738}";
},
{
name = topleft;
position = "{159, 738}";
},
{
name = topright;
position = "{466, 750}";
}
);
layerId = "6FA1D1A9-9908-45CC-BE31-7B82C0699C2A";
shapes = (
{
closed = 1;
nodes = (
(589,-10,o),
(735,236,o),
(735,450,cs),
(735,610,o),
(653,750,o),
(466,750,cs),
(217,750,o),
(70,504,o),
(70,290,cs),
(70,129,o),
(152,-10,o),
(340,-10,cs)
);
},
{
closed = 1;
nodes = (
(165,24,o),
(106,161,o),
(106,290,cs),
(106,471,o),
(227,716,o),
(466,716,cs),
(641,716,o),
(699,579,o),
(699,450,cs),
(699,268,o),
(579,24,o),
(340,24,cs)
);
}
);
width = 775;
}
);
leftKerningGroup = O;
rightKerningGroup = O;
unicode = 79;
},
{
glyphname = Oacute;
layers = (
{
layerId = "75B83567-2B70-4CA3-ABBB-A798085DCD06";
shapes = (
{
closed = 1;
nodes = (
(665,-10,o),
(816,217,o),
(816,424,cs),
(816,595,o),
(714,750,o),
(488,750,cs),
(215,750,o),
(64,523,o),
(64,316,cs),
(64,145,o),
(166,-10,o),
(393,-10,cs)
);
},
{
closed = 1;
nodes = (
(302,161,o),
(257,235,o),
(257,321,cs),
(257,440,o),
(340,579,o),
(479,579,cs),
(579,579,o),
(624,505,o),
(624,419,cs),
(624,300,o),
(542,161,o),
(403,161,cs)
);
},
{
closed = 1;
nodes = (
(712,987,l),
(542,987,l),
(465,808,l),
(598,807,l)
);
}
);
width = 824;
},
{
layerId = "96AFF54B-CDB9-40A8-9C60-2DEF28996F09";
shapes = (
{
closed = 1;
nodes = (
(612,-10,o),
(760,229,o),
(760,440,cs),
(760,604,o),
(671,750,o),
(467,750,cs),
(208,750,o),
(59,512,o),
(59,300,cs),
(59,135,o),
(149,-10,o),
(353,-10,cs)
);
},
{
closed = 1;
nodes = (
(219,79,o),
(159,182,o),
(159,302,cs),
(159,467,o),
(271,662,o),
(463,662,cs),
(603,662,o),
(661,557,o),
(661,437,cs),
(661,273,o),
(550,79,o),
(357,79,cs)
);
},
{
closed = 1;
nodes = (
(659,999,l),
(564,999,l),
(470,819,l),
(547,818,l)
);
}
);
width = 777;
},
{
layerId = "6FA1D1A9-9908-45CC-BE31-7B82C0699C2A";
shapes = (
{
closed = 1;
nodes = (
(589,-10,o),
(735,236,o),
(735,450,cs),
(735,610,o),
(653,750,o),
(466,750,cs),
(217,750,o),
(70,504,o),
(70,290,cs),
(70,129,o),
(152,-10,o),
(340,-10,cs)
);
},
{
closed = 1;
nodes = (
(165,24,o),
(106,161,o),
(106,290,cs),
(106,471,o),
(227,716,o),
(466,716,cs),
(641,716,o),
(699,579,o),
(699,450,cs),
(699,268,o),
(579,24,o),
(340,24,cs)
);
},
{
closed = 1;
nodes = (
(598,978,l),
(562,978,l),
(492,826,l),
(521,826,l)
);
}
);
width = 775;
}
);
leftKerningGroup = O;
rightKerningGroup = O;
unicode = 211;
},
{
glyphname = Ocircumflex;
layers = (
{
layerId = "75B83567-2B70-4CA3-ABBB-A798085DCD06";
shapes = (
{
closed = 1;
nodes = (
(665,-10,o),
(816,217,o),
(816,424,cs),
(816,595,o),
(714,750,o),
(488,750,cs),
(215,750,o),
(64,523,o),
(64,316,cs),
(64,145,o),
(166,-10,o),
(393,-10,cs)
);
},
{
closed = 1;
nodes = (
(302,161,o),
(257,235,o),
(257,321,cs),
(257,440,o),
(340,579,o),
(479,579,cs),
(579,579,o),
(624,505,o),
(624,419,cs),
(624,300,o),
(542,161,o),
(403,161,cs)
);
},
{
closed = 1;
nodes = (
(452,797,l),
(541,883,l),
(587,797,l),
(718,797,l),
(625,956,l),
(478,956,l),
(301,797,l)
);
}
);
width = 824;
},
{
layerId = "96AFF54B-CDB9-40A8-9C60-2DEF28996F09";
shapes = (
{
closed = 1;
nodes = (
(612,-10,o),
(760,229,o),
(760,440,cs),
(760,604,o),
(671,750,o),
(467,750,cs),
(208,750,o),
(59,512,o),
(59,300,cs),
(59,135,o),
(149,-10,o),
(353,-10,cs)
);
},
{
closed = 1;
nodes = (
(219,79,o),
(159,182,o),
(159,302,cs),
(159,467,o),
(271,662,o),
(463,662,cs),
(603,662,o),
(661,557,o),
(661,437,cs),
(661,273,o),
(550,79,o),
(357,79,cs)
);
},
{
closed = 1;
nodes = (
(418,814,l),
(517,908,l),
(569,814,l),
(648,814,l),
(565,961,l),
(484,961,l),
(325,814,l)
);
}
);
width = 777;
},
{
layerId = "6FA1D1A9-9908-45CC-BE31-7B82C0699C2A";
shapes = (
{
closed = 1;
nodes = (
(589,-10,o),
(735,236,o),
(735,450,cs),
(735,610,o),
(653,750,o),
(466,750,cs),
(217,750,o),
(70,504,o),
(70,290,cs),
(70,129,o),
(152,-10,o),
(340,-10,cs)
);
},
{
closed = 1;
nodes = (
(165,24,o),
(106,161,o),
(106,290,cs),
(106,471,o),
(227,716,o),
(466,716,cs),
(641,716,o),
(699,579,o),
(699,450,cs),
(699,268,o),
(579,24,o),
(340,24,cs)
);
},
{
closed = 1;
nodes = (
(427,816,l),
(545,928,l),
(604,816,l),
(640,816,l),
(565,954,l),
(528,954,l),
(381,816,l)
);
}
);
width = 775;
}
);
leftKerningGroup = O;
rightKerningGroup = O;
unicode = 212;
},
{
glyphname = Ocircumflexacute;
layers = (
{
layerId = "75B83567-2B70-4CA3-ABBB-A798085DCD06";
shapes = (
{
closed = 1;
nodes = (
(665,-10,o),
(816,217,o),
(816,424,cs),
(816,595,o),
(714,750,o),
(488,750,cs),
(215,750,o),
(64,523,o),
(64,316,cs),
(64,145,o),
(166,-10,o),
(393,-10,cs)
);
},
{
closed = 1;
nodes = (
(302,161,o),
(257,235,o),
(257,321,cs),
(257,440,o),
(340,579,o),
(479,579,cs),
(579,579,o),
(624,505,o),
(624,419,cs),
(624,300,o),
(542,161,o),
(403,161,cs)
);
},
{
closed = 1;
nodes = (
(452,797,l),
(541,883,l),
(587,797,l),
(718,797,l),
(626,956,l),
(479,956,l),
(301,797,l)
);
},
{
closed = 1;
nodes = (
(940,1107,l),
(770,1107,l),
(693,928,l),
(826,927,l)
);
}
);
width = 824;
},
{
layerId = "96AFF54B-CDB9-40A8-9C60-2DEF28996F09";
shapes = (
{
closed = 1;
nodes = (
(612,-10,o),
(760,229,o),
(760,440,cs),
(760,604,o),
(671,750,o),
(467,750,cs),
(208,750,o),
(59,512,o),
(59,300,cs),
(59,135,o),
(149,-10,o),
(353,-10,cs)
);
},
{
closed = 1;
nodes = (
(219,79,o),
(159,182,o),
(159,302,cs),
(159,467,o),
(271,662,o),
(463,662,cs),
(603,662,o),
(661,557,o),
(661,437,cs),
(661,273,o),
(550,79,o),
(357,79,cs)
);
},
{
closed = 1;
nodes = (
(431,814,l),
(529,908,l),
(582,814,l),
(660,814,l),
(578,961,l),
(497,961,l),
(337,814,l)
);
},
{
closed = 1;
nodes = (
(844,1123,l),
(750,1123,l),
(655,943,l),
(732,942,l)
);
}
);
width = 777;
},
{
layerId = "6FA1D1A9-9908-45CC-BE31-7B82C0699C2A";
shapes = (
{
closed = 1;
nodes = (
(589,-10,o),
(735,236,o),
(735,450,cs),
(735,610,o),
(653,750,o),
(466,750,cs),
(217,750,o),
(70,504,o),
(70,290,cs),
(70,129,o),
(152,-10,o),
(340,-10,cs)
);
},
{
closed = 1;
nodes = (
(165,24,o),
(106,161,o),
(106,290,cs),
(106,471,o),
(227,716,o),
(466,716,cs),
(641,716,o),
(699,579,o),
(699,450,cs),
(699,268,o),
(579,24,o),
(340,24,cs)
);
},
{
closed = 1;
nodes = (
(426,816,l),
(544,928,l),
(604,816,l),
(639,816,l),
(565,954,l),
(528,954,l),
(380,816,l)
);
},
{
closed = 1;
nodes = (
(759,1087,l),
(723,1087,l),
(653,935,l),
(682,935,l)
);
}
);
width = 775;
}
);
leftKerningGroup = O;
rightKerningGroup = O;
unicode = 7888;
},
{
glyphname = Ocircumflexdotbelow;
layers = (
{
layerId = "75B83567-2B70-4CA3-ABBB-A798085DCD06";
shapes = (
{
closed = 1;
nodes = (
(665,-10,o),
(816,217,o),
(816,424,cs),
(816,595,o),
(714,750,o),
(488,750,cs),
(215,750,o),
(64,523,o),
(64,316,cs),
(64,145,o),
(166,-10,o),
(393,-10,cs)
);
},
{
closed = 1;
nodes = (
(302,161,o),
(257,235,o),
(257,321,cs),
(257,440,o),
(340,579,o),
(479,579,cs),
(579,579,o),
(624,505,o),
(624,419,cs),
(624,300,o),
(542,161,o),
(403,161,cs)
);
},
{
closed = 1;
nodes = (
(360,-260,o),
(398,-220,o),
(398,-171,cs),
(398,-121,o),
(360,-82,o),
(309,-82,cs),
(256,-82,o),
(220,-121,o),
(220,-171,cs),
(220,-220,o),
(256,-260,o),
(309,-260,cs)
);
},
{
closed = 1;
nodes = (
(452,797,l),
(541,883,l),
(587,797,l),
(718,797,l),
(625,956,l),
(478,956,l),
(301,797,l)
);
}
);
width = 824;
},
{
layerId = "96AFF54B-CDB9-40A8-9C60-2DEF28996F09";
shapes = (
{
closed = 1;
nodes = (
(612,-10,o),
(760,229,o),
(760,440,cs),
(760,604,o),
(671,750,o),
(467,750,cs),
(208,750,o),
(59,512,o),
(59,300,cs),
(59,135,o),
(149,-10,o),
(353,-10,cs)
);
},
{
closed = 1;
nodes = (
(219,79,o),
(159,182,o),
(159,302,cs),
(159,467,o),
(271,662,o),
(463,662,cs),
(603,662,o),
(661,557,o),
(661,437,cs),
(661,273,o),
(550,79,o),
(357,79,cs)
);
},
{
closed = 1;
nodes = (
(314,-227,o),
(342,-198,o),
(342,-162,cs),
(342,-126,o),
(314,-97,o),
(277,-97,cs),
(239,-97,o),
(212,-126,o),
(212,-162,cs),
(212,-197,o),
(239,-227,o),
(277,-227,cs)
);
},
{
closed = 1;
nodes = (
(418,814,l),
(517,908,l),
(569,814,l),
(648,814,l),
(565,961,l),
(484,961,l),
(325,814,l)
);
}
);
width = 777;
},
{
layerId = "6FA1D1A9-9908-45CC-BE31-7B82C0699C2A";
shapes = (
{
closed = 1;
nodes = (
(589,-10,o),
(735,236,o),
(735,450,cs),
(735,610,o),
(653,750,o),
(466,750,cs),
(217,750,o),
(70,504,o),
(70,290,cs),
(70,129,o),
(152,-10,o),
(340,-10,cs)
);
},
{
closed = 1;
nodes = (
(165,24,o),
(106,161,o),
(106,290,cs),
(106,471,o),
(227,716,o),
(466,716,cs),
(641,716,o),
(699,579,o),
(699,450,cs),
(699,268,o),
(579,24,o),
(340,24,cs)
);
},
{
closed = 1;
nodes = (
(297,-192,o),
(314,-175,o),
(314,-154,cs),
(314,-134,o),
(297,-117,o),
(276,-117,cs),
(255,-117,o),
(239,-134,o),
(239,-154,cs),
(239,-175,o),
(255,-192,o),
(276,-192,cs)
);
},
{
closed = 1;
nodes = (
(427,816,l),
(545,928,l),
(604,816,l),
(640,816,l),
(565,954,l),
(528,954,l),
(381,816,l)
);
}
);
width = 775;
}
);
leftKerningGroup = O;
rightKerningGroup = O;
unicode = 7896;
},
{
glyphname = Ocircumflexgrave;
layers = (
{
layerId = "75B83567-2B70-4CA3-ABBB-A798085DCD06";
shapes = (
{
closed = 1;
nodes = (
(665,-10,o),
(816,217,o),
(816,424,cs),
(816,595,o),
(714,750,o),
(488,750,cs),
(215,750,o),
(64,523,o),
(64,316,cs),
(64,145,o),
(166,-10,o),
(393,-10,cs)
);
},
{
closed = 1;
nodes = (
(302,161,o),
(257,235,o),
(257,321,cs),
(257,440,o),
(340,579,o),
(479,579,cs),
(579,579,o),
(624,505,o),
(624,419,cs),
(624,300,o),
(542,161,o),
(403,161,cs)
);
},
{
closed = 1;
nodes = (
(452,797,l),
(541,883,l),
(587,797,l),
(718,797,l),
(625,956,l),
(478,956,l),
(301,797,l)
);
},
{
closed = 1;
nodes = (
(823,928,l),
(759,1107,l),
(595,1107,l),
(697,927,l)
);
}
);
width = 824;
},
{
layerId = "96AFF54B-CDB9-40A8-9C60-2DEF28996F09";
shapes = (
{
closed = 1;
nodes = (
(612,-10,o),
(760,229,o),
(760,440,cs),
(760,604,o),
(671,750,o),
(467,750,cs),
(208,750,o),
(59,512,o),
(59,300,cs),
(59,135,o),
(149,-10,o),
(353,-10,cs)
);
},
{
closed = 1;
nodes = (
(219,79,o),
(159,182,o),
(159,302,cs),
(159,467,o),
(271,662,o),
(463,662,cs),
(603,662,o),
(661,557,o),
(661,437,cs),
(661,273,o),
(550,79,o),
(357,79,cs)
);
},
{
closed = 1;
nodes = (
(431,814,l),
(529,908,l),
(582,814,l),
(660,814,l),
(578,961,l),
(497,961,l),
(337,814,l)
);
},
{
closed = 1;
nodes = (
(731,943,l),
(670,1123,l),
(578,1123,l),
(656,942,l)
);
}
);
width = 777;
},
{
layerId = "6FA1D1A9-9908-45CC-BE31-7B82C0699C2A";
shapes = (
{
closed = 1;
nodes = (
(589,-10,o),
(735,236,o),
(735,450,cs),
(735,610,o),
(653,750,o),
(466,750,cs),
(217,750,o),
(70,504,o),
(70,290,cs),
(70,129,o),
(152,-10,o),
(340,-10,cs)
);
},
{
closed = 1;
nodes = (
(165,24,o),
(106,161,o),
(106,290,cs),
(106,471,o),
(227,716,o),
(466,716,cs),
(641,716,o),
(699,579,o),
(699,450,cs),
(699,268,o),
(579,24,o),
(340,24,cs)
);
},
{
closed = 1;
nodes = (
(427,816,l),
(545,928,l),
(604,816,l),
(640,816,l),
(565,954,l),
(528,954,l),
(381,816,l)
);
},
{
closed = 1;
nodes = (
(681,935,l),
(636,1087,l),
(601,1087,l),
(653,935,l)
);
}
);
width = 775;
}
);
leftKerningGroup = O;
rightKerningGroup = O;
unicode = 7890;
},
{
glyphname = Ocircumflexhookabove;
layers = (
{
layerId = "75B83567-2B70-4CA3-ABBB-A798085DCD06";
shapes = (
{
closed = 1;
nodes = (
(665,-10,o),
(816,217,o),
(816,424,cs),
(816,595,o),
(714,750,o),
(488,750,cs),
(215,750,o),
(64,523,o),
(64,316,cs),
(64,145,o),
(166,-10,o),
(393,-10,cs)
);
},
{
closed = 1;
nodes = (
(302,161,o),
(257,235,o),
(257,321,cs),
(257,440,o),
(340,579,o),
(479,579,cs),
(579,579,o),
(624,505,o),
(624,419,cs),
(624,300,o),
(542,161,o),
(403,161,cs)
);
},
{
closed = 1;
nodes = (
(453,797,l),
(543,883,l),
(588,797,l),
(719,797,l),
(627,956,l),
(480,956,l),
(302,797,l)
);
},
{
closed = 1;
nodes = (
(785,905,l),
(805,976,l),
(750,911,l),
(799,935,ls),
(825,947,o),
(916,979,o),
(916,1055,cs),
(916,1108,o),
(871,1156,o),
(789,1156,cs),
(626,1156,o),
(632,1018,o),
(631,1032,c),
(732,1032,l),
(732,1032,o),
(735,1067,o),
(774,1067,cs),
(794,1067,o),
(804,1055,o),
(804,1040,cs),
(804,1023,o),
(790,1009,o),
(751,993,cs),
(732,985,l),
(707,973,o),
(697,956,o),
(692,938,cs),
(683,905,l)
);
}
);
width = 824;
},
{
layerId = "96AFF54B-CDB9-40A8-9C60-2DEF28996F09";
shapes = (
{
closed = 1;
nodes = (
(612,-10,o),
(760,229,o),
(760,440,cs),
(760,604,o),
(671,750,o),
(467,750,cs),
(208,750,o),
(59,512,o),
(59,300,cs),
(59,135,o),
(149,-10,o),
(353,-10,cs)
);
},
{
closed = 1;
nodes = (
(219,79,o),
(159,182,o),
(159,302,cs),
(159,467,o),
(271,662,o),
(463,662,cs),
(603,662,o),
(661,557,o),
(661,437,cs),
(661,273,o),
(550,79,o),
(357,79,cs)
);
},
{
closed = 1;
nodes = (
(418,814,l),
(517,908,l),
(569,814,l),
(648,814,l),
(565,961,l),
(484,961,l),
(325,814,l)
);
},
{
closed = 1;
nodes = (
(694,926,l),
(710,985,l),
(665,942,l),
(691,952,ls),
(752,975,o),
(804,1002,o),
(804,1055,cs),
(804,1095,o),
(777,1139,o),
(705,1139,cs),
(596,1139,o),
(597,1034,o),
(597,1046,c),
(653,1046,l),
(653,1043,o),
(654,1089,o),
(704,1089,cs),
(731,1089,o),
(744,1072,o),
(744,1056,cs),
(744,1032,o),
(723,1014,o),
(684,997,cs),
(669,990,ls),
(657,985,o),
(645,975,o),
(642,959,c),
(633,926,l)
);
}
);
width = 777;
},
{
layerId = "6FA1D1A9-9908-45CC-BE31-7B82C0699C2A";
shapes = (
{
closed = 1;
nodes = (
(589,-10,o),
(735,236,o),
(735,450,cs),
(735,610,o),
(653,750,o),
(466,750,cs),
(217,750,o),
(70,504,o),
(70,290,cs),
(70,129,o),
(152,-10,o),
(340,-10,cs)
);
},
{
closed = 1;
nodes = (
(165,24,o),
(106,161,o),
(106,290,cs),
(106,471,o),
(227,716,o),
(466,716,cs),
(641,716,o),
(699,579,o),
(699,450,cs),
(699,268,o),
(579,24,o),
(340,24,cs)
);
},
{
closed = 1;
nodes = (
(427,816,l),
(545,928,l),
(604,816,l),
(640,816,l),
(565,954,l),
(528,954,l),
(381,816,l)
);
},
{
closed = 1;
nodes = (
(674,921,l),
(688,972,l),
(657,942,l),
(684,953,ls),
(744,978,o),
(781,1004,o),
(781,1046,cs),
(781,1078,o),
(760,1112,o),
(707,1112,cs),
(618,1112,o),
(618,1023,o),
(618,1035,c),
(647,1035,l),
(647,1029,o),
(648,1084,o),
(705,1084,cs),
(736,1084,o),
(751,1065,o),
(751,1046,cs),
(751,1019,o),
(729,998,o),
(687,981,cs),
(673,975,ls),
(664,971,o),
(657,963,o),
(655,953,c),
(646,921,l)
);
}
);
width = 775;
}
);
leftKerningGroup = O;
rightKerningGroup = O;
unicode = 7892;
},
{
glyphname = Ocircumflextilde;
layers = (
{
layerId = "75B83567-2B70-4CA3-ABBB-A798085DCD06";
shapes = (
{
closed = 1;
nodes = (
(665,-10,o),
(816,217,o),
(816,424,cs),
(816,595,o),
(714,750,o),
(488,750,cs),
(215,750,o),
(64,523,o),
(64,316,cs),
(64,145,o),
(166,-10,o),
(393,-10,cs)
);
},
{
closed = 1;
nodes = (
(302,161,o),
(257,235,o),
(257,321,cs),
(257,440,o),
(340,579,o),
(479,579,cs),
(579,579,o),
(624,505,o),
(624,419,cs),
(624,300,o),
(542,161,o),
(403,161,cs)
);
},
{
closed = 1;
nodes = (
(452,797,l),
(541,883,l),
(587,797,l),
(718,797,l),
(626,956,l),
(479,956,l),
(301,797,l)
);
},
{
closed = 1;
nodes = (
(738,990,o),
(765,1067,o),
(786,1149,c),
(693,1149,l),
(683,1113,o),
(672,1096,o),
(653,1096,cs),
(619,1096,o),
(591,1155,o),
(518,1155,cs),
(427,1155,o),
(401,1077,o),
(380,996,c),
(473,996,l),
(481,1030,o),
(494,1049,o),
(512,1049,cs),
(547,1049,o),
(575,990,o),
(648,990,cs)
);
}
);
width = 824;
},
{
layerId = "96AFF54B-CDB9-40A8-9C60-2DEF28996F09";
shapes = (
{
closed = 1;
nodes = (
(612,-10,o),
(760,229,o),
(760,440,cs),
(760,604,o),
(671,750,o),
(467,750,cs),
(208,750,o),
(59,512,o),
(59,300,cs),
(59,135,o),
(149,-10,o),
(353,-10,cs)
);
},
{
closed = 1;
nodes = (
(219,79,o),
(159,182,o),
(159,302,cs),
(159,467,o),
(271,662,o),
(463,662,cs),
(603,662,o),
(661,557,o),
(661,437,cs),
(661,273,o),
(550,79,o),
(357,79,cs)
);
},
{
closed = 1;
nodes = (
(418,814,l),
(517,908,l),
(569,814,l),
(648,814,l),
(566,961,l),
(485,961,l),
(325,814,l)
);
},
{
closed = 1;
nodes = (
(671,998,o),
(700,1049,o),
(719,1131,c),
(657,1131,l),
(649,1089,o),
(637,1066,o),
(615,1066,cs),
(578,1066,o),
(559,1136,o),
(489,1136,cs),
(429,1136,o),
(400,1086,o),
(381,1004,c),
(443,1004,l),
(451,1047,o),
(465,1071,o),
(486,1071,cs),
(524,1071,o),
(544,998,o),
(612,998,cs)
);
}
);
width = 777;
},
{
layerId = "6FA1D1A9-9908-45CC-BE31-7B82C0699C2A";
shapes = (
{
closed = 1;
nodes = (
(589,-10,o),
(735,236,o),
(735,450,cs),
(735,610,o),
(653,750,o),
(466,750,cs),
(217,750,o),
(70,504,o),
(70,290,cs),
(70,129,o),
(152,-10,o),
(340,-10,cs)
);
},
{
closed = 1;
nodes = (
(165,24,o),
(106,161,o),
(106,290,cs),
(106,471,o),
(227,716,o),
(466,716,cs),
(641,716,o),
(699,579,o),
(699,450,cs),
(699,268,o),
(579,24,o),
(340,24,cs)
);
},
{
closed = 1;
nodes = (
(428,816,l),
(546,928,l),
(605,816,l),
(641,816,l),
(566,954,l),
(529,954,l),
(382,816,l)
);
},
{
closed = 1;
nodes = (
(662,994,o),
(690,1041,o),
(704,1099,c),
(672,1099,l),
(662,1049,o),
(644,1023,o),
(620,1023,cs),
(579,1023,o),
(581,1104,o),
(518,1104,cs),
(471,1104,o),
(442,1060,o),
(428,999,c),
(460,999,l),
(468,1043,o),
(488,1075,o),
(514,1075,cs),
(556,1075,o),
(556,994,o),
(616,994,cs)
);
}
);
width = 775;
}
);
leftKerningGroup = O;
rightKerningGroup = O;
unicode = 7894;
},
{
glyphname = Odieresis;
layers = (
{
layerId = "75B83567-2B70-4CA3-ABBB-A798085DCD06";
shapes = (
{
closed = 1;
nodes = (
(665,-10,o),
(816,217,o),
(816,424,cs),
(816,595,o),
(714,750,o),
(488,750,cs),
(215,750,o),
(64,523,o),
(64,316,cs),
(64,145,o),
(166,-10,o),
(393,-10,cs)
);
},
{
closed = 1;
nodes = (
(302,161,o),
(257,235,o),
(257,321,cs),
(257,440,o),
(340,579,o),
(479,579,cs),
(579,579,o),
(624,505,o),
(624,419,cs),
(624,300,o),
(542,161,o),
(403,161,cs)
);
},
{
closed = 1;
nodes = (
(724,786,o),
(767,830,o),
(767,883,cs),
(767,938,o),
(724,981,o),
(665,981,cs),
(605,981,o),
(563,938,o),
(563,883,cs),
(563,830,o),
(605,786,o),
(665,786,cs)
);
},
{
closed = 1;
nodes = (
(474,786,o),
(517,830,o),
(517,883,cs),
(517,938,o),
(474,981,o),
(415,981,cs),
(355,981,o),
(313,938,o),
(313,883,cs),
(313,830,o),
(355,786,o),
(415,786,cs)
);
}
);
width = 824;
},
{
layerId = "96AFF54B-CDB9-40A8-9C60-2DEF28996F09";
shapes = (
{
closed = 1;
nodes = (
(612,-10,o),
(760,229,o),
(760,440,cs),
(760,604,o),
(671,750,o),
(467,750,cs),
(208,750,o),
(59,512,o),
(59,300,cs),
(59,135,o),
(149,-10,o),
(353,-10,cs)
);
},
{
closed = 1;
nodes = (
(219,79,o),
(159,182,o),
(159,302,cs),
(159,467,o),
(271,662,o),
(463,662,cs),
(603,662,o),
(661,557,o),
(661,437,cs),
(661,273,o),
(550,79,o),
(357,79,cs)
);
},
{
closed = 1;
nodes = (
(646,819,o),
(673,846,o),
(673,880,cs),
(673,914,o),
(646,942,o),
(611,942,cs),
(575,942,o),
(549,914,o),
(549,880,cs),
(549,847,o),
(575,819,o),
(611,819,cs)
);
},
{
closed = 1;
nodes = (
(456,819,o),
(483,846,o),
(483,880,cs),
(483,914,o),
(456,942,o),
(421,942,cs),
(385,942,o),
(359,914,o),
(359,880,cs),
(359,847,o),
(385,819,o),
(421,819,cs)
);
}
);
width = 777;
},
{
layerId = "6FA1D1A9-9908-45CC-BE31-7B82C0699C2A";
shapes = (
{
closed = 1;
nodes = (
(589,-10,o),
(735,236,o),
(735,450,cs),
(735,610,o),
(653,750,o),
(466,750,cs),
(217,750,o),
(70,504,o),
(70,290,cs),
(70,129,o),
(152,-10,o),
(340,-10,cs)
);
},
{
closed = 1;
nodes = (
(165,24,o),
(106,161,o),
(106,290,cs),
(106,471,o),
(227,716,o),
(466,716,cs),
(641,716,o),
(699,579,o),
(699,450,cs),
(699,268,o),
(579,24,o),
(340,24,cs)
);
},
{
closed = 1;
nodes = (
(614,838,o),
(630,854,o),
(630,874,cs),
(630,893,o),
(614,910,o),
(594,910,cs),
(574,910,o),
(559,893,o),
(559,874,cs),
(559,854,o),
(574,838,o),
(594,838,cs)
);
},
{
closed = 1;
nodes = (
(475,838,o),
(491,854,o),
(491,874,cs),
(491,893,o),
(475,910,o),
(455,910,cs),
(435,910,o),
(420,893,o),
(420,874,cs),
(420,854,o),
(435,838,o),
(455,838,cs)
);
}
);
width = 775;
}
);
leftKerningGroup = O;
rightKerningGroup = O;
unicode = 214;
},
{
glyphname = Odotbelow;
layers = (
{
layerId = "75B83567-2B70-4CA3-ABBB-A798085DCD06";
shapes = (
{
closed = 1;
nodes = (
(665,-10,o),
(816,217,o),
(816,424,cs),
(816,595,o),
(714,750,o),
(488,750,cs),
(215,750,o),
(64,523,o),
(64,316,cs),
(64,145,o),
(166,-10,o),
(393,-10,cs)
);
},
{
closed = 1;
nodes = (
(302,161,o),
(257,235,o),
(257,321,cs),
(257,440,o),
(340,579,o),
(479,579,cs),
(579,579,o),
(624,505,o),
(624,419,cs),
(624,300,o),
(542,161,o),
(403,161,cs)
);
},
{
closed = 1;
nodes = (
(360,-260,o),
(398,-220,o),
(398,-171,cs),
(398,-121,o),
(360,-82,o),
(309,-82,cs),
(256,-82,o),
(220,-121,o),
(220,-171,cs),
(220,-220,o),
(256,-260,o),
(309,-260,cs)
);
}
);
width = 824;
},
{
layerId = "96AFF54B-CDB9-40A8-9C60-2DEF28996F09";
shapes = (
{
closed = 1;
nodes = (
(612,-10,o),
(760,229,o),
(760,440,cs),
(760,604,o),
(671,750,o),
(467,750,cs),
(208,750,o),
(59,512,o),
(59,300,cs),
(59,135,o),
(149,-10,o),
(353,-10,cs)
);
},
{
closed = 1;
nodes = (
(219,79,o),
(159,182,o),
(159,302,cs),
(159,467,o),
(271,662,o),
(463,662,cs),
(603,662,o),
(661,557,o),
(661,437,cs),
(661,273,o),
(550,79,o),
(357,79,cs)
);
},
{
closed = 1;
nodes = (
(314,-227,o),
(342,-198,o),
(342,-162,cs),
(342,-126,o),
(314,-97,o),
(277,-97,cs),
(239,-97,o),
(212,-126,o),
(212,-162,cs),
(212,-197,o),
(239,-227,o),
(277,-227,cs)
);
}
);
width = 777;
},
{
layerId = "6FA1D1A9-9908-45CC-BE31-7B82C0699C2A";
shapes = (
{
closed = 1;
nodes = (
(589,-10,o),
(735,236,o),
(735,450,cs),
(735,610,o),
(653,750,o),
(466,750,cs),
(217,750,o),
(70,504,o),
(70,290,cs),
(70,129,o),
(152,-10,o),
(340,-10,cs)
);
},
{
closed = 1;
nodes = (
(165,24,o),
(106,161,o),
(106,290,cs),
(106,471,o),
(227,716,o),
(466,716,cs),
(641,716,o),
(699,579,o),
(699,450,cs),
(699,268,o),
(579,24,o),
(340,24,cs)
);
},
{
closed = 1;
nodes = (
(297,-192,o),
(314,-175,o),
(314,-154,cs),
(314,-134,o),
(297,-117,o),
(276,-117,cs),
(255,-117,o),
(239,-134,o),
(239,-154,cs),
(239,-175,o),
(255,-192,o),
(276,-192,cs)
);
}
);
width = 775;
}
);
leftKerningGroup = O;
rightKerningGroup = O;
unicode = 7884;
},
{
glyphname = Ograve;
layers = (
{
layerId = "75B83567-2B70-4CA3-ABBB-A798085DCD06";
shapes = (
{
closed = 1;
nodes = (
(665,-10,o),
(816,217,o),
(816,424,cs),
(816,595,o),
(714,750,o),
(488,750,cs),
(215,750,o),
(64,523,o),
(64,316,cs),
(64,145,o),
(166,-10,o),
(393,-10,cs)
);
},
{
closed = 1;
nodes = (
(302,161,o),
(257,235,o),
(257,321,cs),
(257,440,o),
(340,579,o),
(479,579,cs),
(579,579,o),
(624,505,o),
(624,419,cs),
(624,300,o),
(542,161,o),
(403,161,cs)
);
},
{
closed = 1;
nodes = (
(571,808,l),
(506,987,l),
(342,987,l),
(444,807,l)
);
}
);
width = 824;
},
{
layerId = "96AFF54B-CDB9-40A8-9C60-2DEF28996F09";
shapes = (
{
closed = 1;
nodes = (
(612,-10,o),
(760,229,o),
(760,440,cs),
(760,604,o),
(671,750,o),
(467,750,cs),
(208,750,o),
(59,512,o),
(59,300,cs),
(59,135,o),
(149,-10,o),
(353,-10,cs)
);
},
{
closed = 1;
nodes = (
(219,79,o),
(159,182,o),
(159,302,cs),
(159,467,o),
(271,662,o),
(463,662,cs),
(603,662,o),
(661,557,o),
(661,437,cs),
(661,273,o),
(550,79,o),
(357,79,cs)
);
},
{
closed = 1;
nodes = (
(523,819,l),
(462,999,l),
(370,999,l),
(448,818,l)
);
}
);
width = 777;
},
{
layerId = "6FA1D1A9-9908-45CC-BE31-7B82C0699C2A";
shapes = (
{
closed = 1;
nodes = (
(589,-10,o),
(735,236,o),
(735,450,cs),
(735,610,o),
(653,750,o),
(466,750,cs),
(217,750,o),
(70,504,o),
(70,290,cs),
(70,129,o),
(152,-10,o),
(340,-10,cs)
);
},
{
closed = 1;
nodes = (
(165,24,o),
(106,161,o),
(106,290,cs),
(106,471,o),
(227,716,o),
(466,716,cs),
(641,716,o),
(699,579,o),
(699,450,cs),
(699,268,o),
(579,24,o),
(340,24,cs)
);
},
{
closed = 1;
nodes = (
(520,826,l),
(475,978,l),
(440,978,l),
(492,826,l)
);
}
);
width = 775;
}
);
leftKerningGroup = O;
rightKerningGroup = O;
unicode = 210;
},
{
glyphname = Ohookabove;
layers = (
{
layerId = "75B83567-2B70-4CA3-ABBB-A798085DCD06";
shapes = (
{
closed = 1;
nodes = (
(665,-10,o),
(816,217,o),
(816,424,cs),
(816,595,o),
(714,750,o),
(488,750,cs),
(215,750,o),
(64,523,o),
(64,316,cs),
(64,145,o),
(166,-10,o),
(393,-10,cs)
);
},
{
closed = 1;
nodes = (
(302,161,o),
(257,235,o),
(257,321,cs),
(257,440,o),
(340,579,o),
(479,579,cs),
(579,579,o),
(624,505,o),
(624,419,cs),
(624,300,o),
(542,161,o),
(403,161,cs)
);
},
{
closed = 1;
nodes = (
(562,793,l),
(582,864,l),
(527,799,l),
(576,823,ls),
(602,835,o),
(693,867,o),
(693,943,cs),
(693,996,o),
(648,1044,o),
(566,1044,cs),
(403,1044,o),
(409,906,o),
(408,920,c),
(509,920,l),
(509,920,o),
(512,955,o),
(551,955,cs),
(571,955,o),
(581,943,o),
(581,928,cs),
(581,911,o),
(567,897,o),
(528,881,cs),
(509,873,l),
(484,861,o),
(474,844,o),
(469,826,cs),
(460,793,l)
);
}
);
width = 824;
},
{
layerId = "96AFF54B-CDB9-40A8-9C60-2DEF28996F09";
shapes = (
{
closed = 1;
nodes = (
(612,-10,o),
(760,229,o),
(760,440,cs),
(760,604,o),
(671,750,o),
(467,750,cs),
(208,750,o),
(59,512,o),
(59,300,cs),
(59,135,o),
(149,-10,o),
(353,-10,cs)
);
},
{
closed = 1;
nodes = (
(219,79,o),
(159,182,o),
(159,302,cs),
(159,467,o),
(271,662,o),
(463,662,cs),
(603,662,o),
(661,557,o),
(661,437,cs),
(661,273,o),
(550,79,o),
(357,79,cs)
);
},
{
closed = 1;
nodes = (
(521,802,l),
(537,861,l),
(492,818,l),
(518,828,ls),
(579,851,o),
(631,878,o),
(631,931,cs),
(631,971,o),
(604,1015,o),
(532,1015,cs),
(423,1015,o),
(424,910,o),
(424,922,c),
(480,922,l),
(480,919,o),
(481,965,o),
(531,965,cs),
(558,965,o),
(571,948,o),
(571,932,cs),
(571,908,o),
(550,890,o),
(511,873,cs),
(496,866,ls),
(484,861,o),
(472,851,o),
(469,835,c),
(460,802,l)
);
}
);
width = 777;
},
{
layerId = "6FA1D1A9-9908-45CC-BE31-7B82C0699C2A";
shapes = (
{
closed = 1;
nodes = (
(589,-10,o),
(735,236,o),
(735,450,cs),
(735,610,o),
(653,750,o),
(466,750,cs),
(217,750,o),
(70,504,o),
(70,290,cs),
(70,129,o),
(152,-10,o),
(340,-10,cs)
);
},
{
closed = 1;
nodes = (
(165,24,o),
(106,161,o),
(106,290,cs),
(106,471,o),
(227,716,o),
(466,716,cs),
(641,716,o),
(699,579,o),
(699,450,cs),
(699,268,o),
(579,24,o),
(340,24,cs)
);
},
{
closed = 1;
nodes = (
(512,812,l),
(526,863,l),
(495,833,l),
(522,844,ls),
(582,869,o),
(619,895,o),
(619,937,cs),
(619,969,o),
(598,1003,o),
(545,1003,cs),
(456,1003,o),
(456,914,o),
(456,926,c),
(485,926,l),
(485,920,o),
(486,975,o),
(543,975,cs),
(574,975,o),
(589,956,o),
(589,937,cs),
(589,910,o),
(567,889,o),
(525,872,cs),
(511,866,ls),
(502,862,o),
(495,854,o),
(493,844,c),
(484,812,l)
);
}
);
width = 775;
}
);
leftKerningGroup = O;
rightKerningGroup = O;
unicode = 7886;
},
{
glyphname = Ohorn;
layers = (
{
layerId = "75B83567-2B70-4CA3-ABBB-A798085DCD06";
shapes = (
{
closed = 1;
nodes = (
(665,-10,o),
(816,217,o),
(816,424,cs),
(816,595,o),
(714,750,o),
(488,750,cs),
(215,750,o),
(64,523,o),
(64,316,cs),
(64,145,o),
(166,-10,o),
(393,-10,cs)
);
},
{
closed = 1;
nodes = (
(302,161,o),
(257,235,o),
(257,321,cs),
(257,440,o),
(340,579,o),
(479,579,cs),
(579,579,o),
(624,505,o),
(624,419,cs),
(624,300,o),
(542,161,o),
(403,161,cs)
);
},
{
closed = 1;
nodes = (
(759,868,l),
(737,785,l),
(730,761,o),
(714,750,o),
(689,750,cs),
(505,750,l),
(479,652,l),
(750,652,ls),
(830,652,o),
(868,692,o),
(887,755,c),
(916,868,l)
);
}
);
width = 824;
},
{
layerId = "96AFF54B-CDB9-40A8-9C60-2DEF28996F09";
shapes = (
{
closed = 1;
nodes = (
(612,-10,o),
(760,229,o),
(760,440,cs),
(760,604,o),
(671,750,o),
(467,750,cs),
(208,750,o),
(59,512,o),
(59,300,cs),
(59,135,o),
(149,-10,o),
(353,-10,cs)
);
},
{
closed = 1;
nodes = (
(219,79,o),
(159,182,o),
(159,302,cs),
(159,467,o),
(271,662,o),
(463,662,cs),
(603,662,o),
(661,557,o),
(661,437,cs),
(661,273,o),
(550,79,o),
(357,79,cs)
);
},
{
closed = 1;
nodes = (
(716,851,l),
(701,791,ls),
(693,762,o),
(679,750,o),
(645,750,cs),
(469,750,l),
(453,688,l),
(679,688,ls),
(735,688,o),
(768,717,o),
(783,770,c),
(804,851,l)
);
}
);
width = 777;
},
{
layerId = "6FA1D1A9-9908-45CC-BE31-7B82C0699C2A";
shapes = (
{
closed = 1;
nodes = (
(589,-10,o),
(735,236,o),
(735,450,cs),
(735,610,o),
(653,750,o),
(466,750,cs),
(217,750,o),
(70,504,o),
(70,290,cs),
(70,129,o),
(152,-10,o),
(340,-10,cs)
);
},
{
closed = 1;
nodes = (
(165,24,o),
(106,161,o),
(106,290,cs),
(106,471,o),
(227,716,o),
(466,716,cs),
(641,716,o),
(699,579,o),
(699,450,cs),
(699,268,o),
(579,24,o),
(340,24,cs)
);
},
{
closed = 1;
nodes = (
(699,840,l),
(692,808,ls),
(682,767,o),
(661,750,o),
(616,750,cs),
(466,750,l),
(459,722,l),
(615,722,ls),
(677,722,o),
(711,749,o),
(725,808,cs),
(732,840,l)
);
}
);
width = 775;
}
);
leftKerningGroup = O;
rightKerningGroup = O;
unicode = 416;
},
{
glyphname = Ohornacute;
layers = (
{
layerId = "75B83567-2B70-4CA3-ABBB-A798085DCD06";
shapes = (
{
closed = 1;
nodes = (
(665,-10,o),
(816,217,o),
(816,424,cs),
(816,595,o),
(714,750,o),
(488,750,cs),
(215,750,o),
(64,523,o),
(64,316,cs),
(64,145,o),
(166,-10,o),
(393,-10,cs)
);
},
{
closed = 1;
nodes = (
(302,161,o),
(257,235,o),
(257,321,cs),
(257,440,o),
(340,579,o),
(479,579,cs),
(579,579,o),
(624,505,o),
(624,419,cs),
(624,300,o),
(542,161,o),
(403,161,cs)
);
},
{
closed = 1;
nodes = (
(759,868,l),
(737,785,l),
(730,761,o),
(714,750,o),
(689,750,cs),
(505,750,l),
(479,652,l),
(750,652,ls),
(830,652,o),
(868,692,o),
(887,755,c),
(916,868,l)
);
},
{
closed = 1;
nodes = (
(715,989,l),
(545,989,l),
(468,810,l),
(601,809,l)
);
}
);
width = 824;
},
{
layerId = "96AFF54B-CDB9-40A8-9C60-2DEF28996F09";
shapes = (
{
closed = 1;
nodes = (
(612,-10,o),
(760,229,o),
(760,440,cs),
(760,604,o),
(671,750,o),
(467,750,cs),
(208,750,o),
(59,512,o),
(59,300,cs),
(59,135,o),
(149,-10,o),
(353,-10,cs)
);
},
{
closed = 1;
nodes = (
(219,79,o),
(159,182,o),
(159,302,cs),
(159,467,o),
(271,662,o),
(463,662,cs),
(603,662,o),
(661,557,o),
(661,437,cs),
(661,273,o),
(550,79,o),
(357,79,cs)
);
},
{
closed = 1;
nodes = (
(716,851,l),
(701,791,ls),
(693,762,o),
(679,750,o),
(645,750,cs),
(469,750,l),
(453,688,l),
(679,688,ls),
(735,688,o),
(768,717,o),
(783,770,c),
(804,851,l)
);
},
{
closed = 1;
nodes = (
(671,1001,l),
(577,1001,l),
(482,821,l),
(559,820,l)
);
}
);
width = 777;
},
{
layerId = "6FA1D1A9-9908-45CC-BE31-7B82C0699C2A";
shapes = (
{
closed = 1;
nodes = (
(589,-10,o),
(735,236,o),
(735,450,cs),
(735,610,o),
(653,750,o),
(466,750,cs),
(217,750,o),
(70,504,o),
(70,290,cs),
(70,129,o),
(152,-10,o),
(340,-10,cs)
);
},
{
closed = 1;
nodes = (
(165,24,o),
(106,161,o),
(106,290,cs),
(106,471,o),
(227,716,o),
(466,716,cs),
(641,716,o),
(699,579,o),
(699,450,cs),
(699,268,o),
(579,24,o),
(340,24,cs)
);
},
{
closed = 1;
nodes = (
(699,840,l),
(692,808,ls),
(682,767,o),
(661,750,o),
(616,750,cs),
(466,750,l),
(459,722,l),
(615,722,ls),
(677,722,o),
(711,749,o),
(725,808,cs),
(732,840,l)
);
},
{
closed = 1;
nodes = (
(598,980,l),
(562,980,l),
(492,828,l),
(521,828,l)
);
}
);
width = 775;
}
);
leftKerningGroup = O;
rightKerningGroup = O;
unicode = 7898;
},
{
glyphname = Ohorndotbelow;
layers = (
{
layerId = "75B83567-2B70-4CA3-ABBB-A798085DCD06";
shapes = (
{
closed = 1;
nodes = (
(665,-10,o),
(816,217,o),
(816,424,cs),
(816,595,o),
(714,750,o),
(488,750,cs),
(215,750,o),
(64,523,o),
(64,316,cs),
(64,145,o),
(166,-10,o),
(393,-10,cs)
);
},
{
closed = 1;
nodes = (
(302,161,o),
(257,235,o),
(257,321,cs),
(257,440,o),
(340,579,o),
(479,579,cs),
(579,579,o),
(624,505,o),
(624,419,cs),
(624,300,o),
(542,161,o),
(403,161,cs)
);
},
{
closed = 1;
nodes = (
(759,868,l),
(737,785,l),
(730,761,o),
(714,750,o),
(689,750,cs),
(505,750,l),
(479,652,l),
(750,652,ls),
(830,652,o),
(868,692,o),
(887,755,c),
(916,868,l)
);
},
{
closed = 1;
nodes = (
(351,-260,o),
(389,-220,o),
(389,-171,cs),
(389,-121,o),
(351,-82,o),
(300,-82,cs),
(247,-82,o),
(211,-121,o),
(211,-171,cs),
(211,-220,o),
(247,-260,o),
(300,-260,cs)
);
}
);
width = 824;
},
{
layerId = "96AFF54B-CDB9-40A8-9C60-2DEF28996F09";
shapes = (
{
closed = 1;
nodes = (
(612,-10,o),
(760,229,o),
(760,440,cs),
(760,604,o),
(671,750,o),
(467,750,cs),
(208,750,o),
(59,512,o),
(59,300,cs),
(59,135,o),
(149,-10,o),
(353,-10,cs)
);
},
{
closed = 1;
nodes = (
(219,79,o),
(159,182,o),
(159,302,cs),
(159,467,o),
(271,662,o),
(463,662,cs),
(603,662,o),
(661,557,o),
(661,437,cs),
(661,273,o),
(550,79,o),
(357,79,cs)
);
},
{
closed = 1;
nodes = (
(716,851,l),
(701,791,ls),
(693,762,o),
(679,750,o),
(645,750,cs),
(469,750,l),
(453,688,l),
(679,688,ls),
(735,688,o),
(768,717,o),
(783,770,c),
(804,851,l)
);
},
{
closed = 1;
nodes = (
(314,-227,o),
(342,-198,o),
(342,-162,cs),
(342,-126,o),
(314,-97,o),
(277,-97,cs),
(239,-97,o),
(212,-126,o),
(212,-162,cs),
(212,-197,o),
(239,-227,o),
(277,-227,cs)
);
}
);
width = 777;
},
{
layerId = "6FA1D1A9-9908-45CC-BE31-7B82C0699C2A";
shapes = (
{
closed = 1;
nodes = (
(589,-10,o),
(735,236,o),
(735,450,cs),
(735,610,o),
(653,750,o),
(466,750,cs),
(217,750,o),
(70,504,o),
(70,290,cs),
(70,129,o),
(152,-10,o),
(340,-10,cs)
);
},
{
closed = 1;
nodes = (
(165,24,o),
(106,161,o),
(106,290,cs),
(106,471,o),
(227,716,o),
(466,716,cs),
(641,716,o),
(699,579,o),
(699,450,cs),
(699,268,o),
(579,24,o),
(340,24,cs)
);
},
{
closed = 1;
nodes = (
(699,840,l),
(692,808,ls),
(682,767,o),
(661,750,o),
(616,750,cs),
(466,750,l),
(459,722,l),
(615,722,ls),
(677,722,o),
(711,749,o),
(725,808,cs),
(732,840,l)
);
},
{
closed = 1;
nodes = (
(298,-192,o),
(315,-175,o),
(315,-154,cs),
(315,-134,o),
(298,-117,o),
(277,-117,cs),
(256,-117,o),
(240,-134,o),
(240,-154,cs),
(240,-175,o),
(256,-192,o),
(277,-192,cs)
);
}
);
width = 775;
}
);
leftKerningGroup = O;
rightKerningGroup = O;
unicode = 7906;
},
{
glyphname = Ohorngrave;
layers = (
{
layerId = "75B83567-2B70-4CA3-ABBB-A798085DCD06";
shapes = (
{
closed = 1;
nodes = (
(665,-10,o),
(816,217,o),
(816,424,cs),
(816,595,o),
(714,750,o),
(488,750,cs),
(215,750,o),
(64,523,o),
(64,316,cs),
(64,145,o),
(166,-10,o),
(393,-10,cs)
);
},
{
closed = 1;
nodes = (
(302,161,o),
(257,235,o),
(257,321,cs),
(257,440,o),
(340,579,o),
(479,579,cs),
(579,579,o),
(624,505,o),
(624,419,cs),
(624,300,o),
(542,161,o),
(403,161,cs)
);
},
{
closed = 1;
nodes = (
(759,868,l),
(737,785,l),
(730,761,o),
(714,750,o),
(689,750,cs),
(505,750,l),
(479,652,l),
(750,652,ls),
(830,652,o),
(868,692,o),
(887,755,c),
(916,868,l)
);
},
{
closed = 1;
nodes = (
(573,810,l),
(509,989,l),
(345,989,l),
(446,809,l)
);
}
);
width = 824;
},
{
layerId = "96AFF54B-CDB9-40A8-9C60-2DEF28996F09";
shapes = (
{
closed = 1;
nodes = (
(612,-10,o),
(760,229,o),
(760,440,cs),
(760,604,o),
(671,750,o),
(467,750,cs),
(208,750,o),
(59,512,o),
(59,300,cs),
(59,135,o),
(149,-10,o),
(353,-10,cs)
);
},
{
closed = 1;
nodes = (
(219,79,o),
(159,182,o),
(159,302,cs),
(159,467,o),
(271,662,o),
(463,662,cs),
(603,662,o),
(661,557,o),
(661,437,cs),
(661,273,o),
(550,79,o),
(357,79,cs)
);
},
{
closed = 1;
nodes = (
(716,851,l),
(701,791,ls),
(693,762,o),
(679,750,o),
(645,750,cs),
(469,750,l),
(453,688,l),
(679,688,ls),
(735,688,o),
(768,717,o),
(783,770,c),
(804,851,l)
);
},
{
closed = 1;
nodes = (
(536,821,l),
(475,1001,l),
(383,1001,l),
(461,820,l)
);
}
);
width = 777;
},
{
layerId = "6FA1D1A9-9908-45CC-BE31-7B82C0699C2A";
shapes = (
{
closed = 1;
nodes = (
(589,-10,o),
(735,236,o),
(735,450,cs),
(735,610,o),
(653,750,o),
(466,750,cs),
(217,750,o),
(70,504,o),
(70,290,cs),
(70,129,o),
(152,-10,o),
(340,-10,cs)
);
},
{
closed = 1;
nodes = (
(165,24,o),
(106,161,o),
(106,290,cs),
(106,471,o),
(227,716,o),
(466,716,cs),
(641,716,o),
(699,579,o),
(699,450,cs),
(699,268,o),
(579,24,o),
(340,24,cs)
);
},
{
closed = 1;
nodes = (
(699,840,l),
(692,808,ls),
(682,767,o),
(661,750,o),
(616,750,cs),
(466,750,l),
(459,722,l),
(615,722,ls),
(677,722,o),
(711,749,o),
(725,808,cs),
(732,840,l)
);
},
{
closed = 1;
nodes = (
(521,828,l),
(476,980,l),
(441,980,l),
(493,828,l)
);
}
);
width = 775;
}
);
leftKerningGroup = O;
rightKerningGroup = O;
unicode = 7900;
},
{
glyphname = Ohornhookabove;
layers = (
{
layerId = "75B83567-2B70-4CA3-ABBB-A798085DCD06";
shapes = (
{
closed = 1;
nodes = (
(665,-10,o),
(816,217,o),
(816,424,cs),
(816,595,o),
(714,750,o),
(488,750,cs),
(215,750,o),
(64,523,o),
(64,316,cs),
(64,145,o),
(166,-10,o),
(393,-10,cs)
);
},
{
closed = 1;
nodes = (
(302,161,o),
(257,235,o),
(257,321,cs),
(257,440,o),
(340,579,o),
(479,579,cs),
(579,579,o),
(624,505,o),
(624,419,cs),
(624,300,o),
(542,161,o),
(403,161,cs)
);
},
{
closed = 1;
nodes = (
(759,868,l),
(737,785,l),
(730,761,o),
(714,750,o),
(689,750,cs),
(505,750,l),
(479,652,l),
(750,652,ls),
(830,652,o),
(868,692,o),
(887,755,c),
(916,868,l)
);
},
{
closed = 1;
nodes = (
(565,795,l),
(585,866,l),
(529,801,l),
(578,825,ls),
(605,838,o),
(696,869,o),
(696,946,cs),
(696,998,o),
(650,1046,o),
(569,1046,cs),
(406,1046,o),
(411,909,o),
(411,923,c),
(512,923,l),
(512,923,o),
(514,957,o),
(553,957,cs),
(573,957,o),
(584,945,o),
(584,931,cs),
(584,914,o),
(569,900,o),
(530,883,cs),
(512,875,ls),
(487,864,o),
(476,847,o),
(471,828,cs),
(463,795,l)
);
}
);
width = 824;
},
{
layerId = "96AFF54B-CDB9-40A8-9C60-2DEF28996F09";
shapes = (
{
closed = 1;
nodes = (
(612,-10,o),
(760,229,o),
(760,440,cs),
(760,604,o),
(671,750,o),
(467,750,cs),
(208,750,o),
(59,512,o),
(59,300,cs),
(59,135,o),
(149,-10,o),
(353,-10,cs)
);
},
{
closed = 1;
nodes = (
(219,79,o),
(159,182,o),
(159,302,cs),
(159,467,o),
(271,662,o),
(463,662,cs),
(603,662,o),
(661,557,o),
(661,437,cs),
(661,273,o),
(550,79,o),
(357,79,cs)
);
},
{
closed = 1;
nodes = (
(716,851,l),
(701,791,ls),
(693,762,o),
(679,750,o),
(645,750,cs),
(469,750,l),
(453,688,l),
(679,688,ls),
(735,688,o),
(768,717,o),
(783,770,c),
(804,851,l)
);
},
{
closed = 1;
nodes = (
(534,804,l),
(550,863,l),
(505,821,l),
(530,830,l),
(591,854,o),
(644,881,o),
(644,934,cs),
(644,973,o),
(616,1018,o),
(545,1018,cs),
(435,1018,o),
(436,912,o),
(436,924,c),
(492,924,l),
(492,922,o),
(493,967,o),
(543,967,cs),
(571,967,o),
(584,951,o),
(584,934,cs),
(584,910,o),
(562,893,o),
(524,876,cs),
(509,869,ls),
(496,863,o),
(485,853,o),
(481,838,cs),
(472,804,l)
);
}
);
width = 777;
},
{
layerId = "6FA1D1A9-9908-45CC-BE31-7B82C0699C2A";
shapes = (
{
closed = 1;
nodes = (
(589,-10,o),
(735,236,o),
(735,450,cs),
(735,610,o),
(653,750,o),
(466,750,cs),
(217,750,o),
(70,504,o),
(70,290,cs),
(70,129,o),
(152,-10,o),
(340,-10,cs)
);
},
{
closed = 1;
nodes = (
(165,24,o),
(106,161,o),
(106,290,cs),
(106,471,o),
(227,716,o),
(466,716,cs),
(641,716,o),
(699,579,o),
(699,450,cs),
(699,268,o),
(579,24,o),
(340,24,cs)
);
},
{
closed = 1;
nodes = (
(699,840,l),
(692,808,ls),
(682,767,o),
(661,750,o),
(616,750,cs),
(466,750,l),
(459,722,l),
(615,722,ls),
(677,722,o),
(711,749,o),
(725,808,cs),
(732,840,l)
);
},
{
closed = 1;
nodes = (
(513,814,l),
(526,865,l),
(496,836,l),
(522,847,ls),
(582,872,o),
(619,898,o),
(619,939,cs),
(619,971,o),
(598,1005,o),
(546,1005,cs),
(456,1005,o),
(456,916,o),
(456,928,c),
(485,928,l),
(485,922,o),
(486,977,o),
(543,977,cs),
(575,977,o),
(589,958,o),
(589,939,cs),
(589,912,o),
(568,892,o),
(526,874,cs),
(511,868,ls),
(502,864,o),
(496,856,o),
(493,846,cs),
(485,814,l)
);
}
);
width = 775;
}
);
leftKerningGroup = O;
rightKerningGroup = O;
unicode = 7902;
},
{
glyphname = Ohorntilde;
layers = (
{
layerId = "75B83567-2B70-4CA3-ABBB-A798085DCD06";
shapes = (
{
closed = 1;
nodes = (
(665,-10,o),
(816,217,o),
(816,424,cs),
(816,595,o),
(714,750,o),
(488,750,cs),
(215,750,o),
(64,523,o),
(64,316,cs),
(64,145,o),
(166,-10,o),
(393,-10,cs)
);
},
{
closed = 1;
nodes = (
(302,161,o),
(257,235,o),
(257,321,cs),
(257,440,o),
(340,579,o),
(479,579,cs),
(579,579,o),
(624,505,o),
(624,419,cs),
(624,300,o),
(542,161,o),
(403,161,cs)
);
},
{
closed = 1;
nodes = (
(759,868,l),
(737,785,l),
(730,761,o),
(714,750,o),
(689,750,cs),
(505,750,l),
(479,652,l),
(750,652,ls),
(830,652,o),
(868,692,o),
(887,755,c),
(916,868,l)
);
},
{
closed = 1;
nodes = (
(707,822,o),
(734,900,o),
(755,981,c),
(662,981,l),
(652,946,o),
(641,928,o),
(622,928,cs),
(588,928,o),
(560,987,o),
(487,987,cs),
(396,987,o),
(370,910,o),
(349,828,c),
(442,828,l),
(450,862,o),
(463,881,o),
(481,881,cs),
(516,881,o),
(544,822,o),
(617,822,cs)
);
}
);
width = 824;
},
{
layerId = "96AFF54B-CDB9-40A8-9C60-2DEF28996F09";
shapes = (
{
closed = 1;
nodes = (
(612,-10,o),
(760,229,o),
(760,440,cs),
(760,604,o),
(671,750,o),
(467,750,cs),
(208,750,o),
(59,512,o),
(59,300,cs),
(59,135,o),
(149,-10,o),
(353,-10,cs)
);
},
{
closed = 1;
nodes = (
(219,79,o),
(159,182,o),
(159,302,cs),
(159,467,o),
(271,662,o),
(463,662,cs),
(603,662,o),
(661,557,o),
(661,437,cs),
(661,273,o),
(550,79,o),
(357,79,cs)
);
},
{
closed = 1;
nodes = (
(716,851,l),
(701,791,ls),
(693,762,o),
(679,750,o),
(645,750,cs),
(469,750,l),
(453,688,l),
(679,688,ls),
(735,688,o),
(768,717,o),
(783,770,c),
(804,851,l)
);
},
{
closed = 1;
nodes = (
(655,826,o),
(684,876,o),
(703,958,c),
(641,958,l),
(632,916,o),
(621,893,o),
(599,893,cs),
(562,893,o),
(543,963,o),
(472,963,cs),
(413,963,o),
(384,914,o),
(365,832,c),
(426,832,l),
(435,874,o),
(449,898,o),
(470,898,cs),
(508,898,o),
(528,826,o),
(596,826,cs)
);
}
);
width = 777;
},
{
layerId = "6FA1D1A9-9908-45CC-BE31-7B82C0699C2A";
shapes = (
{
closed = 1;
nodes = (
(589,-10,o),
(735,236,o),
(735,450,cs),
(735,610,o),
(653,750,o),
(466,750,cs),
(217,750,o),
(70,504,o),
(70,290,cs),
(70,129,o),
(152,-10,o),
(340,-10,cs)
);
},
{
closed = 1;
nodes = (
(165,24,o),
(106,161,o),
(106,290,cs),
(106,471,o),
(227,716,o),
(466,716,cs),
(641,716,o),
(699,579,o),
(699,450,cs),
(699,268,o),
(579,24,o),
(340,24,cs)
);
},
{
closed = 1;
nodes = (
(699,840,l),
(692,808,ls),
(682,767,o),
(661,750,o),
(616,750,cs),
(466,750,l),
(459,722,l),
(615,722,ls),
(677,722,o),
(711,749,o),
(725,808,cs),
(732,840,l)
);
},
{
closed = 1;
nodes = (
(624,831,o),
(652,878,o),
(665,936,c),
(634,936,l),
(624,887,o),
(605,860,o),
(582,860,cs),
(540,860,o),
(543,941,o),
(480,941,cs),
(433,941,o),
(404,898,o),
(390,836,c),
(421,836,l),
(430,880,o),
(450,912,o),
(476,912,cs),
(518,912,o),
(518,831,o),
(578,831,cs)
);
}
);
width = 775;
}
);
leftKerningGroup = O;
rightKerningGroup = O;
unicode = 7904;
},
{
glyphname = Ohungarumlaut;
layers = (
{
layerId = "75B83567-2B70-4CA3-ABBB-A798085DCD06";
shapes = (
{
closed = 1;
nodes = (
(665,-10,o),
(816,217,o),
(816,424,cs),
(816,595,o),
(714,750,o),
(488,750,cs),
(215,750,o),
(64,523,o),
(64,316,cs),
(64,145,o),
(166,-10,o),
(393,-10,cs)
);
},
{
closed = 1;
nodes = (
(302,161,o),
(257,235,o),
(257,321,cs),
(257,440,o),
(340,579,o),
(479,579,cs),
(579,579,o),
(624,505,o),
(624,419,cs),
(624,300,o),
(542,161,o),
(403,161,cs)
);
},
{
closed = 1;
nodes = (
(594,987,l),
(438,987,l),
(356,808,l),
(475,807,l)
);
},
{
closed = 1;
nodes = (
(812,987,l),
(652,987,l),
(557,808,l),
(680,807,l)
);
}
);
width = 824;
},
{
layerId = "96AFF54B-CDB9-40A8-9C60-2DEF28996F09";
shapes = (
{
closed = 1;
nodes = (
(612,-10,o),
(760,229,o),
(760,440,cs),
(760,604,o),
(671,750,o),
(467,750,cs),
(208,750,o),
(59,512,o),
(59,300,cs),
(59,135,o),
(149,-10,o),
(353,-10,cs)
);
},
{
closed = 1;
nodes = (
(219,79,o),
(159,182,o),
(159,302,cs),
(159,467,o),
(271,662,o),
(463,662,cs),
(603,662,o),
(661,557,o),
(661,437,cs),
(661,273,o),
(550,79,o),
(357,79,cs)
);
},
{
closed = 1;
nodes = (
(592,999,l),
(489,999,l),
(373,819,l),
(459,818,l)
);
},
{
closed = 1;
nodes = (
(769,999,l),
(663,999,l),
(535,819,l),
(623,818,l)
);
}
);
width = 777;
},
{
layerId = "6FA1D1A9-9908-45CC-BE31-7B82C0699C2A";
shapes = (
{
closed = 1;
nodes = (
(589,-10,o),
(735,236,o),
(735,450,cs),
(735,610,o),
(653,750,o),
(466,750,cs),
(217,750,o),
(70,504,o),
(70,290,cs),
(70,129,o),
(152,-10,o),
(340,-10,cs)
);
},
{
closed = 1;
nodes = (
(165,24,o),
(106,161,o),
(106,290,cs),
(106,471,o),
(227,716,o),
(466,716,cs),
(641,716,o),
(699,579,o),
(699,450,cs),
(699,268,o),
(579,24,o),
(340,24,cs)
);
},
{
closed = 1;
nodes = (
(569,978,l),
(529,978,l),
(422,826,l),
(454,826,l)
);
},
{
closed = 1;
nodes = (
(687,978,l),
(647,978,l),
(540,826,l),
(572,826,l)
);
}
);
width = 775;
}
);
leftKerningGroup = O;
rightKerningGroup = O;
unicode = 336;
},
{
glyphname = Omacron;
layers = (
{
layerId = "75B83567-2B70-4CA3-ABBB-A798085DCD06";
shapes = (
{
closed = 1;
nodes = (
(665,-10,o),
(816,217,o),
(816,424,cs),
(816,595,o),
(714,750,o),
(488,750,cs),
(215,750,o),
(64,523,o),
(64,316,cs),
(64,145,o),
(166,-10,o),
(393,-10,cs)
);
},
{
closed = 1;
nodes = (
(302,161,o),
(257,235,o),
(257,321,cs),
(257,440,o),
(340,579,o),
(479,579,cs),
(579,579,o),
(624,505,o),
(624,419,cs),
(624,300,o),
(542,161,o),
(403,161,cs)
);
},
{
closed = 1;
nodes = (
(691,822,l),
(719,924,l),
(379,924,l),
(351,822,l)
);
}
);
width = 824;
},
{
layerId = "96AFF54B-CDB9-40A8-9C60-2DEF28996F09";
shapes = (
{
closed = 1;
nodes = (
(612,-10,o),
(760,229,o),
(760,440,cs),
(760,604,o),
(671,750,o),
(467,750,cs),
(208,750,o),
(59,512,o),
(59,300,cs),
(59,135,o),
(149,-10,o),
(353,-10,cs)
);
},
{
closed = 1;
nodes = (
(219,79,o),
(159,182,o),
(159,302,cs),
(159,467,o),
(271,662,o),
(463,662,cs),
(603,662,o),
(661,557,o),
(661,437,cs),
(661,273,o),
(550,79,o),
(357,79,cs)
);
},
{
closed = 1;
nodes = (
(659,852,l),
(679,924,l),
(375,924,l),
(355,852,l)
);
}
);
width = 777;
},
{
layerId = "6FA1D1A9-9908-45CC-BE31-7B82C0699C2A";
shapes = (
{
closed = 1;
nodes = (
(589,-10,o),
(735,236,o),
(735,450,cs),
(735,610,o),
(653,750,o),
(466,750,cs),
(217,750,o),
(70,504,o),
(70,290,cs),
(70,129,o),
(152,-10,o),
(340,-10,cs)
);
},
{
closed = 1;
nodes = (
(165,24,o),
(106,161,o),
(106,290,cs),
(106,471,o),
(227,716,o),
(466,716,cs),
(641,716,o),
(699,579,o),
(699,450,cs),
(699,268,o),
(579,24,o),
(340,24,cs)
);
},
{
closed = 1;
nodes = (
(656,839,l),
(664,869,l),
(384,869,l),
(376,839,l)
);
}
);
width = 775;
}
);
leftKerningGroup = O;
rightKerningGroup = O;
unicode = 332;
},
{
glyphname = Oslash;
leftMetricsKey = O;
rightMetricsKey = O;
layers = (
{
layerId = "75B83567-2B70-4CA3-ABBB-A798085DCD06";
shapes = (
{
closed = 1;
nodes = (
(175,-24,l),
(888,763,l),
(705,763,l),
(-8,-24,l)
);
},
{
closed = 1;
nodes = (
(665,-11,o),
(816,216,o),
(816,422,cs),
(816,594,o),
(713,749,o),
(487,749,cs),
(215,749,o),
(64,522,o),
(64,315,cs),
(64,144,o),
(166,-11,o),
(392,-11,cs)
);
},
{
closed = 1;
nodes = (
(302,160,o),
(257,234,o),
(257,320,cs),
(257,439,o),
(339,578,o),
(479,578,cs),
(579,578,o),
(624,504,o),
(624,417,cs),
(624,299,o),
(542,160,o),
(402,160,cs)
);
}
);
width = 825;
},
{
layerId = "96AFF54B-CDB9-40A8-9C60-2DEF28996F09";
shapes = (
{
closed = 1;
nodes = (
(112,-24,l),
(824,763,l),
(707,763,l),
(-6,-24,l)
);
},
{
closed = 1;
nodes = (
(612,-10,o),
(760,229,o),
(760,440,cs),
(760,604,o),
(671,750,o),
(467,750,cs),
(208,750,o),
(59,512,o),
(59,300,cs),
(59,135,o),
(149,-10,o),
(353,-10,cs)
);
},
{
closed = 1;
nodes = (
(219,79,o),
(159,182,o),
(159,302,cs),
(159,467,o),
(271,662,o),
(463,662,cs),
(603,662,o),
(661,557,o),
(661,437,cs),
(661,273,o),
(550,79,o),
(357,79,cs)
);
}
);
width = 777;
},
{
layerId = "6FA1D1A9-9908-45CC-BE31-7B82C0699C2A";
shapes = (
{
closed = 1;
nodes = (
(68,-23,l),
(780,764,l),
(738,764,l),
(26,-23,l)
);
},
{
closed = 1;
nodes = (
(589,-10,o),
(735,236,o),
(735,450,cs),
(735,610,o),
(653,750,o),
(466,750,cs),
(217,750,o),
(70,504,o),
(70,290,cs),
(70,129,o),
(152,-10,o),
(340,-10,cs)
);
},
{
closed = 1;
nodes = (
(165,24,o),
(106,161,o),
(106,290,cs),
(106,471,o),
(227,716,o),
(466,716,cs),
(641,716,o),
(699,579,o),
(699,450,cs),
(699,268,o),
(579,24,o),
(340,24,cs)
);
}
);
width = 775;
}
);
leftKerningGroup = O;
rightKerningGroup = O;
unicode = 216;
},
{
glyphname = Otilde;
layers = (
{
layerId = "75B83567-2B70-4CA3-ABBB-A798085DCD06";
shapes = (
{
closed = 1;
nodes = (
(665,-10,o),
(816,217,o),
(816,424,cs),
(816,595,o),
(714,750,o),
(488,750,cs),
(215,750,o),
(64,523,o),
(64,316,cs),
(64,145,o),
(166,-10,o),
(393,-10,cs)
);
},
{
closed = 1;
nodes = (
(302,161,o),
(257,235,o),
(257,321,cs),
(257,440,o),
(340,579,o),
(479,579,cs),
(579,579,o),
(624,505,o),
(624,419,cs),
(624,300,o),
(542,161,o),
(403,161,cs)
);
},
{
closed = 1;
nodes = (
(704,820,o),
(731,897,o),
(752,979,c),
(659,979,l),
(649,943,o),
(638,926,o),
(619,926,cs),
(585,926,o),
(557,985,o),
(484,985,cs),
(393,985,o),
(367,907,o),
(346,826,c),
(439,826,l),
(448,860,o),
(460,879,o),
(479,879,cs),
(514,879,o),
(541,820,o),
(614,820,cs)
);
}
);
width = 824;
},
{
layerId = "96AFF54B-CDB9-40A8-9C60-2DEF28996F09";
shapes = (
{
closed = 1;
nodes = (
(612,-10,o),
(760,229,o),
(760,440,cs),
(760,604,o),
(671,750,o),
(467,750,cs),
(208,750,o),
(59,512,o),
(59,300,cs),
(59,135,o),
(149,-10,o),
(353,-10,cs)
);
},
{
closed = 1;
nodes = (
(219,79,o),
(159,182,o),
(159,302,cs),
(159,467,o),
(271,662,o),
(463,662,cs),
(603,662,o),
(661,557,o),
(661,437,cs),
(661,273,o),
(550,79,o),
(357,79,cs)
);
},
{
closed = 1;
nodes = (
(642,823,o),
(671,874,o),
(690,956,c),
(629,956,l),
(620,914,o),
(609,891,o),
(586,891,cs),
(549,891,o),
(530,961,o),
(460,961,cs),
(400,961,o),
(371,911,o),
(352,829,c),
(414,829,l),
(423,872,o),
(437,896,o),
(457,896,cs),
(495,896,o),
(515,823,o),
(584,823,cs)
);
}
);
width = 777;
},
{
layerId = "6FA1D1A9-9908-45CC-BE31-7B82C0699C2A";
shapes = (
{
closed = 1;
nodes = (
(589,-10,o),
(735,236,o),
(735,450,cs),
(735,610,o),
(653,750,o),
(466,750,cs),
(217,750,o),
(70,504,o),
(70,290,cs),
(70,129,o),
(152,-10,o),
(340,-10,cs)
);
},
{
closed = 1;
nodes = (
(165,24,o),
(106,161,o),
(106,290,cs),
(106,471,o),
(227,716,o),
(466,716,cs),
(641,716,o),
(699,579,o),
(699,450,cs),
(699,268,o),
(579,24,o),
(340,24,cs)
);
},
{
closed = 1;
nodes = (
(624,829,o),
(651,876,o),
(665,934,c),
(634,934,l),
(624,884,o),
(605,858,o),
(581,858,cs),
(540,858,o),
(542,939,o),
(479,939,cs),
(432,939,o),
(403,895,o),
(390,834,c),
(421,834,l),
(430,878,o),
(450,910,o),
(476,910,cs),
(517,910,o),
(517,829,o),
(577,829,cs)
);
}
);
width = 775;
}
);
leftKerningGroup = O;
rightKerningGroup = O;
unicode = 213;
},
{
glyphname = OE;
leftMetricsKey = O;
rightMetricsKey = E;
layers = (
{
layerId = "75B83567-2B70-4CA3-ABBB-A798085DCD06";
shapes = (
{
closed = 1;
nodes = (
(519,740,ls),
(222,740,o),
(63,520,o),
(63,320,cs),
(63,158,o),
(167,9,o),
(378,0,c),
(893,0,l),
(936,166,l),
(602,166,l),
(637,296,l),
(921,296,l),
(964,454,l),
(679,454,l),
(711,574,l),
(1040,574,l),
(1084,740,l)
);
},
{
closed = 1;
nodes = (
(249,444,o),
(338,569,o),
(498,569,cs),
(518,569,l),
(412,168,l),
(415,168,l),
(306,168,o),
(249,247,o),
(249,334,cs)
);
}
);
width = 1000;
},
{
layerId = "96AFF54B-CDB9-40A8-9C60-2DEF28996F09";
shapes = (
{
closed = 1;
nodes = (
(484,740,ls),
(215,740,o),
(56,503,o),
(56,295,cs),
(56,139,o),
(147,1,o),
(347,0,c),
(803,0,l),
(825,86,l),
(457,86,l),
(523,334,l),
(840,334,l),
(863,420,l),
(546,420,l),
(608,654,l),
(971,654,l),
(994,740,l)
);
},
{
closed = 1;
nodes = (
(156,463,o),
(279,654,o),
(478,654,cs),
(510,654,l),
(359,86,l),
(365,86,l),
(220,86,o),
(156,186,o),
(156,301,cs)
);
}
);
width = 945;
},
{
layerId = "6FA1D1A9-9908-45CC-BE31-7B82C0699C2A";
shapes = (
{
closed = 1;
nodes = (
(511,740,ls),
(231,740,o),
(67,499,o),
(67,291,cs),
(67,135,o),
(160,0,o),
(357,0,cs),
(802,0,l),
(810,34,l),
(427,34,l),
(515,362,l),
(843,362,l),
(852,396,l),
(524,396,l),
(606,706,l),
(983,706,l),
(992,740,l)
);
},
{
closed = 1;
nodes = (
(103,483,o),
(252,706,o),
(511,706,cs),
(571,706,l),
(392,34,l),
(357,34,ls),
(185,34,o),
(103,153,o),
(103,294,cs)
);
}
);
width = 910;
}
);
leftKerningGroup = O;
rightKerningGroup = E;
unicode = 338;
},
{
glyphname = P;
leftMetricsKey = l;
layers = (
{
layerId = "75B83567-2B70-4CA3-ABBB-A798085DCD06";
shapes = (
{
closed = 1;
nodes = (
(428,239,ls),
(624,239,o),
(733,384,o),
(733,518,cs),
(733,633,o),
(653,740,o),
(478,740,cs),
(337,740,l),
(293,573,l),
(451,573,ls),
(513,573,o),
(541,537,o),
(541,498,cs),
(541,453,o),
(503,405,o),
(438,405,cs),
(248,405,l),
(205,239,l)
);
},
{
closed = 1;
nodes = (
(181,0,l),
(377,740,l),
(185,740,l),
(-11,0,l)
);
}
);
width = 721;
},
{
layerId = "96AFF54B-CDB9-40A8-9C60-2DEF28996F09";
shapes = (
{
closed = 1;
nodes = (
(361,256,ls),
(555,256,o),
(663,400,o),
(663,530,cs),
(663,640,o),
(588,740,o),
(428,740,cs),
(249,740,l),
(227,654,l),
(418,654,ls),
(518,654,o),
(563,591,o),
(563,522,cs),
(563,438,o),
(494,342,o),
(371,342,cs),
(143,342,l),
(120,256,l)
);
},
{
closed = 1;
nodes = (
(114,0,l),
(310,740,l),
(212,740,l),
(16,0,l)
);
}
);
width = 628;
},
{
layerId = "6FA1D1A9-9908-45CC-BE31-7B82C0699C2A";
shapes = (
{
closed = 1;
nodes = (
(330,292,ls),
(517,292,o),
(618,424,o),
(618,546,cs),
(618,647,o),
(548,740,o),
(396,740,cs),
(228,740,l),
(219,706,l),
(395,706,ls),
(523,706,o),
(583,629,o),
(583,545,cs),
(583,441,o),
(495,326,o),
(331,326,cs),
(118,326,l),
(109,292,l)
);
},
{
closed = 1;
nodes = (
(57,0,l),
(254,740,l),
(219,740,l),
(22,0,l)
);
}
);
width = 598;
}
);
leftKerningGroup = l;
unicode = 80;
},
{
glyphname = Thorn;
leftMetricsKey = P;
rightMetricsKey = P;
layers = (
{
layerId = "75B83567-2B70-4CA3-ABBB-A798085DCD06";
shapes = (
{
closed = 1;
nodes = (
(403,120,ls),
(599,120,o),
(708,265,o),
(708,399,cs),
(708,514,o),
(628,621,o),
(453,621,cs),
(312,621,l),
(268,454,l),
(426,454,ls),
(488,454,o),
(516,419,o),
(516,379,cs),
(516,335,o),
(478,286,o),
(413,286,cs),
(223,286,l),
(180,120,l)
);
},
{
closed = 1;
nodes = (
(181,0,l),
(377,740,l),
(185,740,l),
(-11,0,l)
);
}
);
width = 728;
},
{
layerId = "96AFF54B-CDB9-40A8-9C60-2DEF28996F09";
shapes = (
{
closed = 1;
nodes = (
(335,128,ls),
(529,128,o),
(636,272,o),
(636,402,cs),
(636,512,o),
(561,612,o),
(401,612,cs),
(223,612,l),
(200,526,l),
(391,526,ls),
(491,526,o),
(537,463,o),
(537,394,cs),
(537,310,o),
(468,214,o),
(345,214,cs),
(117,214,l),
(94,128,l)
);
},
{
closed = 1;
nodes = (
(114,0,l),
(310,740,l),
(212,740,l),
(16,0,l)
);
}
);
width = 635;
},
{
layerId = "6FA1D1A9-9908-45CC-BE31-7B82C0699C2A";
shapes = (
{
closed = 1;
nodes = (
(301,146,ls),
(488,146,o),
(590,278,o),
(590,400,cs),
(590,501,o),
(519,594,o),
(367,594,cs),
(199,594,l),
(190,560,l),
(366,560,ls),
(495,560,o),
(555,483,o),
(555,399,cs),
(555,295,o),
(466,180,o),
(302,180,cs),
(89,180,l),
(80,146,l)
);
},
{
closed = 1;
nodes = (
(57,0,l),
(254,740,l),
(219,740,l),
(22,0,l)
);
}
);
width = 609;
}
);
leftKerningGroup = l;
rightKerningGroup = P;
unicode = 222;
},
{
glyphname = Q;
layers = (
{
layerId = "75B83567-2B70-4CA3-ABBB-A798085DCD06";
shapes = (
{
closed = 1;
nodes = (
(648,-87,l),
(775,0,l),
(692,130,l),
(764,214,o),
(801,320,o),
(801,424,cs),
(801,595,o),
(699,750,o),
(473,750,cs),
(200,750,o),
(49,524,o),
(49,316,cs),
(49,145,o),
(151,-10,o),
(378,-10,cs),
(449,-10,o),
(510,4,o),
(563,31,c)
);
},
{
closed = 1;
nodes = (
(287,161,o),
(242,237,o),
(242,321,cs),
(242,440,o),
(324,579,o),
(464,579,cs),
(564,579,o),
(609,504,o),
(609,419,cs),
(609,378,o),
(600,339,o),
(583,301,c),
(526,390,l),
(383,296,l),
(464,177,l),
(439,166,o),
(414,161,o),
(388,161,cs)
);
}
);
width = 765;
},
{
layerId = "96AFF54B-CDB9-40A8-9C60-2DEF28996F09";
shapes = (
{
closed = 1;
nodes = (
(668,-59,l),
(738,0,l),
(654,112,l),
(737,201,o),
(781,326,o),
(781,440,cs),
(781,604,o),
(693,750,o),
(489,750,cs),
(232,750,o),
(84,511,o),
(84,299,cs),
(84,134,o),
(172,-10,o),
(375,-10,cs),
(456,-10,o),
(524,13,o),
(583,52,c)
);
},
{
closed = 1;
nodes = (
(237,75,o),
(178,181,o),
(178,301,cs),
(178,467,o),
(290,665,o),
(486,665,cs),
(627,665,o),
(687,558,o),
(687,438,cs),
(687,351,o),
(656,257,o),
(599,185,c),
(496,324,l),
(422,265,l),
(531,121,l),
(488,92,o),
(438,75,o),
(378,75,cs)
);
}
);
width = 757;
},
{
layerId = "6FA1D1A9-9908-45CC-BE31-7B82C0699C2A";
shapes = (
{
closed = 1;
nodes = (
(713,-22,l),
(736,0,l),
(645,107,l),
(730,198,o),
(777,330,o),
(777,450,cs),
(777,611,o),
(695,750,o),
(509,750,cs),
(259,750,o),
(112,503,o),
(112,290,cs),
(112,129,o),
(195,-10,o),
(382,-10,cs),
(478,-10,o),
(558,26,o),
(622,85,c)
);
},
{
closed = 1;
nodes = (
(207,24,o),
(148,161,o),
(148,290,cs),
(148,494,o),
(284,718,o),
(509,716,c),
(682,716,o),
(741,579,o),
(741,450,cs),
(741,345,o),
(700,222,o),
(623,134,c),
(503,276,l),
(480,255,l),
(600,111,l),
(544,58,o),
(471,24,o),
(382,24,cs)
);
}
);
width = 726;
}
);
leftKerningGroup = O;
rightKerningGroup = Q;
unicode = 81;
},
{
glyphname = R;
leftMetricsKey = l;
layers = (
{
layerId = "75B83567-2B70-4CA3-ABBB-A798085DCD06";
shapes = (
{
closed = 1;
nodes = (
(446,268,ls),
(647,268,o),
(749,409,o),
(749,524,cs),
(749,626,o),
(668,740,o),
(484,740,cs),
(357,740,l),
(313,575,l),
(474,575,ls),
(534,575,o),
(559,538,o),
(559,504,cs),
(559,467,o),
(526,421,o),
(459,421,cs),
(273,421,l),
(232,268,l)
);
},
{
closed = 1;
nodes = (
(619,0,l),
(535,322,l),
(354,299,l),
(427,0,l)
);
},
{
closed = 1;
nodes = (
(181,0,l),
(377,740,l),
(185,740,l),
(-11,0,l)
);
}
);
width = 726;
},
{
layerId = "96AFF54B-CDB9-40A8-9C60-2DEF28996F09";
shapes = (
{
closed = 1;
nodes = (
(362,311,ls),
(534,311,o),
(628,436,o),
(628,550,cs),
(628,648,o),
(559,740,o),
(407,740,cs),
(237,740,l),
(214,654,l),
(406,654,ls),
(491,654,o),
(529,604,o),
(529,547,cs),
(529,475,o),
(469,395,o),
(362,395,cs),
(146,395,l),
(123,311,l)
);
},
{
closed = 1;
nodes = (
(507,0,l),
(394,353,l),
(299,346,l),
(407,0,l)
);
},
{
closed = 1;
nodes = (
(114,0,l),
(310,740,l),
(212,740,l),
(16,0,l)
);
}
);
width = 642;
},
{
layerId = "6FA1D1A9-9908-45CC-BE31-7B82C0699C2A";
shapes = (
{
closed = 1;
nodes = (
(366,343,ls),
(518,343,o),
(609,458,o),
(609,565,cs),
(609,656,o),
(545,740,o),
(406,740,cs),
(246,740,l),
(238,706,l),
(406,706,ls),
(521,706,o),
(573,638,o),
(573,563,cs),
(573,475,o),
(499,377,o),
(369,377,cs),
(150,377,l),
(141,343,l)
);
},
{
closed = 1;
nodes = (
(494,0,l),
(371,374,l),
(335,377,l),
(458,0,l)
);
},
{
closed = 1;
nodes = (
(57,0,l),
(254,740,l),
(219,740,l),
(22,0,l)
);
}
);
width = 593;
}
);
leftKerningGroup = l;
rightKerningGroup = R;
unicode = 82;
},
{
glyphname = Racute;
layers = (
{
layerId = "75B83567-2B70-4CA3-ABBB-A798085DCD06";
shapes = (
{
closed = 1;
nodes = (
(445,268,ls),
(646,268,o),
(748,409,o),
(748,524,cs),
(748,626,o),
(667,740,o),
(482,740,cs),
(356,740,l),
(312,575,l),
(473,575,ls),
(532,575,o),
(558,538,o),
(558,504,cs),
(558,467,o),
(525,421,o),
(458,421,cs),
(272,421,l),
(231,268,l)
);
},
{
closed = 1;
nodes = (
(618,0,l),
(534,322,l),
(353,299,l),
(425,0,l)
);
},
{
closed = 1;
nodes = (
(180,0,l),
(376,740,l),
(184,740,l),
(-13,0,l)
);
},
{
closed = 1;
nodes = (
(670,989,l),
(500,989,l),
(423,810,l),
(556,809,l)
);
}
);
width = 725;
},
{
layerId = "96AFF54B-CDB9-40A8-9C60-2DEF28996F09";
shapes = (
{
closed = 1;
nodes = (
(360,311,ls),
(532,311,o),
(626,436,o),
(626,550,cs),
(626,648,o),
(557,740,o),
(405,740,cs),
(235,740,l),
(212,654,l),
(404,654,ls),
(488,654,o),
(527,604,o),
(527,547,cs),
(527,475,o),
(467,395,o),
(360,395,cs),
(143,395,l),
(121,311,l)
);
},
{
closed = 1;
nodes = (
(504,0,l),
(392,353,l),
(297,346,l),
(405,0,l)
);
},
{
closed = 1;
nodes = (
(112,0,l),
(308,740,l),
(210,740,l),
(14,0,l)
);
},
{
closed = 1;
nodes = (
(588,1001,l),
(494,1001,l),
(399,821,l),
(477,820,l)
);
}
);
width = 627;
},
{
layerId = "6FA1D1A9-9908-45CC-BE31-7B82C0699C2A";
shapes = (
{
closed = 1;
nodes = (
(364,343,ls),
(515,343,o),
(606,458,o),
(606,565,cs),
(606,656,o),
(543,740,o),
(404,740,cs),
(244,740,l),
(235,706,l),
(404,706,ls),
(519,706,o),
(570,638,o),
(570,563,cs),
(570,475,o),
(496,377,o),
(366,377,cs),
(148,377,l),
(139,343,l)
);
},
{
closed = 1;
nodes = (
(492,0,l),
(369,374,l),
(333,377,l),
(456,0,l)
);
},
{
closed = 1;
nodes = (
(55,0,l),
(251,740,l),
(216,740,l),
(20,0,l)
);
},
{
closed = 1;
nodes = (
(538,980,l),
(502,980,l),
(432,828,l),
(461,828,l)
);
}
);
width = 590;
}
);
leftKerningGroup = l;
rightKerningGroup = R;
unicode = 340;
},
{
glyphname = Rcaron;
layers = (
{
layerId = "75B83567-2B70-4CA3-ABBB-A798085DCD06";
shapes = (
{
closed = 1;
nodes = (
(445,268,ls),
(646,268,o),
(748,409,o),
(748,524,cs),
(748,626,o),
(667,740,o),
(482,740,cs),
(356,740,l),
(312,575,l),
(473,575,ls),
(532,575,o),
(558,538,o),
(558,504,cs),
(558,467,o),
(525,421,o),
(458,421,cs),
(272,421,l),
(231,268,l)
);
},
{
closed = 1;
nodes = (
(618,0,l),
(534,322,l),
(353,299,l),
(425,0,l)
);
},
{
closed = 1;
nodes = (
(180,0,l),
(376,740,l),
(184,740,l),
(-13,0,l)
);
},
{
closed = 1;
nodes = (
(553,800,l),
(738,989,l),
(589,989,l),
(462,854,l),
(509,845,l),
(454,989,l),
(321,989,l),
(406,800,l)
);
}
);
width = 725;
},
{
layerId = "96AFF54B-CDB9-40A8-9C60-2DEF28996F09";
shapes = (
{
closed = 1;
nodes = (
(360,311,ls),
(532,311,o),
(626,436,o),
(626,550,cs),
(626,648,o),
(557,740,o),
(405,740,cs),
(235,740,l),
(212,654,l),
(404,654,ls),
(488,654,o),
(527,604,o),
(527,547,cs),
(527,475,o),
(467,395,o),
(360,395,cs),
(143,395,l),
(121,311,l)
);
},
{
closed = 1;
nodes = (
(504,0,l),
(392,353,l),
(297,346,l),
(405,0,l)
);
},
{
closed = 1;
nodes = (
(112,0,l),
(308,740,l),
(210,740,l),
(14,0,l)
);
},
{
closed = 1;
nodes = (
(463,818,l),
(627,985,l),
(534,985,l),
(399,846,l),
(449,837,l),
(383,985,l),
(304,985,l),
(382,818,l)
);
}
);
width = 627;
},
{
layerId = "6FA1D1A9-9908-45CC-BE31-7B82C0699C2A";
shapes = (
{
closed = 1;
nodes = (
(364,343,ls),
(515,343,o),
(606,458,o),
(606,565,cs),
(606,656,o),
(543,740,o),
(404,740,cs),
(244,740,l),
(235,706,l),
(404,706,ls),
(519,706,o),
(570,638,o),
(570,563,cs),
(570,475,o),
(496,377,o),
(366,377,cs),
(148,377,l),
(139,343,l)
);
},
{
closed = 1;
nodes = (
(492,0,l),
(369,374,l),
(333,377,l),
(456,0,l)
);
},
{
closed = 1;
nodes = (
(55,0,l),
(251,740,l),
(216,740,l),
(20,0,l)
);
},
{
closed = 1;
nodes = (
(461,818,l),
(612,970,l),
(567,970,l),
(434,832,l),
(450,832,l),
(389,970,l),
(353,970,l),
(424,818,l)
);
}
);
width = 590;
}
);
leftKerningGroup = l;
rightKerningGroup = R;
unicode = 344;
},
